<?xml version="1.0" encoding="utf-8"?>
<!-- Generator: Adobe Illustrator 22.0.1, SVG Export Plug-In . SVG Version: 6.00 Build 0)  -->
<svg version="1.1" id="Layer_1" xmlns="http://www.w3.org/2000/svg" xmlns:xlink="http://www.w3.org/1999/xlink" x="0px" y="0px"
	 viewBox="0 0 162 288" enable-background="new 0 0 162 288" xml:space="preserve">
<g id="Layer_x0020_1">
	<g id="_205934345520">
		<g>
			<polygon fill="#FFFFFF" points="0,0 162,0 162,288 0,288 			"/>
			<g>
				<path fill="#FFFF00" d="M75.5,71.6c1.1,3.1,0.1,5.4-2.4,7.2c-0.6,0.4-1.2,0.8-1.8,1.1c-0.2,0.1-0.4,0.2-0.6,0.3
					c0.1,0.2,0.2,0.5,0.4,0.7c0.5-0.1,1-0.2,1.4-0.2c0.7-0.1,1.4-0.1,2.1-0.1c3.3-0.1,5.2,1.5,6.1,4.5c0.2,0.6,0.3,1.2,0.5,1.8
					c0.3,0,0.7,0,1,0c0-0.2,0.1-0.4,0.1-0.6c0.1-0.7,0.3-1.4,0.5-2c1-3.2,3.1-4.5,6.2-4.5c0.5,0,1,0,1.6,0.1
					c0.1-0.3,0.3-0.7,0.4-1.1c-0.1-0.1-0.2-0.1-0.4-0.2c-0.6-0.3-1.2-0.7-1.8-1.1c-2.7-1.9-3.3-4.3-2.3-7.2c0.2-0.7,0.5-1.3,0.8-2
					c0.1-0.1,0.1-0.3,0.2-0.4c-0.2-0.2-0.4-0.3-0.6-0.5c-0.3,0.3-0.6,0.7-1,1c-0.5,0.5-1.1,0.9-1.6,1.3c-2.6,2-5.1,1.9-7.6,0
					c-0.6-0.4-1.1-0.9-1.6-1.3c-0.3-0.2-0.5-0.5-0.8-0.8c-0.1,0.1-0.3,0.2-0.4,0.3c0.3,0.6,0.6,1.2,0.9,1.8
					C75,70.2,75.2,70.9,75.5,71.6L75.5,71.6z"/>
				<path fill="#33CC33" d="M91.6,55.2c0-20.2-22.4-20.2-22.4,0c0,5.2,2.2,9.8,5.8,13.1c0.5,0.5,1.1,0.9,1.6,1.3c2.5,1.9,5,2,7.6,0
					c0.6-0.4,1.1-0.9,1.6-1.3C89.4,65,91.6,60.4,91.6,55.2L91.6,55.2z"/>
				<path fill="#373435" d="M90.9,55.2c0-7-2.7-11.4-6.3-13.4c-1.3-0.7-2.8-1.1-4.2-1.1s-2.9,0.4-4.2,1.1c-3.5,1.9-6.3,6.4-6.3,13.4
					c0,2.4,0.5,4.8,1.4,6.9c1,2.2,2.4,4.1,4.1,5.7c0.3,0.2,0.5,0.5,0.8,0.7c0.3,0.2,0.5,0.4,0.8,0.6l0,0c1.1,0.8,2.2,1.3,3.3,1.3
					c1.1,0,2.2-0.4,3.4-1.3c0.3-0.2,0.5-0.4,0.8-0.6c0.3-0.2,0.5-0.4,0.8-0.7c1.7-1.6,3.1-3.5,4.1-5.7
					C90.4,59.9,90.9,57.6,90.9,55.2z M85.3,40.6c3.9,2.1,7,7,7,14.6c0,2.6-0.6,5.2-1.6,7.4c-1,2.4-2.6,4.5-4.4,6.2
					c-0.3,0.2-0.5,0.5-0.8,0.7c-0.3,0.2-0.6,0.4-0.8,0.7h0c-1.4,1.1-2.9,1.6-4.3,1.6c-1.4,0-2.8-0.6-4.2-1.6v0
					c-0.3-0.2-0.6-0.4-0.9-0.7c-0.3-0.2-0.6-0.5-0.8-0.7c-1.9-1.7-3.4-3.8-4.4-6.2c-1-2.3-1.6-4.8-1.6-7.4c0-7.6,3.1-12.4,7-14.6
					c1.5-0.8,3.2-1.3,4.9-1.3C82.1,39.3,83.8,39.8,85.3,40.6L85.3,40.6z"/>
				<path fill="#FF00FF" d="M104.9,80c19.2-6.2,12.3-27.5-6.9-21.3c-4.9,1.6-8.7,5.1-10.7,9.5c-0.3,0.6-0.5,1.3-0.8,2
					c-1,2.9-0.4,5.3,2.3,7.2c0.6,0.4,1.2,0.8,1.8,1.1C94.8,80.9,99.9,81.6,104.9,80L104.9,80z"/>
				<path fill="#373435" d="M104.7,79.3c6.7-2.1,10-6.1,10.8-10.1c0.3-1.5,0.2-3-0.3-4.4c-0.4-1.4-1.2-2.7-2.4-3.7
					c-2.9-2.8-8-4-14.6-1.9c-2.3,0.8-4.4,2-6.1,3.5c-1.8,1.6-3.2,3.5-4.2,5.7c-0.1,0.3-0.3,0.6-0.4,0.9c-0.1,0.3-0.2,0.6-0.3,1
					c-0.5,1.3-0.5,2.5-0.2,3.6c0.3,1.1,1.1,2,2.3,2.9c0.3,0.2,0.6,0.4,0.9,0.6c0.3,0.2,0.6,0.4,0.9,0.5c2.1,1.2,4.3,1.9,6.7,2.1
					C100,80.3,102.3,80.1,104.7,79.3L104.7,79.3z M116.8,69.5c-0.8,4.4-4.5,8.8-11.7,11.1c-2.5,0.8-5.1,1.1-7.5,0.8
					c-2.6-0.3-5-1.1-7.3-2.3c-0.3-0.2-0.6-0.4-0.9-0.6c-0.3-0.2-0.6-0.4-0.9-0.6c-1.5-1-2.4-2.2-2.8-3.6c-0.4-1.4-0.3-2.8,0.2-4.4
					c0.1-0.3,0.2-0.7,0.4-1c0.1-0.3,0.3-0.7,0.4-1c1.1-2.3,2.6-4.4,4.5-6.1c1.9-1.6,4.1-2.9,6.6-3.8c7.2-2.3,12.8-0.9,16,2.2
					c1.3,1.2,2.2,2.7,2.7,4.3C117,66.1,117.1,67.8,116.8,69.5L116.8,69.5z"/>
				<path fill="#FFCC00" d="M85.3,100.2c11.8,16.4,30,3.3,18.2-13.1c-3-4.2-7.6-6.7-12.3-7.3c-0.7-0.1-1.4-0.1-2.1-0.1
					c-3.1-0.1-5.2,1.3-6.2,4.4c-0.2,0.7-0.4,1.3-0.5,2C81.4,90.9,82.3,96,85.3,100.2L85.3,100.2z"/>
				<path fill="#0048FF" d="M60.1,87.8c-12,16.3,6.1,29.5,18,13.3c3.1-4.2,4-9.3,3.1-14c-0.1-0.7-0.3-1.4-0.5-2
					c-0.9-3-2.8-4.6-6.1-4.5c-0.7,0-1.4,0-2.1,0.1C67.7,81.2,63.1,83.7,60.1,87.8L60.1,87.8z"/>
				<path fill="#373435" d="M60.6,88.2c-4.1,5.6-4.6,10.8-2.9,14.5c0.6,1.4,1.6,2.5,2.8,3.4c1.2,0.9,2.6,1.4,4.1,1.6
					c4,0.5,8.8-1.4,13-7.1c1.4-2,2.4-4.1,2.9-6.4c0.5-2.3,0.5-4.7,0.1-7.1c-0.1-0.3-0.1-0.7-0.2-1c-0.1-0.3-0.2-0.7-0.3-1
					c-0.4-1.3-1-2.4-1.9-3c-0.9-0.7-2-1-3.5-1c-0.3,0-0.7,0-1,0c-0.3,0-0.7,0-1,0.1c-2.3,0.3-4.6,1-6.7,2.2
					C63.8,84.7,62.1,86.3,60.6,88.2L60.6,88.2z M56.5,103.3c-1.9-4-1.5-9.8,3-15.9c1.6-2.1,3.5-3.8,5.7-5.1c2.2-1.3,4.7-2.1,7.2-2.4
					h0c0.4,0,0.7-0.1,1.1-0.1c0.3,0,0.7,0,1.1,0c1.8,0,3.3,0.4,4.4,1.3c1.1,0.9,1.9,2.1,2.4,3.7c0.1,0.3,0.2,0.7,0.3,1
					c0.1,0.4,0.2,0.7,0.2,1.1c0.5,2.5,0.5,5.1-0.1,7.6c-0.5,2.4-1.6,4.8-3.1,6.9c-4.5,6.1-9.8,8.2-14.2,7.6
					c-1.8-0.2-3.4-0.9-4.7-1.9C58.3,106.2,57.2,104.9,56.5,103.3L56.5,103.3z"/>
				<path fill="#FF0000" d="M64.1,60C44.9,53.6,37.8,74.9,57,81.2c4.9,1.6,10,1,14.3-1.3c0.6-0.3,1.2-0.7,1.8-1.1
					c2.6-1.8,3.5-4.1,2.4-7.2c-0.2-0.7-0.5-1.3-0.7-2C72.7,65.2,69,61.6,64.1,60L64.1,60z"/>
				<path fill="#373435" d="M63.9,60.6c-6.6-2.2-11.7-1-14.7,1.7c-1.1,1-1.9,2.3-2.4,3.7c-0.5,1.4-0.6,2.9-0.3,4.4
					c0.7,3.9,4.1,8,10.7,10.2c2.3,0.8,4.7,1,7,0.8c2.4-0.2,4.7-0.9,6.7-2.1c0.3-0.2,0.6-0.3,0.9-0.5c0.3-0.2,0.5-0.4,0.8-0.6
					c1.2-0.8,1.9-1.7,2.3-2.8c0.4-1,0.3-2.3-0.2-3.7c-0.1-0.3-0.2-0.7-0.3-1c-0.1-0.3-0.2-0.6-0.4-0.9c-1-2.2-2.4-4.1-4.1-5.7
					C68.2,62.6,66.2,61.4,63.9,60.6L63.9,60.6z M48.3,61.4c3.3-3,8.9-4.4,16-2c2.5,0.8,4.7,2.2,6.6,3.8c1.9,1.7,3.4,3.8,4.5,6.2
					c0.1,0.3,0.3,0.7,0.4,1c0.1,0.4,0.3,0.7,0.4,1c0.6,1.7,0.6,3.2,0.2,4.6c-0.5,1.3-1.4,2.5-2.8,3.4c-0.3,0.2-0.6,0.4-0.9,0.6
					c-0.3,0.2-0.6,0.4-0.9,0.6c-2.2,1.2-4.7,2-7.3,2.2c-2.5,0.2-5,0-7.5-0.9c-7.2-2.4-10.8-6.8-11.6-11.2c-0.3-1.7-0.2-3.5,0.3-5.1
					C46.1,64,47,62.6,48.3,61.4L48.3,61.4z"/>
				<path fill="#373435" d="M85.9,99.8c4.1,5.7,8.9,7.7,12.9,7.2c1.5-0.2,2.9-0.7,4.1-1.6c1.2-0.8,2.1-2,2.8-3.4
					c1.7-3.6,1.3-8.8-2.7-14.5c-1.4-2-3.2-3.6-5.2-4.7c-2.1-1.2-4.3-2-6.7-2.2c-0.3,0-0.7-0.1-1-0.1c-0.4,0-0.7,0-1,0
					c-1.4,0-2.6,0.3-3.5,0.9c-0.9,0.6-1.6,1.6-2,3.1c-0.1,0.3-0.2,0.7-0.3,1c-0.1,0.3-0.2,0.6-0.2,1c-0.5,2.3-0.5,4.7,0,7.1
					C83.5,95.7,84.4,97.8,85.9,99.8L85.9,99.8z M98.9,108.4c-4.4,0.5-9.8-1.6-14.2-7.7c-1.5-2.1-2.6-4.5-3.1-6.9
					c-0.5-2.5-0.5-5.1,0-7.6c0.1-0.4,0.2-0.7,0.3-1.1c0.1-0.3,0.2-0.7,0.3-1c0.5-1.7,1.4-3,2.5-3.8c1.2-0.8,2.6-1.2,4.3-1.1
					c0.4,0,0.7,0,1.1,0c0.4,0,0.7,0.1,1.1,0.1c2.5,0.3,5,1.1,7.2,2.4c2.1,1.3,4.1,3,5.6,5.1c4.4,6.1,4.8,11.9,2.9,15.9
					c-0.8,1.6-1.9,2.9-3.2,3.9C102.3,107.5,100.7,108.2,98.9,108.4L98.9,108.4z"/>
			</g>
		</g>
		<g>
			<path fill="#FFFFFF" d="M69.5,194.4c2.2,6.5,0.3,11.3-5,14.9c-1.2,0.8-2.4,1.6-3.7,2.3c-0.4,0.2-0.8,0.4-1.3,0.7
				c0.2,0.5,0.5,0.9,0.8,1.4c1-0.2,2-0.3,3-0.4c1.4-0.2,2.9-0.2,4.3-0.2c6.9-0.1,10.8,3.2,12.7,9.3c0.4,1.2,0.7,2.5,1,3.7
				c0.7,0,1.4,0,2.1-0.1c0.1-0.4,0.2-0.9,0.2-1.3c0.3-1.4,0.7-2.8,1.1-4.2c2-6.6,6.3-9.3,12.8-9.2c1.1,0,2.2,0.1,3.2,0.2
				c0.3-0.7,0.5-1.5,0.8-2.2c-0.2-0.1-0.5-0.3-0.7-0.4c-1.3-0.7-2.5-1.5-3.6-2.4c-5.6-3.9-6.9-8.9-4.8-15c0.5-1.4,1-2.7,1.6-4
				c0.1-0.3,0.2-0.5,0.4-0.8c-0.4-0.4-0.9-0.7-1.3-1c-0.6,0.7-1.3,1.3-2,2c-1.1,1-2.2,1.9-3.4,2.7c-5.5,4.2-10.6,3.8-15.7,0
				c-1.2-0.9-2.3-1.8-3.4-2.7c-0.6-0.5-1.1-1-1.6-1.6c-0.3,0.2-0.6,0.5-0.9,0.7c0.7,1.2,1.3,2.4,1.9,3.6
				C68.6,191.7,69.1,193,69.5,194.4L69.5,194.4z"/>
			<path fill="#FFFFFF" d="M103,160.5c0-41.8-46.3-41.8-46.3,0c0,10.7,4.6,20.4,11.9,27.1c1.1,1,2.2,1.9,3.4,2.7
				c5.1,3.8,10.3,4.2,15.7,0c1.1-0.9,2.3-1.8,3.4-2.7C98.4,180.9,103,171.2,103,160.5L103,160.5z"/>
			<path fill="#373435" d="M101.6,160.5c0-14.5-5.7-23.7-12.9-27.6c-2.8-1.5-5.8-2.3-8.8-2.3c-3,0-6,0.8-8.8,2.3
				c-7.3,4-12.9,13.2-12.9,27.6c0,5.1,1.1,9.9,3,14.2c2,4.5,4.9,8.6,8.5,11.9c0.5,0.5,1.1,0.9,1.6,1.4c0.6,0.5,1.1,0.9,1.7,1.3l0,0
				c2.3,1.7,4.6,2.7,6.9,2.7c2.3,0,4.6-0.8,7.1-2.7c0.6-0.4,1.1-0.9,1.7-1.3c0.5-0.4,1.1-0.9,1.6-1.3c3.6-3.3,6.5-7.3,8.5-11.9
				C100.5,170.4,101.6,165.6,101.6,160.5L101.6,160.5z M90,130.4c8.1,4.4,14.4,14.5,14.4,30.1c0,5.5-1.1,10.7-3.2,15.4
				c-2.1,4.9-5.3,9.2-9.2,12.8c-0.5,0.5-1.1,1-1.7,1.5c-0.6,0.5-1.2,0.9-1.7,1.4h0c-3,2.3-5.9,3.3-8.9,3.3c-2.9,0-5.8-1.2-8.6-3.3v0
				c-0.6-0.5-1.2-0.9-1.8-1.4c-0.6-0.5-1.2-1-1.7-1.5c-3.9-3.6-7-7.9-9.2-12.8c-2.1-4.7-3.2-9.9-3.2-15.4c0-15.6,6.3-25.7,14.4-30.1
				c3.2-1.8,6.7-2.6,10.1-2.6S86.8,128.6,90,130.4z"/>
			<path fill="#FFFFFF" d="M130.4,211.8c39.8-12.8,25.5-56.9-14.2-44.1c-10.2,3.3-18,10.6-22.1,19.7c-0.6,1.3-1.1,2.7-1.6,4
				c-2.1,6.1-0.8,11.1,4.8,15c1.2,0.8,2.4,1.6,3.6,2.4C109.6,213.7,120.2,215.1,130.4,211.8L130.4,211.8z"/>
			<path fill="#373435" d="M129.9,210.5c13.7-4.4,20.8-12.7,22.3-20.8c0.6-3.1,0.4-6.2-0.5-9.1c-0.9-2.9-2.6-5.5-4.9-7.7
				c-6-5.7-16.5-8.3-30.3-3.8c-4.8,1.6-9.1,4-12.6,7.2c-3.7,3.3-6.6,7.3-8.7,11.7c-0.3,0.6-0.6,1.3-0.8,1.9c-0.2,0.6-0.5,1.3-0.7,2
				c-0.9,2.8-1.1,5.2-0.5,7.4c0.7,2.2,2.2,4.2,4.8,5.9c0.6,0.4,1.2,0.8,1.8,1.2c0.6,0.4,1.2,0.8,1.8,1.1c4.2,2.4,9,3.9,13.9,4.4
				C120.2,212.5,125.1,212.1,129.9,210.5L129.9,210.5z M155,190.2c-1.7,9.1-9.4,18.2-24.2,23c-5.2,1.7-10.5,2.2-15.6,1.7
				c-5.3-0.5-10.4-2.2-15-4.8c-0.7-0.4-1.3-0.8-1.9-1.2c-0.6-0.4-1.2-0.8-1.8-1.2c-3.1-2.1-5-4.6-5.9-7.4c-0.9-2.8-0.6-5.8,0.5-9.2
				c0.2-0.7,0.5-1.4,0.8-2.1c0.3-0.7,0.6-1.4,0.9-2.1c2.2-4.8,5.4-9.1,9.4-12.6c3.8-3.4,8.4-6.1,13.6-7.8
				c14.9-4.8,26.4-1.9,33.1,4.5c2.7,2.5,4.6,5.5,5.6,8.9C155.5,183.1,155.7,186.6,155,190.2L155,190.2z"/>
			<path fill="#FFFFFF" d="M89.9,253.7c24.4,33.9,62,6.8,37.5-27.1c-6.3-8.7-15.6-13.8-25.5-15c-1.4-0.2-2.9-0.2-4.3-0.3
				c-6.4-0.1-10.8,2.6-12.8,9.2c-0.4,1.4-0.8,2.8-1.1,4.2C81.7,234.5,83.7,245,89.9,253.7L89.9,253.7z"/>
			<path fill="#FFFFFF" d="M37.7,228.1C13,261.7,50.3,289.1,75,255.5c6.3-8.6,8.4-19.1,6.4-28.9c-0.3-1.4-0.7-2.8-1.1-4.2
				c-1.9-6.1-5.8-9.4-12.7-9.3c-1.4,0-2.9,0.1-4.3,0.2C53.5,214.4,44.1,219.4,37.7,228.1L37.7,228.1z"/>
			<path fill="#373435" d="M38.8,228.9c-8.6,11.6-9.4,22.4-5.9,29.9c1.3,2.9,3.3,5.3,5.7,7c2.4,1.8,5.3,2.9,8.4,3.4
				c8.2,1.1,18.2-3,26.8-14.6c3-4.1,5-8.6,6-13.2c1.1-4.8,1.1-9.8,0.2-14.6c-0.1-0.7-0.3-1.4-0.5-2c-0.2-0.7-0.4-1.4-0.6-2
				c-0.8-2.8-2.1-4.9-4-6.3c-1.8-1.4-4.2-2.1-7.3-2c-0.7,0-1.4,0-2.1,0.1c-0.7,0-1.4,0.1-2.1,0.2c-4.9,0.5-9.6,2.1-13.9,4.5
				C45.5,221.6,41.8,224.8,38.8,228.9L38.8,228.9z M30.3,260c-3.9-8.4-3-20.2,6.2-32.8c3.2-4.4,7.2-7.9,11.7-10.5
				c4.6-2.7,9.7-4.3,15-4.9h0c0.7-0.1,1.5-0.1,2.3-0.2c0.7,0,1.5,0,2.2-0.1c3.8-0.1,6.8,0.8,9.1,2.6c2.3,1.8,3.9,4.4,5,7.7
				c0.2,0.7,0.4,1.4,0.6,2.1c0.2,0.8,0.4,1.5,0.5,2.2c1,5.2,1,10.5-0.2,15.7c-1.1,5-3.3,9.9-6.5,14.3c-9.3,12.6-20.3,17-29.4,15.7
				c-3.6-0.5-6.9-1.8-9.7-3.9C34.2,266.1,31.9,263.3,30.3,260L30.3,260z"/>
			<path fill="#FFFFFF" d="M46,170.5c-39.6-13.2-54.3,30.7-14.6,43.9c10.2,3.4,20.8,2.1,29.5-2.7c1.3-0.7,2.5-1.5,3.7-2.3
				c5.3-3.7,7.2-8.4,5-14.9c-0.5-1.4-1-2.7-1.5-4.1C63.9,181.3,56.2,173.9,46,170.5L46,170.5z"/>
			<path fill="#373435" d="M45.6,171.8c-13.7-4.6-24.2-2.1-30.3,3.6c-2.3,2.2-4,4.8-4.9,7.6c-0.9,2.9-1.2,5.9-0.6,9.1
				c1.5,8.2,8.4,16.4,22.1,21c4.8,1.6,9.7,2.1,14.4,1.7c4.9-0.5,9.7-1.9,13.9-4.3c0.6-0.3,1.2-0.7,1.8-1.1c0.5-0.3,1.1-0.7,1.8-1.2
				c2.4-1.7,4-3.5,4.8-5.7c0.8-2.2,0.7-4.7-0.3-7.6c-0.2-0.7-0.5-1.4-0.7-2c-0.2-0.6-0.5-1.3-0.8-1.9c-2-4.5-4.9-8.5-8.6-11.8
				C54.6,175.9,50.4,173.4,45.6,171.8L45.6,171.8z M13.3,173.3c6.8-6.3,18.3-9.1,33.1-4.2c5.2,1.7,9.7,4.5,13.6,7.9
				c4,3.6,7.1,7.9,9.3,12.7c0.3,0.7,0.6,1.4,0.9,2.1c0.3,0.8,0.5,1.4,0.7,2.1c1.2,3.6,1.3,6.7,0.3,9.4c-1,2.8-2.9,5.1-5.8,7.1
				c-0.6,0.4-1.2,0.8-1.9,1.2c-0.6,0.4-1.3,0.8-1.9,1.2c-4.6,2.6-9.7,4.2-15,4.7c-5.1,0.5-10.4-0.1-15.6-1.8
				c-14.8-4.9-22.4-14.1-24-23.2c-0.7-3.6-0.4-7.2,0.7-10.5C8.7,178.8,10.7,175.8,13.3,173.3L13.3,173.3z"/>
			<path fill="#373435" d="M91.1,252.8c8.5,11.7,18.4,15.9,26.7,14.8c3.1-0.4,6-1.5,8.5-3.3c2.4-1.8,4.4-4.1,5.8-7
				c3.6-7.5,2.8-18.3-5.7-30c-3-4.1-6.6-7.4-10.7-9.8c-4.3-2.5-9-4.1-13.8-4.6c-0.7-0.1-1.4-0.1-2.1-0.2c-0.7,0-1.4-0.1-2.1-0.1
				c-2.9,0-5.3,0.5-7.2,1.8c-1.9,1.3-3.3,3.4-4.2,6.4c-0.2,0.7-0.4,1.4-0.6,2c-0.2,0.7-0.3,1.3-0.5,2c-1,4.8-1,9.8,0,14.6
				C86.2,244.2,88.1,248.7,91.1,252.8z M118.1,270.5c-9.2,1.1-20.2-3.3-29.3-16c-3.2-4.4-5.3-9.3-6.4-14.3c-1.1-5.2-1.1-10.6,0-15.7
				c0.2-0.7,0.3-1.5,0.5-2.2c0.2-0.7,0.4-1.4,0.6-2.1c1.1-3.6,2.9-6.2,5.3-7.9c2.4-1.7,5.4-2.4,8.9-2.4c0.8,0,1.5,0,2.2,0.1
				c0.8,0,1.5,0.1,2.2,0.2c5.2,0.6,10.3,2.3,14.9,5c4.4,2.6,8.4,6.1,11.6,10.6c9.1,12.7,9.9,24.5,5.9,32.9c-1.6,3.3-3.9,6-6.7,8.1
				C125,268.7,121.7,270.1,118.1,270.5L118.1,270.5z"/>
		</g>
		<path fill="#CCCCCC" d="M44.4,12.8c0.3,0,0.5,0,0.7,0c0.1,0,0.3,0.1,0.5,0.2c0.2,0.1,0.3,0.3,0.4,0.5c0.1,0.2,0.1,0.6,0.1,1
			s0,0.7-0.1,1c-0.1,0.2-0.2,0.4-0.4,0.5c-0.2,0.1-0.4,0.2-0.5,0.2c-0.1,0-0.4,0-0.7,0h-5.8V18h3.7c0.3,0,0.5,0,0.7,0
			c0.1,0,0.3,0.1,0.5,0.2c0.3,0.2,0.5,0.7,0.5,1.5c0,0.9-0.2,1.4-0.7,1.6c-0.2,0.1-0.5,0.1-1,0.1h-3.7V25c0,0.3,0,0.5,0,0.7
			c0,0.1-0.1,0.3-0.2,0.5c-0.2,0.3-0.7,0.5-1.5,0.5c-0.9,0-1.4-0.2-1.6-0.7c-0.1-0.2-0.1-0.5-0.1-1V14.4c0-0.6,0.1-1.1,0.4-1.3
			c0.2-0.2,0.7-0.4,1.4-0.4C37,12.8,44.4,12.8,44.4,12.8z M47,18.3c0-0.3,0-0.5,0-0.7c0-0.1,0.1-0.3,0.2-0.5
			c0.2-0.3,0.7-0.5,1.5-0.5c0.6,0,1,0.1,1.3,0.3c0.2,0.2,0.3,0.4,0.3,0.8c0,0.1,0,0.3,0,0.6V25c0,0.3,0,0.5,0,0.7
			c0,0.1-0.1,0.3-0.2,0.5c-0.2,0.3-0.7,0.5-1.5,0.5c-0.8,0-1.3-0.2-1.5-0.5C47.1,26,47,25.8,47,25.7c0-0.1,0-0.4,0-0.7L47,18.3
			L47,18.3z M50.1,14.8c-0.1,0.2-0.3,0.3-0.5,0.4c-0.2,0.1-0.6,0.1-1,0.1s-0.7,0-1-0.1c-0.2-0.1-0.4-0.2-0.5-0.4
			c-0.1-0.2-0.2-0.4-0.2-0.5c0-0.1,0-0.4,0-0.7s0-0.5,0-0.7c0-0.1,0.1-0.3,0.2-0.5c0.2-0.3,0.7-0.5,1.5-0.5c0.8,0,1.3,0.2,1.4,0.5
			c0.1,0.2,0.2,0.4,0.2,0.5c0,0.1,0,0.4,0,0.7s0,0.5,0,0.7C50.2,14.5,50.2,14.6,50.1,14.8L50.1,14.8z M55.3,23.3
			c0.4,0,0.7,0.1,0.9,0.3c0.2,0.2,0.3,0.7,0.3,1.3c0,0.7-0.1,1.1-0.3,1.3c-0.2,0.2-0.5,0.3-0.9,0.3c-1.3,0-2.2-0.3-2.7-0.9
			c-0.5-0.6-0.8-1.6-0.8-3.1v-9.1c0-0.3,0-0.5,0-0.7c0-0.1,0.1-0.3,0.2-0.5c0.2-0.3,0.7-0.5,1.5-0.5c0.8,0,1.3,0.2,1.4,0.5
			c0.1,0.2,0.2,0.3,0.2,0.5c0,0.1,0,0.4,0,0.7v9.1C55.1,23.1,55.2,23.3,55.3,23.3L55.3,23.3z M60.3,22.7c0,0.2,0.1,0.4,0.2,0.5
			c0.1,0.1,0.4,0.1,0.8,0.1s0.8,0.1,1,0.3c0.3,0.2,0.4,0.7,0.4,1.3c0,0.7-0.1,1.1-0.4,1.3s-0.7,0.3-1.2,0.3c-2.7,0-4-1.3-4-4l0-9.1
			c0-0.3,0-0.5,0-0.7c0-0.1,0.1-0.3,0.2-0.5c0.2-0.3,0.7-0.5,1.5-0.5c0.8,0,1.3,0.2,1.4,0.5c0.1,0.3,0.2,0.7,0.2,1.1V22.7L60.3,22.7
			z M77.2,23l0.3-0.2c0.4-0.3,0.7-0.4,0.9-0.4c0.4,0,0.8,0.4,1.3,1.1c0.3,0.4,0.4,0.8,0.4,1.1c0,0.3-0.1,0.5-0.3,0.7
			c-0.2,0.2-0.4,0.3-0.6,0.5c-0.2,0.1-0.4,0.3-0.7,0.4c-0.2,0.1-0.6,0.3-1.3,0.5c-0.6,0.2-1.3,0.3-1.9,0.3c-0.6,0-1.2-0.1-1.8-0.2
			c-0.6-0.2-1.2-0.4-1.9-0.8c-0.7-0.4-1.2-0.8-1.8-1.4s-0.9-1.2-1.3-2.1c-0.3-0.8-0.5-1.8-0.5-2.7c0-1,0.2-1.9,0.5-2.7
			c0.3-0.8,0.8-1.5,1.3-2c0.5-0.5,1.1-1,1.8-1.3c1.2-0.7,2.5-1,3.7-1c0.6,0,1.2,0.1,1.8,0.3c0.6,0.2,1.1,0.4,1.4,0.6l0.5,0.3
			c0.2,0.1,0.4,0.3,0.5,0.3c0.3,0.3,0.5,0.6,0.5,0.9c0,0.3-0.1,0.7-0.4,1.1c-0.5,0.7-0.9,1-1.3,1c-0.2,0-0.6-0.1-1-0.4
			c-0.5-0.4-1.2-0.6-2.1-0.6c-0.8,0-1.6,0.3-2.4,0.9c-0.4,0.3-0.7,0.7-1,1.2c-0.3,0.5-0.4,1.1-0.4,1.7c0,0.6,0.1,1.2,0.4,1.7
			c0.3,0.5,0.6,0.9,1,1.2c0.8,0.6,1.6,0.8,2.4,0.8c0.4,0,0.8-0.1,1.1-0.2C76.8,23.2,77,23.1,77.2,23L77.2,23z M81.1,21.7
			c0-1.5,0.5-2.8,1.6-3.8c1.1-1,2.3-1.5,3.6-1.5c1.4,0,2.6,0.5,3.6,1.5c1.1,1,1.6,2.2,1.6,3.8c0,1.1-0.3,2-0.8,2.8
			c-0.5,0.8-1.2,1.4-2,1.8c-0.8,0.4-1.6,0.6-2.4,0.6c-0.8,0-1.6-0.2-2.4-0.6c-0.8-0.4-1.4-1-2-1.8C81.4,23.6,81.1,22.7,81.1,21.7
			L81.1,21.7z M85.1,23c0.4,0.3,0.8,0.5,1.2,0.5c0.4,0,0.8-0.2,1.3-0.5c0.4-0.3,0.6-0.8,0.6-1.4c0-0.6-0.2-1.1-0.6-1.4
			c-0.4-0.3-0.8-0.5-1.3-0.5c-0.5,0-0.9,0.2-1.3,0.5c-0.4,0.3-0.6,0.8-0.6,1.4C84.5,22.3,84.7,22.7,85.1,23L85.1,23z M92.8,13.6
			c0-0.3,0-0.5,0-0.7c0-0.1,0.1-0.3,0.2-0.5c0.2-0.3,0.7-0.5,1.5-0.5c0.8,0,1.3,0.2,1.4,0.5c0.1,0.2,0.2,0.4,0.2,0.5
			c0,0.2,0,0.4,0,0.7v8.8c0,0.5,0,0.7,0.1,0.9c0.1,0.1,0.2,0.2,0.5,0.2c0.3,0,0.4,0,0.5,0c0.1,0,0.2,0.1,0.3,0.2
			c0.3,0.2,0.4,0.6,0.4,1.3c0,0.8-0.1,1.3-0.4,1.5c-0.3,0.2-1.1,0.3-2.4,0.1c-1-0.1-1.6-0.4-1.9-1c-0.4-0.6-0.5-1.6-0.5-3V13.6
			L92.8,13.6z M98.7,21.7c0-1.5,0.5-2.8,1.6-3.8c1.1-1,2.3-1.5,3.6-1.5c1.4,0,2.6,0.5,3.6,1.5c1.1,1,1.6,2.2,1.6,3.8
			c0,1.1-0.3,2-0.8,2.8c-0.5,0.8-1.2,1.4-2,1.8c-0.8,0.4-1.6,0.6-2.4,0.6c-0.8,0-1.6-0.2-2.4-0.6c-0.8-0.4-1.4-1-2-1.8
			C99,23.6,98.7,22.7,98.7,21.7L98.7,21.7z M102.7,23c0.4,0.3,0.8,0.5,1.2,0.5c0.4,0,0.8-0.2,1.3-0.5c0.4-0.3,0.6-0.8,0.6-1.4
			c0-0.6-0.2-1.1-0.6-1.4c-0.4-0.3-0.8-0.5-1.3-0.5c-0.5,0-0.9,0.2-1.3,0.5c-0.4,0.3-0.6,0.8-0.6,1.4
			C102.1,22.3,102.3,22.7,102.7,23L102.7,23z M117.2,16.8c0.2,0.1,0.4,0.2,0.6,0.4c0.2,0.2,0.2,0.5,0.2,0.9c0,0.4-0.1,0.8-0.4,1.3
			s-0.6,0.7-1,0.7c-0.2,0-0.4-0.1-0.7-0.2c-0.2-0.1-0.5-0.2-0.8-0.2c-0.3,0-0.7,0.1-1,0.4c-0.3,0.2-0.4,0.5-0.4,0.9v4
			c0,0.3,0,0.5,0,0.7c0,0.1-0.1,0.3-0.2,0.5c-0.2,0.3-0.7,0.5-1.5,0.5c-0.6,0-1-0.1-1.3-0.3c-0.2-0.2-0.3-0.4-0.3-0.8
			c0-0.1,0-0.3,0-0.6v-6.7c0-0.3,0-0.5,0-0.7c0-0.1,0.1-0.3,0.2-0.5c0.2-0.3,0.7-0.5,1.5-0.5c0.8,0,1.2,0.1,1.4,0.4
			c0.1,0.2,0.2,0.4,0.2,0.6c0.1-0.1,0.2-0.2,0.3-0.3c0.1-0.1,0.4-0.3,0.8-0.5c0.4-0.2,0.7-0.3,1-0.3c0.3,0,0.5,0,0.8,0
			C116.8,16.7,117,16.7,117.2,16.8L117.2,16.8z M118.8,25.8c-0.2-0.2-0.4-0.4-0.4-0.7c0-0.3,0.2-0.8,0.7-1.5
			c0.1-0.2,0.4-0.3,0.7-0.3s0.7,0.2,1.3,0.5c0.5,0.3,1,0.5,1.4,0.5c0.8,0,1.2-0.2,1.2-0.5c0-0.2-0.4-0.4-1.3-0.5
			c-0.8-0.1-1.6-0.4-2.4-0.9c-0.4-0.2-0.7-0.6-0.9-1.1c-0.2-0.5-0.4-1.1-0.4-1.7c0-2,1.4-3,4.1-3c0.9,0,1.8,0.2,2.8,0.6
			c0.4,0.2,0.7,0.5,0.7,0.8s-0.1,0.7-0.4,1.1c-0.3,0.4-0.6,0.7-0.9,0.7c-0.2,0-0.4-0.1-0.8-0.3c-0.4-0.2-0.9-0.3-1.3-0.3
			c-0.7,0-1.1,0.1-1.1,0.4c0,0.4,0.4,0.6,1.3,0.7c0.8,0.1,1.6,0.3,2.4,0.7c0.4,0.2,0.7,0.5,0.9,0.9c0.2,0.4,0.4,1,0.4,1.6
			c0,0.7-0.1,1.2-0.4,1.7c-0.2,0.5-0.6,0.8-1,1c-0.8,0.4-1.8,0.6-3,0.6S119.9,26.5,118.8,25.8L118.8,25.8z"/>
	</g>
</g>
</svg>
