<?xml version="1.0" encoding="utf-8"?>
<!-- Generator: Adobe Illustrator 22.0.1, SVG Export Plug-In . SVG Version: 6.00 Build 0)  -->
<svg version="1.1" id="Layer_1" xmlns="http://www.w3.org/2000/svg" xmlns:xlink="http://www.w3.org/1999/xlink" x="0px" y="0px"
	 viewBox="0 0 288 122.4" enable-background="new 0 0 288 122.4" xml:space="preserve">
<g id="Layer_x0020_1">
	<g id="_205941083360">
		<g>
			<polygon fill="#FFFFFF" points="0,0 288,0 288,122.4 0,122.4 			"/>
			<g>
				<path fill="#FFFF00" d="M30.3,27.9c0.7,2,0.1,3.4-1.5,4.5c-0.4,0.3-0.7,0.5-1.1,0.7c-0.1,0.1-0.3,0.1-0.4,0.2
					c0.1,0.1,0.2,0.3,0.2,0.4c0.3-0.1,0.6-0.1,0.9-0.1c0.4,0,0.9-0.1,1.3-0.1c2.1,0,3.3,1,3.9,2.8c0.1,0.4,0.2,0.8,0.3,1.1
					c0.2,0,0.4,0,0.6,0c0-0.1,0-0.3,0.1-0.4c0.1-0.4,0.2-0.9,0.3-1.3c0.6-2,1.9-2.8,3.9-2.8c0.3,0,0.7,0,1,0
					c0.1-0.2,0.2-0.4,0.2-0.7c-0.1,0-0.2-0.1-0.2-0.1c-0.4-0.2-0.7-0.5-1.1-0.7c-1.7-1.2-2.1-2.7-1.5-4.6c0.1-0.4,0.3-0.8,0.5-1.2
					c0-0.1,0.1-0.2,0.1-0.2c-0.1-0.1-0.3-0.2-0.4-0.3c-0.2,0.2-0.4,0.4-0.6,0.6c-0.3,0.3-0.7,0.6-1,0.8c-1.7,1.3-3.2,1.2-4.8,0
					c-0.4-0.3-0.7-0.5-1-0.8c-0.2-0.2-0.3-0.3-0.5-0.5c-0.1,0.1-0.2,0.1-0.3,0.2c0.2,0.4,0.4,0.7,0.6,1.1
					C30,27.1,30.1,27.5,30.3,27.9L30.3,27.9z"/>
				<path fill="#33CC33" d="M40.4,17.6c0-12.7-14.1-12.7-14.1,0c0,3.3,1.4,6.2,3.6,8.2c0.3,0.3,0.7,0.6,1,0.8c1.6,1.2,3.1,1.3,4.8,0
					c0.3-0.3,0.7-0.5,1-0.8C39,23.8,40.4,20.9,40.4,17.6L40.4,17.6z"/>
				<path fill="#373435" d="M40,17.6c0-4.4-1.7-7.2-3.9-8.4c-0.8-0.5-1.8-0.7-2.7-0.7c-0.9,0-1.8,0.2-2.7,0.7
					c-2.2,1.2-3.9,4-3.9,8.4c0,1.5,0.3,3,0.9,4.3c0.6,1.4,1.5,2.6,2.6,3.6c0.2,0.1,0.3,0.3,0.5,0.4c0.2,0.1,0.3,0.3,0.5,0.4l0,0
					c0.7,0.5,1.4,0.8,2.1,0.8c0.7,0,1.4-0.3,2.2-0.8c0.2-0.1,0.3-0.3,0.5-0.4c0.2-0.1,0.3-0.3,0.5-0.4c1.1-1,2-2.2,2.6-3.6
					C39.7,20.6,40,19.1,40,17.6L40,17.6z M36.5,8.4c2.5,1.3,4.4,4.4,4.4,9.2c0,1.7-0.3,3.2-1,4.7c-0.7,1.5-1.6,2.8-2.8,3.9
					c-0.2,0.2-0.3,0.3-0.5,0.4c-0.2,0.1-0.4,0.3-0.5,0.4h0c-0.9,0.7-1.8,1-2.7,1c-0.9,0-1.8-0.4-2.6-1v0c-0.2-0.1-0.4-0.3-0.5-0.4
					c-0.2-0.1-0.4-0.3-0.5-0.4c-1.2-1.1-2.1-2.4-2.8-3.9c-0.6-1.4-1-3-1-4.7c0-4.8,1.9-7.8,4.4-9.2c1-0.5,2-0.8,3.1-0.8
					C34.4,7.6,35.5,7.9,36.5,8.4z"/>
				<path fill="#FF00FF" d="M48.7,33.2c12.1-3.9,7.8-17.3-4.3-13.4c-3.1,1-5.5,3.2-6.7,6c-0.2,0.4-0.3,0.8-0.5,1.2
					c-0.6,1.8-0.2,3.4,1.5,4.6c0.4,0.3,0.7,0.5,1.1,0.7C42.4,33.8,45.6,34.2,48.7,33.2L48.7,33.2z"/>
				<path fill="#373435" d="M48.6,32.8c4.2-1.3,6.3-3.9,6.8-6.3c0.2-0.9,0.1-1.9-0.2-2.8c-0.3-0.9-0.8-1.7-1.5-2.3
					c-1.8-1.7-5-2.5-9.2-1.2c-1.5,0.5-2.8,1.2-3.8,2.2c-1.1,1-2,2.2-2.6,3.6c-0.1,0.2-0.2,0.4-0.2,0.6c-0.1,0.2-0.1,0.4-0.2,0.6
					c-0.3,0.8-0.3,1.6-0.1,2.3c0.2,0.7,0.7,1.3,1.4,1.8c0.2,0.1,0.4,0.2,0.5,0.4c0.2,0.1,0.4,0.2,0.5,0.3c1.3,0.7,2.7,1.2,4.2,1.3
					C45.7,33.4,47.1,33.3,48.6,32.8L48.6,32.8z M56.2,26.6c-0.5,2.8-2.8,5.5-7.4,7c-1.6,0.5-3.2,0.7-4.7,0.5
					c-1.6-0.2-3.2-0.7-4.6-1.5c-0.2-0.1-0.4-0.2-0.6-0.4c-0.2-0.1-0.4-0.3-0.6-0.4c-0.9-0.7-1.5-1.4-1.8-2.3
					c-0.3-0.8-0.2-1.8,0.1-2.8c0.1-0.2,0.1-0.4,0.2-0.6c0.1-0.2,0.2-0.4,0.3-0.6c0.7-1.5,1.6-2.8,2.8-3.8c1.2-1,2.6-1.9,4.1-2.4
					c4.5-1.5,8-0.6,10.1,1.4c0.8,0.8,1.4,1.7,1.7,2.7C56.4,24.4,56.4,25.5,56.2,26.6L56.2,26.6z"/>
				<path fill="#FFCC00" d="M36.5,45.9c7.4,10.3,18.8,2.1,11.4-8.2c-1.9-2.6-4.8-4.2-7.8-4.6c-0.4-0.1-0.9-0.1-1.3-0.1
					c-2,0-3.3,0.8-3.9,2.8c-0.1,0.4-0.3,0.8-0.3,1.3C34,40.1,34.5,43.3,36.5,45.9L36.5,45.9z"/>
				<path fill="#0048FF" d="M20.6,38.1c-7.5,10.2,3.8,18.6,11.3,8.3c1.9-2.6,2.5-5.8,2-8.8c-0.1-0.4-0.2-0.9-0.3-1.3
					c-0.6-1.9-1.8-2.9-3.9-2.8c-0.4,0-0.9,0-1.3,0.1C25.4,34,22.5,35.5,20.6,38.1L20.6,38.1z"/>
				<path fill="#373435" d="M20.9,38.4c-2.6,3.5-2.9,6.8-1.8,9.1c0.4,0.9,1,1.6,1.7,2.1c0.7,0.5,1.6,0.9,2.6,1
					c2.5,0.3,5.5-0.9,8.1-4.4c0.9-1.2,1.5-2.6,1.8-4c0.3-1.5,0.3-3,0.1-4.4c0-0.2-0.1-0.4-0.1-0.6c-0.1-0.2-0.1-0.4-0.2-0.6
					c-0.3-0.8-0.7-1.5-1.2-1.9c-0.6-0.4-1.3-0.6-2.2-0.6c-0.2,0-0.4,0-0.6,0c-0.2,0-0.4,0-0.6,0c-1.5,0.2-2.9,0.6-4.2,1.4
					C23,36.1,21.8,37.1,20.9,38.4L20.9,38.4z M18.3,47.8c-1.2-2.5-0.9-6.1,1.9-10c1-1.3,2.2-2.4,3.6-3.2c1.4-0.8,3-1.3,4.5-1.5h0
					c0.2,0,0.5,0,0.7-0.1c0.2,0,0.4,0,0.7,0c1.1,0,2.1,0.3,2.8,0.8c0.7,0.5,1.2,1.3,1.5,2.3c0.1,0.2,0.1,0.4,0.2,0.7
					c0.1,0.2,0.1,0.5,0.2,0.7c0.3,1.6,0.3,3.2-0.1,4.8c-0.3,1.5-1,3-2,4.3c-2.8,3.8-6.2,5.2-9,4.8c-1.1-0.1-2.1-0.6-3-1.2
					C19.5,49.7,18.8,48.8,18.3,47.8L18.3,47.8z"/>
				<path fill="#FF0000" d="M23.1,20.6c-12-4-16.5,9.3-4.4,13.4c3.1,1,6.3,0.6,9-0.8c0.4-0.2,0.8-0.5,1.1-0.7
					c1.6-1.1,2.2-2.6,1.5-4.5c-0.1-0.4-0.3-0.8-0.5-1.2C28.5,23.9,26.2,21.7,23.1,20.6L23.1,20.6z"/>
				<path fill="#373435" d="M23,21c-4.2-1.4-7.4-0.6-9.2,1.1c-0.7,0.7-1.2,1.4-1.5,2.3c-0.3,0.9-0.4,1.8-0.2,2.8
					c0.5,2.5,2.6,5,6.7,6.4c1.5,0.5,2.9,0.6,4.4,0.5c1.5-0.1,2.9-0.6,4.2-1.3c0.2-0.1,0.4-0.2,0.5-0.3c0.2-0.1,0.3-0.2,0.5-0.4
					c0.7-0.5,1.2-1.1,1.5-1.7c0.2-0.7,0.2-1.4-0.1-2.3c-0.1-0.2-0.1-0.4-0.2-0.6c-0.1-0.2-0.2-0.4-0.2-0.6c-0.6-1.4-1.5-2.6-2.6-3.6
					C25.7,22.3,24.4,21.5,23,21L23,21z M13.2,21.5c2.1-1.9,5.6-2.8,10.1-1.3c1.6,0.5,3,1.4,4.1,2.4c1.2,1.1,2.2,2.4,2.8,3.9
					c0.1,0.2,0.2,0.4,0.3,0.6c0.1,0.2,0.2,0.4,0.2,0.6c0.4,1.1,0.4,2,0.1,2.9c-0.3,0.8-0.9,1.6-1.8,2.2c-0.2,0.1-0.4,0.2-0.6,0.4
					c-0.2,0.1-0.4,0.2-0.6,0.4c-1.4,0.8-3,1.3-4.6,1.4c-1.6,0.1-3.2,0-4.7-0.5c-4.5-1.5-6.8-4.3-7.3-7c-0.2-1.1-0.1-2.2,0.2-3.2
					C11.8,23.2,12.4,22.2,13.2,21.5L13.2,21.5z"/>
				<path fill="#373435" d="M36.8,45.7c2.6,3.6,5.6,4.8,8.1,4.5c1-0.1,1.8-0.5,2.6-1c0.7-0.5,1.3-1.3,1.8-2.1
					c1.1-2.3,0.8-5.6-1.7-9.1c-0.9-1.2-2-2.2-3.3-3c-1.3-0.8-2.7-1.2-4.2-1.4c-0.2,0-0.4,0-0.6-0.1c-0.2,0-0.4,0-0.6,0
					c-0.9,0-1.6,0.2-2.2,0.6c-0.6,0.4-1,1-1.3,1.9c-0.1,0.2-0.1,0.4-0.2,0.6C35.1,36.8,35,37,35,37.2c-0.3,1.5-0.3,3,0,4.4
					C35.3,43,35.9,44.4,36.8,45.7L36.8,45.7z M45,51c-2.8,0.3-6.1-1-8.9-4.9c-1-1.3-1.6-2.8-1.9-4.4c-0.3-1.6-0.3-3.2,0-4.8
					c0-0.2,0.1-0.4,0.2-0.7c0.1-0.2,0.1-0.4,0.2-0.6c0.3-1.1,0.9-1.9,1.6-2.4c0.7-0.5,1.6-0.7,2.7-0.7c0.2,0,0.5,0,0.7,0
					c0.2,0,0.5,0,0.7,0.1c1.6,0.2,3.1,0.7,4.5,1.5c1.3,0.8,2.6,1.9,3.5,3.2c2.8,3.9,3,7.5,1.8,10c-0.5,1-1.2,1.8-2,2.5
					C47.1,50.5,46.1,50.9,45,51L45,51z"/>
			</g>
		</g>
		<g>
			<path fill="#FFFFFF" d="M117.2,56.9c1.7,5,0.2,8.6-3.8,11.4c-0.9,0.6-1.8,1.2-2.8,1.8c-0.3,0.2-0.6,0.3-1,0.5
				c0.2,0.4,0.4,0.7,0.6,1.1c0.7-0.1,1.5-0.3,2.3-0.3c1.1-0.1,2.2-0.2,3.3-0.2c5.3-0.1,8.3,2.4,9.7,7.1c0.3,0.9,0.6,1.9,0.8,2.9
				c0.5,0,1.1,0,1.6,0c0.1-0.3,0.1-0.7,0.2-1c0.2-1.1,0.5-2.1,0.9-3.2c1.5-5,4.9-7.1,9.8-7c0.8,0,1.6,0,2.5,0.1
				c0.2-0.5,0.4-1.1,0.6-1.7c-0.2-0.1-0.4-0.2-0.6-0.3c-1-0.5-1.9-1.2-2.8-1.8c-4.3-3-5.3-6.8-3.7-11.5c0.4-1,0.7-2.1,1.2-3.1
				c0.1-0.2,0.2-0.4,0.3-0.6c-0.3-0.3-0.7-0.5-1-0.8c-0.5,0.5-1,1-1.5,1.5c-0.8,0.7-1.7,1.4-2.6,2.1c-4.2,3.2-8.1,2.9-12,0
				c-0.9-0.7-1.8-1.4-2.6-2.1c-0.4-0.4-0.8-0.8-1.2-1.2c-0.2,0.2-0.4,0.3-0.7,0.5c0.5,0.9,1,1.8,1.4,2.8
				C116.5,54.8,116.9,55.9,117.2,56.9L117.2,56.9z"/>
			<path fill="#FFFFFF" d="M142.8,31c0-32-35.4-32-35.4,0c0,8.2,3.5,15.6,9.1,20.7c0.8,0.7,1.7,1.4,2.6,2.1c3.9,2.9,7.9,3.2,12,0
				c0.9-0.7,1.8-1.4,2.6-2.1C139.3,46.6,142.8,39.2,142.8,31z"/>
			<path fill="#373435" d="M141.7,31c0-11.1-4.3-18.1-9.9-21.1c-2.1-1.2-4.4-1.7-6.7-1.7s-4.6,0.6-6.7,1.7c-5.6,3-9.9,10.1-9.9,21.1
				c0,3.9,0.8,7.5,2.3,10.9c1.5,3.5,3.7,6.5,6.5,9.1c0.4,0.4,0.8,0.7,1.2,1c0.4,0.3,0.9,0.7,1.3,1l0,0c1.8,1.3,3.5,2.1,5.3,2.1
				c1.8,0,3.6-0.6,5.4-2.1c0.4-0.3,0.9-0.7,1.3-1c0.4-0.3,0.8-0.7,1.2-1c2.7-2.5,5-5.6,6.5-9.1C140.9,38.5,141.7,34.9,141.7,31
				L141.7,31z M132.9,7.9c6.2,3.4,11,11.1,11,23c0,4.2-0.9,8.1-2.5,11.7c-1.6,3.7-4,7.1-7,9.8c-0.4,0.4-0.9,0.8-1.3,1.1
				c-0.4,0.4-0.9,0.7-1.3,1h0c-2.3,1.7-4.5,2.5-6.8,2.5c-2.2,0-4.4-0.9-6.6-2.5v0c-0.5-0.3-0.9-0.7-1.3-1c-0.5-0.4-0.9-0.7-1.3-1.1
				c-3-2.7-5.4-6.1-7-9.8c-1.6-3.6-2.5-7.6-2.5-11.7c0-12,4.8-19.6,11-23c2.4-1.3,5.1-2,7.8-2S130.4,6.6,132.9,7.9L132.9,7.9z"/>
			<path fill="#FFFFFF" d="M163.8,70.3c30.4-9.8,19.5-43.5-10.9-33.7c-7.8,2.5-13.7,8.1-16.9,15c-0.5,1-0.9,2-1.2,3.1
				c-1.6,4.7-0.6,8.5,3.7,11.5c0.9,0.6,1.8,1.3,2.8,1.8C147.8,71.7,156,72.8,163.8,70.3L163.8,70.3z"/>
			<path fill="#373435" d="M163.4,69.2c10.5-3.4,15.9-9.7,17.1-15.9c0.5-2.4,0.3-4.7-0.4-6.9c-0.7-2.2-2-4.2-3.7-5.9
				c-4.6-4.4-12.6-6.3-23.2-2.9c-3.7,1.2-6.9,3.1-9.6,5.5c-2.8,2.5-5.1,5.6-6.6,9c-0.2,0.5-0.4,1-0.6,1.5c-0.2,0.5-0.4,1-0.5,1.5
				c-0.7,2.1-0.9,4-0.4,5.7c0.5,1.7,1.7,3.2,3.6,4.5c0.4,0.3,0.9,0.6,1.3,0.9c0.5,0.3,0.9,0.6,1.4,0.8c3.2,1.8,6.9,3,10.6,3.4
				C156,70.8,159.8,70.4,163.4,69.2L163.4,69.2z M182.6,53.7c-1.3,6.9-7.2,13.9-18.5,17.6c-4,1.3-8,1.7-11.9,1.3
				c-4.1-0.4-8-1.7-11.5-3.7c-0.5-0.3-1-0.6-1.5-0.9c-0.5-0.3-0.9-0.6-1.4-0.9c-2.4-1.6-3.8-3.5-4.5-5.7c-0.7-2.1-0.5-4.5,0.4-7
				c0.2-0.5,0.4-1,0.6-1.6c0.2-0.5,0.4-1.1,0.7-1.6c1.7-3.7,4.1-7,7.2-9.7c2.9-2.6,6.4-4.7,10.4-5.9c11.4-3.7,20.2-1.4,25.3,3.4
				c2,1.9,3.5,4.2,4.3,6.8C183,48.2,183.2,51,182.6,53.7L182.6,53.7z"/>
			<path fill="#FFFFFF" d="M132.8,102.3c18.7,25.9,47.4,5.2,28.7-20.7c-4.8-6.7-12-10.6-19.5-11.5c-1.1-0.1-2.2-0.2-3.3-0.2
				c-4.9-0.1-8.2,2-9.8,7c-0.3,1.1-0.6,2.1-0.9,3.2C126.6,87.6,128,95.6,132.8,102.3L132.8,102.3z"/>
			<path fill="#FFFFFF" d="M92.9,82.7c-18.9,25.8,9.6,46.7,28.5,21c4.9-6.6,6.4-14.6,4.9-22.1c-0.2-1.1-0.5-2.2-0.8-3.2
				c-1.4-4.7-4.4-7.2-9.7-7.1c-1.1,0-2.2,0-3.3,0.2C104.9,72.2,97.7,76.1,92.9,82.7z"/>
			<path fill="#373435" d="M93.7,83.3c-6.5,8.9-7.2,17.2-4.5,22.9c1,2.2,2.5,4,4.4,5.4c1.9,1.4,4.1,2.3,6.4,2.6
				c6.3,0.8,14-2.3,20.5-11.2c2.3-3.1,3.8-6.6,4.6-10.1c0.8-3.7,0.9-7.5,0.1-11.2c-0.1-0.5-0.2-1.1-0.4-1.6c-0.1-0.5-0.3-1-0.4-1.6
				c-0.6-2.1-1.6-3.8-3-4.8c-1.4-1.1-3.2-1.6-5.6-1.5c-0.5,0-1.1,0-1.6,0c-0.5,0-1,0.1-1.6,0.1c-3.7,0.4-7.3,1.6-10.6,3.5
				C98.9,77.7,96,80.2,93.7,83.3L93.7,83.3z M87.2,107.1c-3-6.4-2.3-15.5,4.8-25.1c2.5-3.4,5.5-6,8.9-8c3.5-2,7.4-3.3,11.4-3.7h0
				c0.6-0.1,1.1-0.1,1.7-0.1c0.5,0,1.1,0,1.7,0c2.9,0,5.2,0.6,7,2c1.8,1.4,3,3.3,3.8,5.9c0.2,0.6,0.3,1.1,0.5,1.6
				c0.2,0.6,0.3,1.1,0.4,1.7c0.8,3.9,0.7,8.1-0.2,12c-0.9,3.8-2.5,7.6-5,10.9c-7.1,9.6-15.5,13-22.5,12c-2.8-0.4-5.3-1.4-7.5-3
				C90.2,111.8,88.4,109.7,87.2,107.1L87.2,107.1z"/>
			<path fill="#FFFFFF" d="M99.2,38.6C68.9,28.5,57.7,62.1,88.1,72.2c7.8,2.6,15.9,1.6,22.6-2.1c1-0.5,1.9-1.1,2.8-1.8
				c4-2.8,5.5-6.5,3.8-11.4c-0.4-1-0.7-2.1-1.2-3.1C112.9,46.9,107,41.2,99.2,38.6L99.2,38.6z"/>
			<path fill="#373435" d="M98.9,39.6c-10.5-3.5-18.5-1.6-23.2,2.7c-1.8,1.6-3.1,3.6-3.8,5.8c-0.7,2.2-0.9,4.6-0.5,6.9
				c1.1,6.2,6.4,12.6,16.9,16.1c3.7,1.2,7.4,1.6,11,1.3c3.8-0.3,7.4-1.5,10.7-3.3c0.5-0.3,0.9-0.5,1.4-0.8c0.4-0.3,0.9-0.6,1.3-0.9
				c1.8-1.3,3.1-2.7,3.7-4.4c0.6-1.7,0.5-3.6-0.3-5.8c-0.2-0.6-0.4-1.1-0.5-1.5c-0.2-0.5-0.4-1-0.6-1.5c-1.5-3.4-3.8-6.5-6.6-9
				C105.8,42.8,102.6,40.9,98.9,39.6L98.9,39.6z M74.2,40.8c5.2-4.8,14-7,25.3-3.2c4,1.3,7.5,3.4,10.4,6c3,2.7,5.4,6.1,7.1,9.7
				c0.2,0.5,0.4,1.1,0.7,1.6c0.2,0.6,0.4,1.1,0.6,1.6c0.9,2.7,1,5.1,0.2,7.2c-0.7,2.1-2.3,3.9-4.5,5.4c-0.4,0.3-0.9,0.6-1.4,0.9
				c-0.5,0.3-1,0.6-1.5,0.9c-3.5,2-7.4,3.2-11.5,3.6c-3.9,0.4-8-0.1-11.9-1.4c-11.3-3.8-17.1-10.8-18.4-17.7c-0.5-2.7-0.3-5.5,0.5-8
				C70.7,45,72.2,42.7,74.2,40.8z"/>
			<path fill="#373435" d="M133.7,101.6c6.5,9,14.1,12.1,20.4,11.4c2.4-0.3,4.6-1.2,6.5-2.5c1.9-1.3,3.4-3.2,4.4-5.4
				c2.7-5.7,2.1-14-4.3-22.9c-2.3-3.1-5.1-5.6-8.2-7.5c-3.3-1.9-6.9-3.1-10.6-3.6c-0.5-0.1-1.1-0.1-1.6-0.1c-0.6,0-1.1-0.1-1.6-0.1
				c-2.2,0-4.1,0.4-5.5,1.4c-1.4,1-2.5,2.6-3.2,4.9c-0.2,0.5-0.3,1-0.5,1.6c-0.1,0.5-0.3,1-0.4,1.5c-0.8,3.7-0.8,7.5,0,11.2
				C130,95,131.4,98.5,133.7,101.6L133.7,101.6z M154.4,115.1c-7,0.9-15.4-2.5-22.4-12.2c-2.4-3.4-4.1-7.1-4.9-11
				c-0.9-4-0.8-8.1,0-12c0.1-0.6,0.3-1.1,0.4-1.7c0.1-0.5,0.3-1.1,0.5-1.6c0.8-2.8,2.2-4.7,4-6c1.8-1.3,4.1-1.8,6.8-1.8
				c0.6,0,1.2,0,1.7,0.1c0.6,0,1.2,0.1,1.7,0.1c4,0.5,7.9,1.8,11.4,3.8c3.4,2,6.4,4.7,8.9,8.1c7,9.7,7.6,18.8,4.5,25.1
				c-1.2,2.5-3,4.6-5.1,6.2C159.7,113.8,157.1,114.8,154.4,115.1z"/>
		</g>
		<path fill="#CCCCCC" d="M216.2,9.7c0.2,0,0.4,0,0.5,0c0.1,0,0.2,0.1,0.4,0.1c0.1,0.1,0.2,0.2,0.3,0.4c0.1,0.2,0.1,0.4,0.1,0.7
			c0,0.3,0,0.5-0.1,0.7c-0.1,0.2-0.2,0.3-0.3,0.4c-0.1,0.1-0.3,0.1-0.4,0.1c-0.1,0-0.3,0-0.5,0h-4.3v1.4h2.8c0.2,0,0.4,0,0.5,0
			c0.1,0,0.2,0.1,0.4,0.1c0.2,0.1,0.4,0.5,0.4,1.1c0,0.7-0.2,1-0.5,1.2c-0.1,0-0.4,0.1-0.7,0.1h-2.7v2.6c0,0.2,0,0.4,0,0.5
			c0,0.1-0.1,0.2-0.1,0.4c-0.1,0.3-0.5,0.4-1.1,0.4c-0.7,0-1-0.2-1.1-0.5c-0.1-0.1-0.1-0.4-0.1-0.7v-7.8c0-0.5,0.1-0.8,0.3-1
			c0.2-0.2,0.5-0.3,1-0.3L216.2,9.7L216.2,9.7z M218,13.8c0-0.2,0-0.4,0-0.5c0-0.1,0.1-0.2,0.1-0.4c0.1-0.2,0.5-0.4,1.1-0.4
			c0.4,0,0.8,0.1,1,0.2c0.2,0.1,0.2,0.3,0.3,0.6c0,0.1,0,0.2,0,0.4v4.9c0,0.2,0,0.4,0,0.5c0,0.1-0.1,0.2-0.1,0.4
			c-0.1,0.2-0.5,0.4-1.1,0.4c-0.6,0-0.9-0.1-1.1-0.4c-0.1-0.1-0.1-0.3-0.1-0.4c0-0.1,0-0.3,0-0.5L218,13.8L218,13.8z M220.3,11.2
			c-0.1,0.1-0.2,0.2-0.4,0.3c-0.2,0.1-0.4,0.1-0.7,0.1c-0.3,0-0.5,0-0.7-0.1c-0.2-0.1-0.3-0.2-0.4-0.3s-0.1-0.3-0.1-0.4
			c0-0.1,0-0.3,0-0.5c0-0.2,0-0.4,0-0.5c0-0.1,0.1-0.2,0.1-0.4c0.1-0.3,0.5-0.4,1.1-0.4c0.6,0,0.9,0.1,1.1,0.4
			c0.1,0.1,0.1,0.3,0.1,0.4c0,0.1,0,0.3,0,0.5c0,0.2,0,0.4,0,0.5C220.4,10.9,220.4,11.1,220.3,11.2L220.3,11.2z M224.1,17.5
			c0.3,0,0.5,0.1,0.7,0.2c0.1,0.2,0.2,0.5,0.2,1c0,0.5-0.1,0.8-0.2,1c-0.2,0.2-0.4,0.2-0.7,0.2c-0.9,0-1.6-0.2-2-0.7
			c-0.4-0.5-0.6-1.2-0.6-2.3v-6.7c0-0.2,0-0.4,0-0.5c0-0.1,0.1-0.2,0.1-0.4c0.1-0.2,0.5-0.4,1.1-0.4c0.6,0,0.9,0.1,1.1,0.4
			c0.1,0.1,0.1,0.2,0.1,0.4c0,0.1,0,0.3,0,0.5V17C224,17.3,224.1,17.5,224.1,17.5L224.1,17.5z M227.8,17c0,0.2,0,0.3,0.1,0.3
			c0.1,0.1,0.3,0.1,0.6,0.1s0.6,0.1,0.8,0.2c0.2,0.2,0.3,0.5,0.3,1c0,0.5-0.1,0.8-0.3,1s-0.5,0.2-0.9,0.2c-2,0-3-1-3-2.9l0-6.7
			c0-0.2,0-0.4,0-0.5c0-0.1,0.1-0.2,0.1-0.4c0.1-0.2,0.5-0.4,1.1-0.4c0.6,0,0.9,0.1,1.1,0.4c0.1,0.2,0.2,0.5,0.2,0.8
			C227.8,10.3,227.8,17,227.8,17z M240.3,17.3l0.3-0.2c0.3-0.2,0.5-0.3,0.7-0.3c0.3,0,0.6,0.3,0.9,0.8c0.2,0.3,0.3,0.6,0.3,0.8
			c0,0.2-0.1,0.4-0.2,0.5c-0.1,0.1-0.3,0.2-0.4,0.3c-0.2,0.1-0.3,0.2-0.5,0.3s-0.5,0.2-0.9,0.4c-0.5,0.1-0.9,0.2-1.4,0.2
			c-0.4,0-0.9-0.1-1.3-0.2c-0.5-0.1-0.9-0.3-1.4-0.6c-0.5-0.3-0.9-0.6-1.3-1c-0.4-0.4-0.7-0.9-0.9-1.5c-0.2-0.6-0.4-1.3-0.4-2
			c0-0.7,0.1-1.4,0.4-2s0.6-1.1,0.9-1.5s0.8-0.7,1.3-1c0.9-0.5,1.8-0.8,2.8-0.8c0.4,0,0.9,0.1,1.3,0.2c0.5,0.1,0.8,0.3,1,0.4
			l0.3,0.2c0.2,0.1,0.3,0.2,0.4,0.3c0.2,0.2,0.4,0.4,0.4,0.7c0,0.2-0.1,0.5-0.3,0.8c-0.4,0.5-0.7,0.8-1,0.8c-0.2,0-0.4-0.1-0.7-0.3
			c-0.4-0.3-0.9-0.5-1.6-0.5c-0.6,0-1.2,0.2-1.8,0.6c-0.3,0.2-0.5,0.5-0.7,0.9c-0.2,0.4-0.3,0.8-0.3,1.3c0,0.5,0.1,0.9,0.3,1.3
			c0.2,0.4,0.4,0.7,0.7,0.9c0.6,0.4,1.2,0.6,1.8,0.6c0.3,0,0.6,0,0.8-0.1C240,17.4,240.2,17.3,240.3,17.3L240.3,17.3z M243.2,16.3
			c0-1.1,0.4-2,1.2-2.8c0.8-0.7,1.7-1.1,2.7-1.1c1,0,1.9,0.4,2.7,1.1c0.8,0.7,1.2,1.6,1.2,2.8c0,0.8-0.2,1.5-0.6,2.1s-0.9,1-1.5,1.3
			s-1.2,0.4-1.8,0.4c-0.6,0-1.2-0.2-1.8-0.5c-0.6-0.3-1.1-0.8-1.5-1.3C243.4,17.7,243.2,17,243.2,16.3L243.2,16.3z M246.1,17.3
			c0.3,0.2,0.6,0.3,0.9,0.3s0.6-0.1,0.9-0.3c0.3-0.2,0.5-0.6,0.5-1c0-0.5-0.1-0.8-0.4-1c-0.3-0.2-0.6-0.3-0.9-0.3s-0.6,0.1-0.9,0.3
			c-0.3,0.2-0.4,0.6-0.4,1C245.7,16.7,245.8,17,246.1,17.3L246.1,17.3z M251.8,10.3c0-0.2,0-0.4,0-0.5c0-0.1,0.1-0.2,0.1-0.4
			c0.1-0.3,0.5-0.4,1.1-0.4c0.6,0,0.9,0.1,1.1,0.4c0.1,0.1,0.1,0.3,0.1,0.4c0,0.1,0,0.3,0,0.5v6.5c0,0.3,0,0.5,0.1,0.6
			c0.1,0.1,0.2,0.1,0.4,0.1c0.2,0,0.3,0,0.4,0c0.1,0,0.1,0.1,0.2,0.1c0.2,0.1,0.3,0.5,0.3,1c0,0.6-0.1,0.9-0.3,1.1
			c-0.2,0.2-0.8,0.2-1.7,0.1c-0.7-0.1-1.2-0.3-1.4-0.7c-0.3-0.5-0.4-1.2-0.4-2.2L251.8,10.3L251.8,10.3z M256.2,16.3
			c0-1.1,0.4-2,1.2-2.8c0.8-0.7,1.7-1.1,2.7-1.1s1.9,0.4,2.7,1.1c0.8,0.7,1.2,1.6,1.2,2.8c0,0.8-0.2,1.5-0.6,2.1
			c-0.4,0.6-0.9,1-1.5,1.3c-0.6,0.3-1.2,0.4-1.8,0.4c-0.6,0-1.2-0.2-1.8-0.5c-0.6-0.3-1.1-0.8-1.5-1.3
			C256.4,17.7,256.2,17,256.2,16.3L256.2,16.3z M259.1,17.3c0.3,0.2,0.6,0.3,0.9,0.3c0.3,0,0.6-0.1,0.9-0.3c0.3-0.2,0.5-0.6,0.5-1
			c0-0.5-0.1-0.8-0.4-1c-0.3-0.2-0.6-0.3-0.9-0.3s-0.6,0.1-0.9,0.3c-0.3,0.2-0.4,0.6-0.4,1C258.6,16.7,258.8,17,259.1,17.3
			L259.1,17.3z M269.8,12.6c0.2,0.1,0.3,0.2,0.4,0.3c0.1,0.1,0.2,0.4,0.2,0.7s-0.1,0.6-0.3,1c-0.2,0.4-0.4,0.5-0.8,0.5
			c-0.2,0-0.3,0-0.5-0.1s-0.4-0.1-0.6-0.1c-0.3,0-0.5,0.1-0.7,0.3c-0.2,0.2-0.3,0.4-0.3,0.6v2.9c0,0.2,0,0.4,0,0.5s-0.1,0.2-0.1,0.4
			c-0.1,0.2-0.5,0.4-1.1,0.4c-0.4,0-0.8-0.1-1-0.2c-0.1-0.1-0.2-0.3-0.3-0.6c0-0.1,0-0.2,0-0.4v-4.9c0-0.2,0-0.4,0-0.5
			c0-0.1,0.1-0.2,0.1-0.4c0.1-0.3,0.5-0.4,1.1-0.4c0.6,0,0.9,0.1,1,0.3c0.1,0.1,0.2,0.3,0.2,0.5c0-0.1,0.1-0.1,0.2-0.2
			s0.3-0.2,0.6-0.4c0.3-0.2,0.5-0.2,0.8-0.2c0.2,0,0.4,0,0.6,0C269.4,12.5,269.6,12.6,269.8,12.6L269.8,12.6z M270.9,19.3
			c-0.2-0.1-0.3-0.3-0.3-0.5c0-0.2,0.2-0.6,0.5-1.1c0.1-0.2,0.3-0.2,0.5-0.2c0.2,0,0.5,0.1,0.9,0.3c0.4,0.2,0.7,0.3,1.1,0.3
			c0.6,0,0.9-0.1,0.9-0.3c0-0.2-0.3-0.3-0.9-0.4c-0.6-0.1-1.2-0.3-1.7-0.7c-0.3-0.2-0.5-0.4-0.7-0.8c-0.2-0.4-0.3-0.8-0.3-1.3
			c0-1.5,1-2.2,3-2.2c0.7,0,1.3,0.2,2,0.5c0.3,0.1,0.5,0.3,0.5,0.6s-0.1,0.5-0.3,0.8c-0.2,0.3-0.4,0.5-0.6,0.5
			c-0.1,0-0.3-0.1-0.6-0.2c-0.3-0.1-0.6-0.2-1-0.2c-0.6,0-0.8,0.1-0.8,0.3c0,0.3,0.3,0.5,1,0.5c0.6,0.1,1.2,0.2,1.8,0.5
			c0.3,0.1,0.5,0.4,0.7,0.7c0.2,0.3,0.3,0.7,0.3,1.2s-0.1,0.9-0.3,1.2s-0.4,0.6-0.8,0.8c-0.6,0.3-1.3,0.4-2.2,0.4
			C272.6,20.1,271.8,19.8,270.9,19.3L270.9,19.3z"/>
	</g>
</g>
</svg>
