<?xml version="1.0" encoding="utf-8"?>
<!-- Generator: Adobe Illustrator 22.0.1, SVG Export Plug-In . SVG Version: 6.00 Build 0)  -->
<svg version="1.1" id="Layer_1" xmlns="http://www.w3.org/2000/svg" xmlns:xlink="http://www.w3.org/1999/xlink" x="0px" y="0px"
	 viewBox="0 0 288 122.4" enable-background="new 0 0 288 122.4" xml:space="preserve">
<g id="Layer_x0020_1">
	<g id="_206128022000">
		<path fill="#FFFFFF" d="M0,122.4h288V0H0V122.4z M171.8,115c-7,0.9-15.4-2.5-22.4-12.2c-2.2-3.1-3.7-6.4-4.6-9.8l-0.1,0.3
			c-0.9,3.8-2.5,7.5-5,10.9c-7.1,9.6-15.5,12.9-22.5,12c-2.8-0.4-5.3-1.4-7.4-3c-2.1-1.6-3.9-3.7-5.1-6.2c-3-6.4-2.3-15.4,4.7-25
			c2.2-3,4.9-5.5,8-7.4c-0.1,0-0.2,0-0.3,0c-3.9,0.4-7.9-0.1-11.9-1.4C94,69.4,88.3,62.5,87,55.5c-0.5-2.7-0.3-5.5,0.5-8
			c0.8-2.5,2.3-4.8,4.3-6.7c5.2-4.8,14-6.9,25.3-3.2c3.4,1.1,6.4,2.8,9.1,5c-1.5-3.5-2.4-7.4-2.4-11.5c0-11.9,4.8-19.6,11-23
			c2.4-1.3,5.1-2,7.7-2c2.6,0,5.3,0.7,7.7,2c6.2,3.4,11,11.1,11,23c0,3.8-0.7,7.4-2,10.7l0.2-0.2c2.9-2.6,6.4-4.6,10.4-5.9
			c11.3-3.7,20.1-1.4,25.2,3.4c2,1.9,3.5,4.2,4.3,6.8c0.8,2.5,1,5.2,0.5,8c-1.3,6.9-7.1,13.9-18.5,17.5c-3.6,1.2-7.2,1.6-10.8,1.4
			l0.3,0.2c3.4,2,6.4,4.7,8.8,8.1c7,9.7,7.5,18.7,4.5,25.1c-1.2,2.5-3,4.6-5.1,6.2C177.1,113.6,174.5,114.6,171.8,115L171.8,115z"/>
		<g>
			<path fill="#373435" d="M159.2,31.1c0-11-4.3-18-9.9-21.1c-2.1-1.2-4.4-1.7-6.7-1.7c-2.3,0-4.6,0.6-6.7,1.7
				c-5.5,3-9.9,10.1-9.9,21.1c0,3.9,0.8,7.5,2.3,10.8c1.5,3.4,3.7,6.5,6.5,9c0.4,0.4,0.8,0.7,1.2,1c0.4,0.3,0.8,0.7,1.3,1l0,0
				c1.8,1.3,3.5,2.1,5.3,2.1c1.7,0,3.5-0.6,5.4-2.1c0.4-0.3,0.9-0.7,1.3-1c0.4-0.3,0.8-0.7,1.2-1c2.7-2.5,5-5.6,6.5-9
				C158.4,38.6,159.2,34.9,159.2,31.1L159.2,31.1z M150.4,8.1c6.2,3.4,11,11.1,11,23c0,4.2-0.9,8.1-2.5,11.7c-1.6,3.7-4,7-7,9.8
				c-0.4,0.4-0.9,0.8-1.3,1.1c-0.4,0.4-0.9,0.7-1.3,1h0c-2.3,1.7-4.5,2.5-6.8,2.5c-2.2,0-4.4-0.9-6.5-2.5v0c-0.5-0.3-0.9-0.7-1.3-1
				c-0.5-0.4-0.9-0.7-1.3-1.1c-3-2.7-5.4-6-7-9.8c-1.6-3.6-2.5-7.5-2.5-11.7c0-11.9,4.8-19.6,11-23c2.4-1.3,5.1-2,7.7-2
				C145.3,6.1,147.9,6.8,150.4,8.1L150.4,8.1z"/>
			<path fill="#373435" d="M180.8,69.2c10.5-3.4,15.8-9.7,17-15.9c0.5-2.4,0.3-4.7-0.4-6.9c-0.7-2.2-2-4.2-3.7-5.8
				c-4.6-4.3-12.6-6.3-23.1-2.9c-3.7,1.2-6.9,3.1-9.6,5.5c-2.8,2.5-5.1,5.6-6.6,8.9c-0.2,0.5-0.4,1-0.6,1.5c-0.2,0.5-0.4,1-0.5,1.5
				c-0.7,2.1-0.9,4-0.4,5.7c0.5,1.7,1.7,3.2,3.6,4.5c0.4,0.3,0.9,0.6,1.3,0.9c0.5,0.3,0.9,0.6,1.4,0.8c3.2,1.8,6.8,3,10.6,3.4
				C173.4,70.7,177.1,70.4,180.8,69.2z M200,53.7c-1.3,6.9-7.1,13.9-18.5,17.5c-4,1.3-8,1.7-11.9,1.3c-4-0.4-7.9-1.7-11.4-3.7
				c-0.5-0.3-1-0.6-1.5-0.9c-0.5-0.3-0.9-0.6-1.4-0.9c-2.4-1.6-3.8-3.5-4.5-5.7c-0.7-2.1-0.5-4.5,0.4-7c0.2-0.5,0.4-1,0.6-1.6
				c0.2-0.5,0.4-1.1,0.7-1.6c1.7-3.6,4.1-6.9,7.1-9.6c2.9-2.6,6.4-4.6,10.4-5.9c11.3-3.7,20.1-1.4,25.2,3.4c2,1.9,3.5,4.2,4.3,6.8
				C200.3,48.3,200.5,51,200,53.7L200,53.7z"/>
			<path fill="#373435" d="M111.3,83.2c-6.5,8.9-7.2,17.1-4.5,22.8c1,2.2,2.5,4,4.4,5.4c1.8,1.4,4,2.2,6.4,2.6
				c6.3,0.8,13.9-2.3,20.4-11.1c2.3-3.1,3.8-6.5,4.6-10.1c0.8-3.7,0.9-7.5,0.1-11.1c-0.1-0.5-0.2-1.1-0.4-1.5
				c-0.1-0.5-0.3-1-0.4-1.5c-0.6-2.1-1.6-3.7-3-4.8c-1.4-1.1-3.2-1.6-5.6-1.5c-0.5,0-1.1,0-1.6,0c-0.5,0-1,0.1-1.6,0.1
				c-3.7,0.4-7.3,1.6-10.6,3.5C116.5,77.7,113.6,80.1,111.3,83.2L111.3,83.2z M104.9,107c-3-6.4-2.3-15.4,4.7-25
				c2.5-3.4,5.5-6,8.9-8c3.5-2,7.4-3.3,11.4-3.7h0c0.6-0.1,1.1-0.1,1.7-0.1c0.5,0,1.1,0,1.7,0c2.9,0,5.2,0.6,6.9,2
				c1.8,1.3,3,3.3,3.8,5.9c0.2,0.5,0.3,1.1,0.5,1.6c0.2,0.6,0.3,1.1,0.4,1.7c0.8,3.9,0.7,8-0.2,12c-0.9,3.8-2.5,7.5-5,10.9
				c-7.1,9.6-15.5,12.9-22.5,12c-2.8-0.4-5.3-1.4-7.4-3C107.8,111.6,106,109.5,104.9,107L104.9,107z"/>
			<path fill="#373435" d="M116.5,39.7C106,36.2,98,38.1,93.4,42.4c-1.8,1.6-3,3.6-3.8,5.8c-0.7,2.2-0.9,4.5-0.5,6.9
				c1.1,6.2,6.4,12.5,16.9,16c3.7,1.2,7.4,1.6,11,1.3c3.7-0.3,7.4-1.5,10.6-3.3c0.5-0.3,0.9-0.5,1.4-0.8c0.4-0.3,0.9-0.6,1.3-0.9
				c1.8-1.3,3.1-2.7,3.6-4.4c0.6-1.6,0.5-3.6-0.3-5.8c-0.2-0.6-0.4-1.1-0.5-1.5c-0.2-0.5-0.4-1-0.6-1.5c-1.5-3.4-3.7-6.5-6.5-9
				C123.4,42.9,120.1,40.9,116.5,39.7L116.5,39.7z M91.9,40.8c5.2-4.8,14-6.9,25.3-3.2c4,1.3,7.4,3.4,10.3,6c3,2.7,5.4,6.1,7.1,9.7
				c0.2,0.5,0.4,1.1,0.6,1.6c0.2,0.6,0.4,1.1,0.6,1.6c0.9,2.7,1,5.1,0.2,7.2c-0.7,2.1-2.2,3.9-4.4,5.4c-0.4,0.3-0.9,0.6-1.4,0.9
				c-0.5,0.3-1,0.6-1.5,0.9c-3.5,1.9-7.4,3.2-11.5,3.5c-3.9,0.4-7.9-0.1-11.9-1.4C94,69.4,88.3,62.5,87,55.5c-0.5-2.7-0.3-5.5,0.5-8
				C88.4,45,89.9,42.7,91.9,40.8L91.9,40.8z"/>
			<path fill="#373435" d="M151.2,101.5c6.4,8.9,14.1,12.1,20.3,11.3c2.4-0.3,4.6-1.2,6.5-2.5c1.9-1.3,3.4-3.2,4.4-5.3
				c2.7-5.7,2.1-13.9-4.3-22.9c-2.3-3.1-5.1-5.6-8.2-7.5c-3.2-1.9-6.8-3.1-10.5-3.5c-0.5-0.1-1.1-0.1-1.6-0.1c-0.6,0-1.1,0-1.6-0.1
				c-2.2,0-4.1,0.4-5.5,1.4c-1.4,1-2.5,2.6-3.2,4.8c-0.2,0.5-0.3,1-0.5,1.6c-0.1,0.5-0.3,1-0.4,1.5c-0.7,3.6-0.8,7.4,0,11.1
				C147.4,94.9,148.9,98.4,151.2,101.5L151.2,101.5z M171.8,115c-7,0.9-15.4-2.5-22.4-12.2c-2.4-3.4-4-7.1-4.9-10.9
				c-0.8-4-0.8-8.1,0-12c0.1-0.6,0.3-1.1,0.4-1.7c0.1-0.5,0.3-1.1,0.5-1.6c0.8-2.7,2.2-4.7,4-6c1.8-1.3,4.1-1.8,6.8-1.8
				c0.6,0,1.2,0,1.7,0.1c0.6,0,1.2,0.1,1.7,0.1c4,0.5,7.9,1.8,11.4,3.8c3.4,2,6.4,4.7,8.8,8.1c7,9.7,7.5,18.7,4.5,25.1
				c-1.2,2.5-3,4.6-5.1,6.2C177.1,113.6,174.5,114.6,171.8,115L171.8,115z"/>
		</g>
		<path fill="#CCCCCC" d="M217.4,15.6c0.2,0,0.4,0,0.5,0c0.1,0,0.2,0.1,0.4,0.1c0.1,0.1,0.2,0.2,0.3,0.4c0.1,0.2,0.1,0.4,0.1,0.7
			c0,0.3,0,0.5-0.1,0.7c-0.1,0.2-0.2,0.3-0.3,0.4c-0.1,0.1-0.3,0.1-0.4,0.1c-0.1,0-0.3,0-0.5,0H213v1.4h2.8c0.2,0,0.4,0,0.5,0
			c0.1,0,0.2,0.1,0.4,0.1c0.2,0.1,0.4,0.5,0.4,1.1c0,0.7-0.2,1-0.5,1.2c-0.1,0-0.4,0.1-0.7,0.1H213v2.6c0,0.2,0,0.4,0,0.5
			c0,0.1-0.1,0.2-0.1,0.4c-0.1,0.3-0.5,0.4-1.1,0.4c-0.7,0-1-0.2-1.1-0.5c-0.1-0.1-0.1-0.4-0.1-0.7v-7.8c0-0.5,0.1-0.8,0.3-1
			c0.2-0.2,0.5-0.3,1-0.3L217.4,15.6L217.4,15.6z M219.2,19.8c0-0.2,0-0.4,0-0.5c0-0.1,0.1-0.2,0.1-0.4c0.1-0.2,0.5-0.4,1.1-0.4
			c0.4,0,0.8,0.1,1,0.2c0.2,0.1,0.2,0.3,0.3,0.6c0,0.1,0,0.2,0,0.4v4.9c0,0.2,0,0.4,0,0.5c0,0.1-0.1,0.2-0.1,0.4
			c-0.1,0.2-0.5,0.4-1.1,0.4c-0.6,0-0.9-0.1-1.1-0.4c-0.1-0.1-0.1-0.3-0.1-0.4c0-0.1,0-0.3,0-0.5L219.2,19.8L219.2,19.8z
			 M221.5,17.2c-0.1,0.1-0.2,0.2-0.4,0.3c-0.2,0.1-0.4,0.1-0.7,0.1s-0.5,0-0.7-0.1s-0.3-0.2-0.4-0.3c-0.1-0.1-0.1-0.3-0.1-0.4
			c0-0.1,0-0.3,0-0.5c0-0.2,0-0.4,0-0.5c0-0.1,0.1-0.2,0.1-0.4c0.1-0.3,0.5-0.4,1.1-0.4c0.6,0,0.9,0.1,1.1,0.4
			c0.1,0.1,0.1,0.3,0.1,0.4c0,0.1,0,0.3,0,0.5s0,0.4,0,0.5C221.6,16.9,221.6,17,221.5,17.2L221.5,17.2z M225.3,23.4
			c0.3,0,0.5,0.1,0.7,0.2c0.1,0.2,0.2,0.5,0.2,1c0,0.5-0.1,0.8-0.2,1c-0.2,0.2-0.4,0.2-0.7,0.2c-0.9,0-1.6-0.2-2-0.7
			s-0.6-1.2-0.6-2.3v-6.7c0-0.2,0-0.4,0-0.5c0-0.1,0.1-0.2,0.1-0.4c0.1-0.2,0.5-0.4,1.1-0.4c0.6,0,0.9,0.1,1.1,0.4
			c0.1,0.1,0.1,0.2,0.1,0.4c0,0.1,0,0.3,0,0.5V23C225.2,23.3,225.3,23.4,225.3,23.4L225.3,23.4z M229,23c0,0.2,0,0.3,0.1,0.4
			c0.1,0.1,0.3,0.1,0.6,0.1c0.3,0,0.6,0.1,0.8,0.2c0.2,0.2,0.3,0.5,0.3,1c0,0.5-0.1,0.8-0.3,1c-0.2,0.2-0.5,0.2-0.9,0.2
			c-2,0-3-1-3-2.9l0-6.7c0-0.2,0-0.4,0-0.5c0-0.1,0.1-0.2,0.1-0.4c0.1-0.2,0.5-0.4,1.1-0.4c0.6,0,0.9,0.1,1.1,0.4
			c0.1,0.2,0.2,0.5,0.2,0.8L229,23L229,23z M241.5,23.2l0.3-0.2c0.3-0.2,0.5-0.3,0.7-0.3c0.3,0,0.6,0.3,0.9,0.8
			c0.2,0.3,0.3,0.6,0.3,0.8c0,0.2-0.1,0.4-0.2,0.5s-0.3,0.2-0.4,0.4c-0.2,0.1-0.3,0.2-0.5,0.3c-0.2,0.1-0.5,0.2-0.9,0.4
			c-0.5,0.1-0.9,0.2-1.4,0.2s-0.9-0.1-1.3-0.2c-0.5-0.1-0.9-0.3-1.4-0.6c-0.5-0.3-0.9-0.6-1.3-1c-0.4-0.4-0.7-0.9-0.9-1.5
			s-0.4-1.3-0.4-2c0-0.7,0.1-1.4,0.4-2c0.2-0.6,0.6-1.1,0.9-1.5c0.4-0.4,0.8-0.7,1.3-1c0.9-0.5,1.8-0.8,2.8-0.8
			c0.4,0,0.9,0.1,1.3,0.2c0.5,0.1,0.8,0.3,1,0.4l0.3,0.2c0.2,0.1,0.3,0.2,0.4,0.3c0.2,0.2,0.4,0.4,0.4,0.7c0,0.2-0.1,0.5-0.3,0.8
			c-0.4,0.5-0.7,0.8-1,0.8c-0.2,0-0.4-0.1-0.7-0.3c-0.4-0.3-0.9-0.5-1.6-0.5c-0.6,0-1.2,0.2-1.8,0.6c-0.3,0.2-0.5,0.5-0.7,0.9
			c-0.2,0.4-0.3,0.8-0.3,1.3c0,0.5,0.1,0.9,0.3,1.3c0.2,0.4,0.4,0.7,0.7,0.9c0.6,0.4,1.2,0.6,1.8,0.6c0.3,0,0.6,0,0.8-0.1
			C241.2,23.4,241.4,23.3,241.5,23.2L241.5,23.2z M244.4,22.2c0-1.1,0.4-2,1.2-2.8c0.8-0.7,1.7-1.1,2.7-1.1c1,0,1.9,0.4,2.7,1.1
			c0.8,0.7,1.2,1.6,1.2,2.8c0,0.8-0.2,1.5-0.6,2.1c-0.4,0.6-0.9,1-1.5,1.3c-0.6,0.3-1.2,0.4-1.8,0.4s-1.2-0.2-1.8-0.5
			c-0.6-0.3-1.1-0.8-1.5-1.3C244.6,23.6,244.4,23,244.4,22.2L244.4,22.2z M247.3,23.2c0.3,0.2,0.6,0.3,0.9,0.3s0.6-0.1,0.9-0.4
			s0.5-0.6,0.5-1c0-0.5-0.1-0.8-0.4-1c-0.3-0.2-0.6-0.3-0.9-0.3c-0.3,0-0.6,0.1-0.9,0.4c-0.3,0.2-0.4,0.6-0.4,1
			C246.8,22.7,247,23,247.3,23.2L247.3,23.2z M253,16.3c0-0.2,0-0.4,0-0.5c0-0.1,0.1-0.2,0.1-0.4c0.1-0.3,0.5-0.4,1.1-0.4
			c0.6,0,0.9,0.1,1.1,0.4c0.1,0.1,0.1,0.3,0.1,0.4c0,0.1,0,0.3,0,0.5v6.5c0,0.3,0,0.5,0.1,0.6s0.2,0.1,0.4,0.1c0.2,0,0.3,0,0.4,0
			c0.1,0,0.1,0.1,0.2,0.1c0.2,0.1,0.3,0.5,0.3,1c0,0.6-0.1,0.9-0.3,1.1c-0.2,0.2-0.8,0.2-1.7,0.1c-0.7-0.1-1.2-0.3-1.4-0.7
			c-0.3-0.5-0.4-1.2-0.4-2.2V16.3L253,16.3z M257.3,22.2c0-1.1,0.4-2,1.2-2.8c0.8-0.7,1.7-1.1,2.7-1.1c1,0,1.9,0.4,2.7,1.1
			c0.8,0.7,1.2,1.6,1.2,2.8c0,0.8-0.2,1.5-0.6,2.1c-0.4,0.6-0.9,1-1.5,1.3c-0.6,0.3-1.2,0.4-1.8,0.4c-0.6,0-1.2-0.2-1.8-0.5
			c-0.6-0.3-1.1-0.8-1.5-1.3C257.5,23.6,257.3,23,257.3,22.2L257.3,22.2z M260.3,23.2c0.3,0.2,0.6,0.3,0.9,0.3s0.6-0.1,0.9-0.4
			c0.3-0.2,0.5-0.6,0.5-1c0-0.5-0.1-0.8-0.4-1c-0.3-0.2-0.6-0.3-0.9-0.3c-0.3,0-0.6,0.1-0.9,0.4c-0.3,0.2-0.4,0.6-0.4,1
			C259.8,22.7,260,23,260.3,23.2L260.3,23.2z M271,18.6c0.2,0.1,0.3,0.2,0.4,0.3c0.1,0.1,0.2,0.4,0.2,0.7c0,0.3-0.1,0.6-0.3,1
			c-0.2,0.4-0.4,0.5-0.8,0.5c-0.2,0-0.3,0-0.5-0.1c-0.2-0.1-0.4-0.1-0.6-0.1c-0.3,0-0.5,0.1-0.7,0.3c-0.2,0.2-0.3,0.4-0.3,0.6v2.9
			c0,0.2,0,0.4,0,0.5c0,0.1-0.1,0.2-0.1,0.4c-0.1,0.2-0.5,0.4-1.1,0.4c-0.4,0-0.8-0.1-1-0.2c-0.1-0.1-0.2-0.3-0.3-0.6
			c0-0.1,0-0.2,0-0.4v-4.9c0-0.2,0-0.4,0-0.5c0-0.1,0.1-0.2,0.1-0.4c0.1-0.3,0.5-0.4,1.1-0.4c0.6,0,0.9,0.1,1.1,0.3
			c0.1,0.1,0.2,0.3,0.2,0.5c0-0.1,0.1-0.1,0.2-0.2c0.1-0.1,0.3-0.2,0.6-0.4c0.3-0.2,0.5-0.2,0.8-0.2c0.2,0,0.4,0,0.6,0
			C270.6,18.5,270.8,18.6,271,18.6L271,18.6z M272.1,25.3c-0.2-0.1-0.3-0.3-0.3-0.5c0-0.2,0.2-0.6,0.5-1.1c0.1-0.2,0.3-0.2,0.5-0.2
			s0.5,0.1,0.9,0.3s0.7,0.3,1.1,0.3c0.6,0,0.9-0.1,0.9-0.3c0-0.2-0.3-0.3-0.9-0.4c-0.6-0.1-1.2-0.3-1.7-0.7
			c-0.3-0.2-0.5-0.4-0.7-0.8c-0.2-0.4-0.3-0.8-0.3-1.3c0-1.5,1-2.2,3-2.2c0.7,0,1.3,0.2,2,0.5c0.3,0.1,0.5,0.3,0.5,0.6
			s-0.1,0.5-0.3,0.8c-0.2,0.3-0.4,0.5-0.6,0.5c-0.1,0-0.3-0.1-0.6-0.2c-0.3-0.1-0.6-0.2-1-0.2c-0.6,0-0.8,0.1-0.8,0.3
			c0,0.3,0.3,0.5,1,0.5c0.6,0.1,1.2,0.2,1.8,0.5c0.3,0.1,0.5,0.4,0.7,0.7c0.2,0.3,0.3,0.7,0.3,1.2c0,0.5-0.1,0.9-0.3,1.2
			c-0.2,0.3-0.4,0.6-0.8,0.8c-0.6,0.3-1.3,0.4-2.2,0.4C273.8,26,273,25.8,272.1,25.3L272.1,25.3z"/>
		<g>
			<path fill="#FFFF00" d="M27.4,29.9c0.7,2,0.1,3.4-1.5,4.5c-0.4,0.3-0.7,0.5-1.1,0.7c-0.1,0.1-0.3,0.1-0.4,0.2
				c0.1,0.1,0.2,0.3,0.2,0.4c0.3-0.1,0.6-0.1,0.9-0.1c0.4,0,0.9-0.1,1.3-0.1c2.1,0,3.3,1,3.9,2.8c0.1,0.4,0.2,0.8,0.3,1.1
				c0.2,0,0.4,0,0.6,0c0-0.1,0-0.3,0.1-0.4c0.1-0.4,0.2-0.9,0.3-1.3c0.6-2,1.9-2.8,3.9-2.8c0.3,0,0.7,0,1,0c0.1-0.2,0.2-0.4,0.2-0.7
				c-0.1,0-0.2-0.1-0.2-0.1c-0.4-0.2-0.7-0.5-1.1-0.7c-1.7-1.2-2.1-2.7-1.5-4.6c0.1-0.4,0.3-0.8,0.5-1.2c0-0.1,0.1-0.2,0.1-0.2
				c-0.1-0.1-0.3-0.2-0.4-0.3c-0.2,0.2-0.4,0.4-0.6,0.6c-0.3,0.3-0.7,0.6-1,0.8c-1.7,1.3-3.2,1.2-4.8,0c-0.4-0.3-0.7-0.5-1-0.8
				c-0.2-0.2-0.3-0.3-0.5-0.5c-0.1,0.1-0.2,0.1-0.3,0.2c0.2,0.4,0.4,0.7,0.6,1.1C27.2,29,27.3,29.4,27.4,29.9L27.4,29.9z"/>
			<path fill="#33CC33" d="M37.6,19.6c0-12.7-14.1-12.7-14.1,0c0,3.3,1.4,6.2,3.6,8.2c0.3,0.3,0.7,0.6,1,0.8c1.6,1.2,3.1,1.3,4.8,0
				c0.3-0.3,0.7-0.5,1-0.8C36.2,25.8,37.6,22.8,37.6,19.6z"/>
			<path fill="#373435" d="M37.2,19.6c0-4.4-1.7-7.2-3.9-8.4c-0.8-0.5-1.8-0.7-2.7-0.7c-0.9,0-1.8,0.2-2.7,0.7
				c-2.2,1.2-3.9,4-3.9,8.4c0,1.5,0.3,3,0.9,4.3c0.6,1.4,1.5,2.6,2.6,3.6c0.2,0.1,0.3,0.3,0.5,0.4c0.2,0.1,0.3,0.3,0.5,0.4l0,0
				c0.7,0.5,1.4,0.8,2.1,0.8c0.7,0,1.4-0.3,2.2-0.8c0.2-0.1,0.3-0.3,0.5-0.4c0.2-0.1,0.3-0.3,0.5-0.4c1.1-1,2-2.2,2.6-3.6
				C36.9,22.6,37.2,21.1,37.2,19.6L37.2,19.6z M33.7,10.4c2.5,1.3,4.4,4.4,4.4,9.2c0,1.7-0.3,3.2-1,4.7c-0.7,1.5-1.6,2.8-2.8,3.9
				c-0.2,0.2-0.3,0.3-0.5,0.4c-0.2,0.1-0.4,0.3-0.5,0.4h0c-0.9,0.7-1.8,1-2.7,1c-0.9,0-1.8-0.4-2.6-1v0c-0.2-0.1-0.4-0.3-0.5-0.4
				c-0.2-0.1-0.4-0.3-0.5-0.4c-1.2-1.1-2.1-2.4-2.8-3.9c-0.6-1.4-1-3-1-4.7c0-4.8,1.9-7.8,4.4-9.2c1-0.5,2-0.8,3.1-0.8
				S32.7,9.9,33.7,10.4L33.7,10.4z"/>
			<path fill="#FF00FF" d="M45.9,35.2c12.1-3.9,7.8-17.3-4.3-13.4c-3.1,1-5.5,3.2-6.7,6c-0.2,0.4-0.3,0.8-0.5,1.2
				c-0.6,1.8-0.2,3.4,1.5,4.6c0.4,0.3,0.7,0.5,1.1,0.7C39.6,35.7,42.8,36.2,45.9,35.2L45.9,35.2z"/>
			<path fill="#373435" d="M45.8,34.8c4.2-1.3,6.3-3.9,6.8-6.3c0.2-0.9,0.1-1.9-0.2-2.8c-0.3-0.9-0.8-1.7-1.5-2.3
				c-1.8-1.7-5-2.5-9.2-1.2c-1.5,0.5-2.8,1.2-3.8,2.2c-1.1,1-2,2.2-2.6,3.6c-0.1,0.2-0.2,0.4-0.2,0.6c-0.1,0.2-0.1,0.4-0.2,0.6
				c-0.3,0.8-0.3,1.6-0.1,2.3c0.2,0.7,0.7,1.3,1.4,1.8c0.2,0.1,0.4,0.2,0.5,0.4c0.2,0.1,0.4,0.2,0.5,0.3c1.3,0.7,2.7,1.2,4.2,1.3
				C42.9,35.4,44.3,35.2,45.8,34.8L45.8,34.8z M53.4,28.6c-0.5,2.8-2.8,5.5-7.4,7c-1.6,0.5-3.2,0.7-4.7,0.5
				c-1.6-0.2-3.2-0.7-4.6-1.5c-0.2-0.1-0.4-0.2-0.6-0.4c-0.2-0.1-0.4-0.3-0.6-0.4c-0.9-0.7-1.5-1.4-1.8-2.3
				c-0.3-0.8-0.2-1.8,0.1-2.8c0.1-0.2,0.1-0.4,0.2-0.6c0.1-0.2,0.2-0.4,0.3-0.6c0.7-1.5,1.6-2.8,2.8-3.8c1.2-1,2.6-1.9,4.1-2.4
				c4.5-1.5,8-0.6,10.1,1.4c0.8,0.8,1.4,1.7,1.7,2.7C53.6,26.4,53.6,27.5,53.4,28.6L53.4,28.6z"/>
			<path fill="#FFCC00" d="M33.6,47.9c7.4,10.3,18.8,2.1,11.4-8.2c-1.9-2.6-4.8-4.2-7.8-4.6C36.9,35,36.4,35,36,35
				c-2,0-3.3,0.8-3.9,2.8c-0.1,0.4-0.3,0.8-0.3,1.3C31.2,42,31.7,45.2,33.6,47.9L33.6,47.9z"/>
			<path fill="#0048FF" d="M17.8,40.1c-7.5,10.2,3.8,18.6,11.3,8.3c1.9-2.6,2.5-5.8,2-8.8c-0.1-0.4-0.2-0.9-0.3-1.3
				c-0.6-1.9-1.8-2.9-3.9-2.8c-0.4,0-0.9,0-1.3,0.1C22.6,35.9,19.7,37.5,17.8,40.1L17.8,40.1z"/>
			<path fill="#373435" d="M18.1,40.3c-2.6,3.5-2.9,6.8-1.8,9.1c0.4,0.9,1,1.6,1.7,2.1c0.7,0.5,1.6,0.9,2.6,1
				c2.5,0.3,5.5-0.9,8.1-4.4c0.9-1.2,1.5-2.6,1.8-4c0.3-1.5,0.3-3,0.1-4.4c0-0.2-0.1-0.4-0.1-0.6c-0.1-0.2-0.1-0.4-0.2-0.6
				c-0.3-0.8-0.7-1.5-1.2-1.9c-0.6-0.4-1.3-0.6-2.2-0.6c-0.2,0-0.4,0-0.6,0c-0.2,0-0.4,0-0.6,0c-1.5,0.2-2.9,0.6-4.2,1.4
				C20.2,38.1,19,39.1,18.1,40.3z M15.5,49.8c-1.2-2.5-0.9-6.1,1.9-10c1-1.3,2.2-2.4,3.6-3.2c1.4-0.8,3-1.3,4.5-1.5h0
				c0.2,0,0.5,0,0.7-0.1c0.2,0,0.4,0,0.7,0c1.1,0,2.1,0.3,2.8,0.8c0.7,0.5,1.2,1.3,1.5,2.3c0.1,0.2,0.1,0.4,0.2,0.7
				c0.1,0.2,0.1,0.5,0.2,0.7c0.3,1.6,0.3,3.2-0.1,4.8c-0.3,1.5-1,3-2,4.3c-2.8,3.8-6.2,5.2-9,4.8c-1.1-0.1-2.1-0.6-3-1.2
				C16.7,51.7,16,50.8,15.5,49.8L15.5,49.8z"/>
			<path fill="#FF0000" d="M20.3,22.6c-12-4-16.5,9.3-4.4,13.4c3.1,1,6.3,0.6,9-0.8c0.4-0.2,0.8-0.5,1.1-0.7
				c1.6-1.1,2.2-2.6,1.5-4.5c-0.1-0.4-0.3-0.8-0.5-1.2C25.7,25.9,23.4,23.6,20.3,22.6z"/>
			<path fill="#373435" d="M20.2,23c-4.2-1.4-7.4-0.6-9.2,1.1c-0.7,0.7-1.2,1.4-1.5,2.3c-0.3,0.9-0.4,1.8-0.2,2.8
				c0.5,2.5,2.6,5,6.7,6.4c1.5,0.5,2.9,0.6,4.4,0.5c1.5-0.1,2.9-0.6,4.2-1.3c0.2-0.1,0.4-0.2,0.5-0.3c0.2-0.1,0.3-0.2,0.5-0.4
				c0.7-0.5,1.2-1.1,1.5-1.7c0.2-0.7,0.2-1.4-0.1-2.3c-0.1-0.2-0.1-0.4-0.2-0.6c-0.1-0.2-0.2-0.4-0.2-0.6c-0.6-1.4-1.5-2.6-2.6-3.6
				C22.9,24.3,21.6,23.5,20.2,23L20.2,23z M10.4,23.5c2.1-1.9,5.6-2.8,10.1-1.3c1.6,0.5,3,1.4,4.1,2.4c1.2,1.1,2.2,2.4,2.8,3.9
				c0.1,0.2,0.2,0.4,0.3,0.6c0.1,0.2,0.2,0.4,0.2,0.6c0.4,1.1,0.4,2,0.1,2.9c-0.3,0.8-0.9,1.6-1.8,2.2c-0.2,0.1-0.4,0.2-0.6,0.4
				c-0.2,0.1-0.4,0.2-0.6,0.4c-1.4,0.8-3,1.3-4.6,1.4c-1.6,0.1-3.2,0-4.7-0.5c-4.5-1.5-6.8-4.3-7.3-7c-0.2-1.1-0.1-2.2,0.2-3.2
				C9,25.1,9.6,24.2,10.4,23.5z"/>
			<path fill="#373435" d="M34,47.6c2.6,3.6,5.6,4.8,8.1,4.5c1-0.1,1.8-0.5,2.6-1c0.7-0.5,1.3-1.3,1.8-2.1c1.1-2.3,0.8-5.6-1.7-9.1
				c-0.9-1.2-2-2.2-3.3-3c-1.3-0.8-2.7-1.2-4.2-1.4c-0.2,0-0.4,0-0.6-0.1c-0.2,0-0.4,0-0.6,0c-0.9,0-1.6,0.2-2.2,0.6
				c-0.6,0.4-1,1-1.3,1.9c-0.1,0.2-0.1,0.4-0.2,0.6c-0.1,0.2-0.1,0.4-0.1,0.6c-0.3,1.5-0.3,3,0,4.4C32.5,45,33.1,46.4,34,47.6
				L34,47.6z M42.2,53c-2.8,0.3-6.1-1-8.9-4.9c-1-1.3-1.6-2.8-1.9-4.4c-0.3-1.6-0.3-3.2,0-4.8c0-0.2,0.1-0.4,0.2-0.7
				c0.1-0.2,0.1-0.4,0.2-0.6c0.3-1.1,0.9-1.9,1.6-2.4c0.7-0.5,1.6-0.7,2.7-0.7c0.2,0,0.5,0,0.7,0c0.2,0,0.5,0,0.7,0.1
				c1.6,0.2,3.1,0.7,4.5,1.5c1.3,0.8,2.6,1.9,3.5,3.2c2.8,3.9,3,7.5,1.8,10c-0.5,1-1.2,1.8-2,2.5C44.3,52.5,43.3,52.9,42.2,53
				L42.2,53z"/>
		</g>
	</g>
</g>
</svg>
