<?xml version="1.0" encoding="utf-8"?>
<!-- Generator: Adobe Illustrator 22.0.1, SVG Export Plug-In . SVG Version: 6.00 Build 0)  -->
<svg version="1.1" id="Layer_1" xmlns="http://www.w3.org/2000/svg" xmlns:xlink="http://www.w3.org/1999/xlink" x="0px" y="0px"
	 viewBox="0 0 162 288" enable-background="new 0 0 162 288" xml:space="preserve">
<g id="Layer_x0020_1">
	<g id="_206128043856">
		<polygon fill="#FFFFFF" points="0,0 162,0 162,288 0,288 		"/>
		<g>
			<g>
				<path fill="#373435" d="M111.2,230.2c11,0,18-4.3,21.1-9.9c1.2-2.1,1.7-4.4,1.7-6.7s-0.6-4.6-1.7-6.7c-3-5.5-10.1-9.9-21.1-9.9
					c-3.9,0-7.5,0.8-10.8,2.3c-3.4,1.5-6.5,3.7-9,6.5c-0.4,0.4-0.7,0.8-1,1.2c-0.3,0.4-0.7,0.8-1,1.3l0,0c-1.3,1.8-2.1,3.5-2.1,5.3
					c0,1.7,0.6,3.5,2.1,5.4c0.3,0.4,0.7,0.9,1,1.3c0.3,0.4,0.7,0.8,1,1.2c2.5,2.7,5.6,5,9,6.5C103.6,229.4,107.3,230.2,111.2,230.2
					L111.2,230.2z M134.1,221.4c-3.4,6.2-11.1,11-23,11c-4.2,0-8.1-0.9-11.7-2.5c-3.7-1.6-7-4-9.8-7c-0.4-0.4-0.8-0.9-1.1-1.3
					c-0.4-0.4-0.7-0.9-1-1.3v0c-1.7-2.3-2.5-4.5-2.5-6.8c0-2.2,0.9-4.4,2.5-6.5h0c0.3-0.5,0.7-0.9,1-1.3c0.4-0.5,0.7-0.9,1.1-1.3
					c2.7-3,6-5.4,9.8-7c3.6-1.6,7.5-2.5,11.7-2.5c11.9,0,19.6,4.8,23,11c1.3,2.4,2,5.1,2,7.7S135.5,218.9,134.1,221.4L134.1,221.4z"
					/>
				<path fill="#373435" d="M73,251.8c3.4,10.5,9.7,15.8,15.9,17c2.4,0.5,4.7,0.3,6.9-0.4c2.2-0.7,4.2-2,5.8-3.7
					c4.3-4.6,6.3-12.6,2.9-23.1c-1.2-3.7-3.1-6.9-5.5-9.6c-2.5-2.8-5.6-5.1-8.9-6.6c-0.5-0.2-1-0.4-1.5-0.6c-0.5-0.2-1-0.4-1.5-0.5
					c-2.1-0.7-4-0.9-5.7-0.4c-1.7,0.5-3.2,1.7-4.5,3.6c-0.3,0.4-0.6,0.9-0.9,1.3c-0.3,0.5-0.6,0.9-0.8,1.4c-1.8,3.2-3,6.8-3.4,10.6
					C71.5,244.4,71.9,248.2,73,251.8L73,251.8z M88.5,271c-6.9-1.3-13.9-7.1-17.5-18.5c-1.3-4-1.7-8-1.3-11.9
					c0.4-4,1.7-7.9,3.7-11.4c0.3-0.5,0.6-1,0.9-1.5c0.3-0.5,0.6-0.9,0.9-1.4c1.6-2.4,3.5-3.8,5.7-4.5c2.1-0.7,4.5-0.5,7,0.4
					c0.5,0.2,1,0.4,1.6,0.6c0.5,0.2,1.1,0.4,1.6,0.7c3.6,1.7,6.9,4.1,9.6,7.1c2.6,2.9,4.6,6.4,5.9,10.4c3.7,11.3,1.4,20.1-3.4,25.2
					c-1.9,2-4.2,3.5-6.8,4.3C94,271.3,91.2,271.5,88.5,271L88.5,271z"/>
				<path fill="#373435" d="M59,182.4c-8.9-6.5-17.1-7.2-22.8-4.5c-2.2,1-4,2.5-5.4,4.4c-1.4,1.8-2.2,4-2.6,6.4
					c-0.8,6.3,2.3,13.9,11.1,20.4c3.1,2.3,6.5,3.8,10.1,4.6c3.7,0.8,7.5,0.9,11.1,0.1c0.5-0.1,1.1-0.2,1.5-0.4
					c0.5-0.1,1-0.3,1.5-0.4c2.1-0.6,3.7-1.6,4.8-3c1.1-1.4,1.6-3.2,1.5-5.6c0-0.5,0-1.1,0-1.6c0-0.5-0.1-1-0.1-1.6
					c-0.4-3.7-1.6-7.3-3.5-10.6C64.6,187.5,62.1,184.7,59,182.4L59,182.4z M35.3,175.9c6.4-3,15.4-2.3,25,4.7c3.4,2.5,6,5.5,8,8.9
					c2,3.5,3.3,7.4,3.7,11.4v0c0.1,0.6,0.1,1.1,0.1,1.7c0,0.5,0,1.1,0,1.7c0,2.9-0.6,5.2-2,6.9c-1.3,1.8-3.3,3-5.9,3.8
					c-0.5,0.2-1.1,0.3-1.6,0.5c-0.6,0.2-1.1,0.3-1.7,0.4c-3.9,0.8-8,0.7-12-0.2c-3.8-0.9-7.5-2.5-10.9-5c-9.6-7.1-12.9-15.5-12-22.5
					c0.4-2.8,1.4-5.3,3-7.4C30.6,178.8,32.7,177.1,35.3,175.9L35.3,175.9z"/>
				<path fill="#373435" d="M102.5,187.5c3.5-10.5,1.6-18.5-2.7-23.1c-1.6-1.8-3.6-3-5.8-3.8c-2.2-0.7-4.5-0.9-6.9-0.5
					c-6.2,1.1-12.5,6.4-16,16.9c-1.2,3.7-1.6,7.4-1.3,11c0.3,3.7,1.5,7.4,3.3,10.6c0.3,0.5,0.5,0.9,0.8,1.4c0.3,0.4,0.6,0.9,0.9,1.3
					c1.3,1.8,2.7,3.1,4.4,3.6c1.6,0.6,3.6,0.5,5.8-0.3c0.6-0.2,1.1-0.4,1.5-0.5c0.5-0.2,1-0.4,1.5-0.6c3.4-1.5,6.5-3.7,9-6.5
					C99.4,194.4,101.3,191.2,102.5,187.5L102.5,187.5z M101.4,162.9c4.8,5.2,6.9,14,3.2,25.3c-1.3,4-3.4,7.4-6,10.3
					c-2.7,3-6.1,5.4-9.7,7.1c-0.5,0.2-1.1,0.4-1.6,0.6c-0.6,0.2-1.1,0.4-1.6,0.6c-2.7,0.9-5.1,1-7.2,0.2c-2.1-0.7-3.9-2.2-5.4-4.4
					c-0.3-0.4-0.6-0.9-0.9-1.4c-0.3-0.5-0.6-1-0.9-1.5c-1.9-3.5-3.2-7.4-3.5-11.5c-0.4-3.9,0.1-7.9,1.4-11.9
					c3.8-11.3,10.8-17.1,17.7-18.3c2.7-0.5,5.5-0.3,8,0.5C97.2,159.4,99.5,160.9,101.4,162.9L101.4,162.9z"/>
				<path fill="#373435" d="M40.7,222.2c-8.9,6.4-12.1,14.1-11.3,20.3c0.3,2.4,1.2,4.6,2.5,6.5c1.3,1.9,3.2,3.4,5.3,4.4
					c5.7,2.7,13.9,2.1,22.9-4.3c3.1-2.3,5.6-5.1,7.5-8.2c1.9-3.2,3.1-6.8,3.5-10.5c0.1-0.5,0.1-1.1,0.1-1.6c0-0.6,0-1.1,0.1-1.6
					c0-2.2-0.4-4.1-1.4-5.5c-1-1.4-2.6-2.5-4.8-3.2c-0.5-0.2-1-0.3-1.6-0.5c-0.5-0.1-1-0.3-1.5-0.4c-3.6-0.7-7.4-0.8-11.1,0
					C47.3,218.5,43.9,220,40.7,222.2L40.7,222.2z M27.3,242.8c-0.9-7,2.5-15.4,12.2-22.4c3.4-2.4,7.1-4,10.9-4.9c4-0.8,8.1-0.8,12,0
					c0.6,0.1,1.1,0.3,1.7,0.4c0.5,0.1,1.1,0.3,1.6,0.5c2.7,0.8,4.7,2.2,6,4c1.3,1.8,1.8,4.1,1.8,6.8c0,0.6,0,1.2-0.1,1.7
					c0,0.6-0.1,1.2-0.1,1.7c-0.5,4-1.8,7.9-3.8,11.4c-2,3.4-4.7,6.4-8.1,8.8c-9.7,7-18.7,7.5-25.1,4.5c-2.5-1.2-4.6-3-6.2-5.1
					C28.6,248.1,27.6,245.6,27.3,242.8L27.3,242.8z"/>
			</g>
			<path fill="#CCCCCC" d="M44.5,20.8c0.3,0,0.5,0,0.7,0s0.3,0.1,0.5,0.2c0.2,0.1,0.3,0.3,0.4,0.5c0.1,0.2,0.1,0.6,0.1,1
				s0,0.7-0.1,1c-0.1,0.2-0.2,0.4-0.4,0.5c-0.2,0.1-0.4,0.2-0.5,0.2c-0.1,0-0.4,0-0.7,0h-5.8V26h3.7c0.3,0,0.5,0,0.7,0
				c0.1,0,0.3,0.1,0.5,0.2c0.3,0.2,0.5,0.7,0.5,1.5c0,0.9-0.2,1.4-0.7,1.6c-0.2,0.1-0.5,0.1-1,0.1h-3.7V33c0,0.3,0,0.5,0,0.7
				c0,0.1-0.1,0.3-0.2,0.5c-0.2,0.3-0.7,0.5-1.5,0.5c-0.9,0-1.4-0.2-1.6-0.7c-0.1-0.2-0.1-0.5-0.1-1V22.4c0-0.6,0.1-1.1,0.4-1.3
				c0.2-0.2,0.7-0.4,1.4-0.4L44.5,20.8L44.5,20.8z M47,26.3c0-0.3,0-0.5,0-0.7s0.1-0.3,0.2-0.5c0.2-0.3,0.7-0.5,1.5-0.5
				c0.6,0,1,0.1,1.3,0.3c0.2,0.2,0.3,0.4,0.3,0.8c0,0.1,0,0.3,0,0.6V33c0,0.3,0,0.5,0,0.7c0,0.1-0.1,0.3-0.2,0.5
				c-0.2,0.3-0.7,0.5-1.5,0.5c-0.8,0-1.3-0.2-1.5-0.5c-0.1-0.2-0.1-0.4-0.2-0.5c0-0.1,0-0.4,0-0.7L47,26.3L47,26.3z M50.1,22.8
				c-0.1,0.2-0.3,0.3-0.5,0.4c-0.2,0.1-0.6,0.1-1,0.1s-0.7,0-1-0.1c-0.2-0.1-0.4-0.2-0.5-0.4c-0.1-0.2-0.2-0.4-0.2-0.5
				c0-0.1,0-0.4,0-0.7c0-0.3,0-0.5,0-0.7c0-0.1,0.1-0.3,0.2-0.5c0.2-0.3,0.7-0.5,1.5-0.5c0.8,0,1.3,0.2,1.4,0.5
				c0.1,0.2,0.2,0.4,0.2,0.5c0,0.1,0,0.4,0,0.7c0,0.3,0,0.5,0,0.7C50.3,22.5,50.2,22.6,50.1,22.8L50.1,22.8z M55.3,31.3
				c0.4,0,0.7,0.1,0.9,0.3c0.2,0.2,0.3,0.7,0.3,1.3c0,0.7-0.1,1.1-0.3,1.3c-0.2,0.2-0.5,0.3-0.9,0.3c-1.3,0-2.2-0.3-2.7-0.9
				c-0.5-0.6-0.8-1.6-0.8-3.1v-9.1c0-0.3,0-0.5,0-0.7c0-0.1,0.1-0.3,0.2-0.5c0.2-0.3,0.7-0.5,1.5-0.5c0.8,0,1.3,0.2,1.4,0.5
				c0.1,0.2,0.2,0.3,0.2,0.5c0,0.1,0,0.4,0,0.7v9.1C55.2,31.1,55.2,31.3,55.3,31.3L55.3,31.3z M60.3,30.7c0,0.2,0.1,0.4,0.2,0.5
				c0.1,0.1,0.4,0.1,0.8,0.1c0.4,0,0.8,0.1,1,0.3c0.3,0.2,0.4,0.7,0.4,1.3c0,0.7-0.1,1.1-0.4,1.3c-0.3,0.2-0.7,0.3-1.2,0.3
				c-2.7,0-4-1.3-4-4l0-9.1c0-0.3,0-0.5,0-0.7s0.1-0.3,0.2-0.5c0.2-0.3,0.7-0.5,1.5-0.5c0.8,0,1.3,0.2,1.4,0.5
				c0.1,0.3,0.2,0.7,0.2,1.1C60.3,21.6,60.3,30.7,60.3,30.7z M77.3,31l0.3-0.2c0.4-0.3,0.7-0.4,0.9-0.4c0.4,0,0.8,0.4,1.3,1.1
				c0.3,0.4,0.4,0.8,0.4,1.1c0,0.3-0.1,0.5-0.3,0.7c-0.2,0.2-0.4,0.3-0.6,0.5c-0.2,0.1-0.4,0.3-0.7,0.4c-0.2,0.1-0.6,0.3-1.3,0.5
				c-0.6,0.2-1.3,0.3-1.9,0.3c-0.6,0-1.2-0.1-1.8-0.2c-0.6-0.2-1.2-0.4-1.9-0.8c-0.7-0.4-1.2-0.8-1.8-1.4s-0.9-1.2-1.3-2.1
				c-0.3-0.8-0.5-1.8-0.5-2.7c0-1,0.2-1.9,0.5-2.7c0.3-0.8,0.8-1.5,1.3-2c0.5-0.5,1.1-1,1.8-1.3c1.2-0.7,2.5-1,3.7-1
				c0.6,0,1.2,0.1,1.8,0.3c0.6,0.2,1.1,0.4,1.4,0.6l0.5,0.3c0.2,0.1,0.4,0.3,0.5,0.3c0.3,0.3,0.5,0.6,0.5,0.9s-0.1,0.7-0.4,1.1
				c-0.5,0.7-0.9,1-1.3,1c-0.2,0-0.6-0.1-1-0.4C77,24.2,76.3,24,75.4,24c-0.8,0-1.6,0.3-2.4,0.9c-0.4,0.3-0.7,0.7-1,1.2
				c-0.3,0.5-0.4,1.1-0.4,1.7c0,0.6,0.1,1.2,0.4,1.7c0.3,0.5,0.6,0.9,1,1.2c0.8,0.6,1.6,0.8,2.4,0.8c0.4,0,0.8-0.1,1.1-0.2
				C76.9,31.2,77.1,31.1,77.3,31L77.3,31z M81.2,29.7c0-1.5,0.5-2.8,1.6-3.8c1.1-1,2.3-1.5,3.6-1.5c1.4,0,2.6,0.5,3.6,1.5
				c1.1,1,1.6,2.2,1.6,3.8c0,1.1-0.3,2-0.8,2.8c-0.5,0.8-1.2,1.4-2,1.8c-0.8,0.4-1.6,0.6-2.4,0.6c-0.8,0-1.6-0.2-2.4-0.6
				c-0.8-0.4-1.4-1-2-1.8C81.4,31.6,81.2,30.7,81.2,29.7L81.2,29.7z M85.1,31c0.4,0.3,0.8,0.5,1.2,0.5c0.4,0,0.8-0.2,1.3-0.5
				c0.4-0.3,0.6-0.8,0.6-1.4c0-0.6-0.2-1.1-0.6-1.4c-0.4-0.3-0.8-0.5-1.3-0.5c-0.5,0-0.9,0.2-1.3,0.5c-0.4,0.3-0.6,0.8-0.6,1.4
				S84.7,30.7,85.1,31L85.1,31z M92.9,21.6c0-0.3,0-0.5,0-0.7c0-0.1,0.1-0.3,0.2-0.5c0.2-0.3,0.7-0.5,1.5-0.5c0.8,0,1.3,0.2,1.4,0.5
				c0.1,0.2,0.2,0.4,0.2,0.5c0,0.2,0,0.4,0,0.7v8.8c0,0.5,0,0.7,0.1,0.9c0.1,0.1,0.2,0.2,0.5,0.2c0.3,0,0.4,0,0.5,0
				c0.1,0,0.2,0.1,0.3,0.2c0.3,0.2,0.4,0.6,0.4,1.3c0,0.8-0.1,1.3-0.4,1.5c-0.3,0.2-1.1,0.3-2.4,0.1c-1-0.1-1.6-0.4-1.9-1
				c-0.4-0.6-0.5-1.6-0.5-3L92.9,21.6L92.9,21.6z M98.8,29.7c0-1.5,0.5-2.8,1.6-3.8c1.1-1,2.3-1.5,3.6-1.5s2.6,0.5,3.6,1.5
				c1.1,1,1.6,2.2,1.6,3.8c0,1.1-0.3,2-0.8,2.8c-0.5,0.8-1.2,1.4-2,1.8c-0.8,0.4-1.6,0.6-2.4,0.6c-0.8,0-1.6-0.2-2.4-0.6
				c-0.8-0.4-1.4-1-2-1.8C99.1,31.6,98.8,30.7,98.8,29.7L98.8,29.7z M102.8,31c0.4,0.3,0.8,0.5,1.2,0.5c0.4,0,0.8-0.2,1.3-0.5
				c0.4-0.3,0.6-0.8,0.6-1.4c0-0.6-0.2-1.1-0.6-1.4c-0.4-0.3-0.8-0.5-1.3-0.5c-0.5,0-0.9,0.2-1.3,0.5c-0.4,0.3-0.6,0.8-0.6,1.4
				S102.3,30.7,102.8,31L102.8,31z M117.3,24.8c0.2,0.1,0.4,0.2,0.6,0.4c0.2,0.2,0.2,0.5,0.2,0.9s-0.1,0.8-0.4,1.3
				c-0.2,0.5-0.6,0.7-1,0.7c-0.2,0-0.4-0.1-0.7-0.2c-0.2-0.1-0.5-0.2-0.8-0.2c-0.3,0-0.7,0.1-1,0.4s-0.4,0.5-0.4,0.9v4
				c0,0.3,0,0.5,0,0.7c0,0.1-0.1,0.3-0.2,0.5c-0.2,0.3-0.7,0.5-1.5,0.5c-0.6,0-1-0.1-1.3-0.3c-0.2-0.2-0.3-0.4-0.3-0.8
				c0-0.1,0-0.3,0-0.6v-6.7c0-0.3,0-0.5,0-0.7s0.1-0.3,0.2-0.5c0.2-0.3,0.7-0.5,1.5-0.5c0.8,0,1.2,0.1,1.4,0.4
				c0.1,0.2,0.2,0.4,0.2,0.6c0.1-0.1,0.2-0.2,0.3-0.3c0.1-0.1,0.4-0.3,0.8-0.5c0.4-0.2,0.7-0.3,1-0.3c0.3,0,0.5,0,0.8,0
				C116.8,24.7,117,24.7,117.3,24.8L117.3,24.8z M118.8,33.8c-0.2-0.2-0.4-0.4-0.4-0.7c0-0.3,0.2-0.8,0.7-1.5
				c0.1-0.2,0.4-0.3,0.7-0.3s0.7,0.2,1.3,0.5c0.5,0.3,1,0.5,1.4,0.5c0.8,0,1.2-0.2,1.2-0.5c0-0.2-0.4-0.4-1.3-0.5
				c-0.8-0.1-1.6-0.4-2.4-0.9c-0.4-0.2-0.7-0.6-0.9-1.1c-0.2-0.5-0.4-1.1-0.4-1.7c0-2,1.4-3,4.1-3c0.9,0,1.8,0.2,2.8,0.6
				c0.4,0.2,0.7,0.5,0.7,0.8c0,0.3-0.1,0.7-0.4,1.1c-0.3,0.4-0.6,0.7-0.9,0.7c-0.2,0-0.4-0.1-0.8-0.3c-0.4-0.2-0.9-0.3-1.3-0.3
				c-0.7,0-1.1,0.1-1.1,0.4c0,0.4,0.4,0.6,1.3,0.7c0.8,0.1,1.6,0.3,2.4,0.7c0.4,0.2,0.7,0.5,0.9,0.9c0.2,0.4,0.4,1,0.4,1.6
				c0,0.7-0.1,1.2-0.4,1.7c-0.2,0.5-0.6,0.8-1,1c-0.8,0.4-1.8,0.6-3,0.6S120,34.5,118.8,33.8L118.8,33.8z"/>
			<g>
				<path fill="#FFFF00" d="M75.5,96.6c1.1,3.1,0.1,5.4-2.4,7.2c-0.6,0.4-1.2,0.8-1.8,1.1c-0.2,0.1-0.4,0.2-0.6,0.3
					c0.1,0.2,0.2,0.5,0.4,0.7c0.5-0.1,1-0.2,1.4-0.2c0.7-0.1,1.4-0.1,2.1-0.1c3.3-0.1,5.2,1.5,6.1,4.5c0.2,0.6,0.3,1.2,0.5,1.8
					c0.3,0,0.7,0,1,0c0-0.2,0.1-0.4,0.1-0.6c0.1-0.7,0.3-1.4,0.5-2c1-3.2,3.1-4.5,6.2-4.5c0.5,0,1,0,1.6,0.1
					c0.1-0.3,0.3-0.7,0.4-1.1c-0.1-0.1-0.2-0.1-0.4-0.2c-0.6-0.3-1.2-0.7-1.8-1.1c-2.7-1.9-3.3-4.3-2.3-7.2c0.2-0.7,0.5-1.3,0.8-2
					c0.1-0.1,0.1-0.3,0.2-0.4c-0.2-0.2-0.4-0.3-0.6-0.5c-0.3,0.3-0.6,0.7-1,1c-0.5,0.5-1.1,0.9-1.6,1.3c-2.6,2-5.1,1.9-7.6,0
					c-0.6-0.4-1.1-0.9-1.6-1.3c-0.3-0.2-0.5-0.5-0.8-0.8c-0.1,0.1-0.3,0.2-0.4,0.3c0.3,0.6,0.6,1.2,0.9,1.8
					C75,95.2,75.3,95.9,75.5,96.6L75.5,96.6z"/>
				<path fill="#33CC33" d="M91.7,80.2c0-20.2-22.4-20.2-22.4,0c0,5.2,2.2,9.8,5.8,13.1c0.5,0.5,1.1,0.9,1.6,1.3c2.5,1.9,5,2,7.6,0
					c0.6-0.4,1.1-0.9,1.6-1.3C89.5,90,91.7,85.4,91.7,80.2L91.7,80.2z"/>
				<path fill="#373435" d="M91,80.2c0-7-2.7-11.4-6.3-13.4c-1.3-0.7-2.8-1.1-4.2-1.1c-1.5,0-2.9,0.4-4.2,1.1
					c-3.5,1.9-6.3,6.4-6.3,13.4c0,2.4,0.5,4.8,1.4,6.9c1,2.2,2.4,4.1,4.1,5.7c0.3,0.2,0.5,0.5,0.8,0.7c0.3,0.2,0.5,0.4,0.8,0.6l0,0
					c1.1,0.8,2.2,1.3,3.3,1.3c1.1,0,2.2-0.4,3.4-1.3c0.3-0.2,0.5-0.4,0.8-0.6c0.3-0.2,0.5-0.4,0.8-0.7c1.7-1.6,3.1-3.5,4.1-5.7
					C90.5,84.9,91,82.6,91,80.2L91,80.2z M85.4,65.6c3.9,2.1,7,7,7,14.6c0,2.6-0.6,5.2-1.6,7.4c-1,2.4-2.6,4.5-4.4,6.2
					c-0.3,0.2-0.5,0.5-0.8,0.7c-0.3,0.2-0.6,0.4-0.8,0.7h0c-1.4,1.1-2.9,1.6-4.3,1.6c-1.4,0-2.8-0.6-4.2-1.6v0
					c-0.3-0.2-0.6-0.4-0.9-0.7c-0.3-0.2-0.6-0.5-0.8-0.7c-1.9-1.7-3.4-3.8-4.4-6.2c-1-2.3-1.6-4.8-1.6-7.4c0-7.6,3.1-12.4,7-14.6
					c1.5-0.8,3.2-1.3,4.9-1.3C82.2,64.3,83.9,64.8,85.4,65.6L85.4,65.6z"/>
				<path fill="#FF00FF" d="M104.9,105c19.2-6.2,12.3-27.5-6.9-21.3c-4.9,1.6-8.7,5.1-10.7,9.5c-0.3,0.6-0.5,1.3-0.8,2
					c-1,2.9-0.4,5.3,2.3,7.2c0.6,0.4,1.2,0.8,1.8,1.1C94.9,105.9,100,106.6,104.9,105z"/>
				<path fill="#373435" d="M104.7,104.3c6.7-2.1,10-6.1,10.8-10.1c0.3-1.5,0.2-3-0.3-4.4c-0.4-1.4-1.2-2.7-2.4-3.7
					c-2.9-2.8-8-4-14.6-1.9c-2.3,0.8-4.4,2-6.1,3.5c-1.8,1.6-3.2,3.5-4.2,5.7c-0.1,0.3-0.3,0.6-0.4,0.9c-0.1,0.3-0.2,0.6-0.3,1
					c-0.5,1.3-0.5,2.5-0.2,3.6c0.3,1.1,1.1,2,2.3,2.9c0.3,0.2,0.6,0.4,0.9,0.6c0.3,0.2,0.6,0.4,0.9,0.5c2.1,1.2,4.3,1.9,6.7,2.1
					C100,105.3,102.4,105.1,104.7,104.3L104.7,104.3z M116.9,94.5c-0.8,4.4-4.5,8.8-11.7,11.1c-2.5,0.8-5.1,1.1-7.5,0.8
					c-2.6-0.3-5-1.1-7.3-2.3c-0.3-0.2-0.6-0.4-0.9-0.6c-0.3-0.2-0.6-0.4-0.9-0.6c-1.5-1-2.4-2.2-2.8-3.6c-0.4-1.4-0.3-2.8,0.2-4.4
					c0.1-0.3,0.2-0.7,0.4-1c0.1-0.3,0.3-0.7,0.4-1c1.1-2.3,2.6-4.4,4.5-6.1c1.9-1.6,4.1-2.9,6.6-3.8c7.2-2.3,12.8-0.9,16,2.2
					c1.3,1.2,2.2,2.7,2.7,4.3C117.1,91.1,117.2,92.8,116.9,94.5L116.9,94.5z"/>
				<path fill="#FFCC00" d="M85.4,125.2c11.8,16.4,30,3.3,18.2-13.1c-3-4.2-7.6-6.7-12.3-7.3c-0.7-0.1-1.4-0.1-2.1-0.1
					c-3.1-0.1-5.2,1.3-6.2,4.4c-0.2,0.7-0.4,1.3-0.5,2C81.4,115.9,82.3,121,85.4,125.2L85.4,125.2z"/>
				<path fill="#0048FF" d="M60.1,112.8c-12,16.3,6.1,29.5,18,13.3c3.1-4.2,4-9.3,3.1-14c-0.1-0.7-0.3-1.4-0.5-2
					c-0.9-3-2.8-4.6-6.1-4.5c-0.7,0-1.4,0-2.1,0.1C67.7,106.2,63.2,108.7,60.1,112.8L60.1,112.8z"/>
				<path fill="#373435" d="M60.7,113.2c-4.1,5.6-4.6,10.8-2.9,14.5c0.6,1.4,1.6,2.5,2.8,3.4c1.2,0.9,2.6,1.4,4.1,1.6
					c4,0.5,8.8-1.4,13-7.1c1.4-2,2.4-4.1,2.9-6.4c0.5-2.3,0.5-4.7,0.1-7.1c-0.1-0.3-0.1-0.7-0.2-1c-0.1-0.3-0.2-0.7-0.3-1
					c-0.4-1.3-1-2.4-1.9-3c-0.9-0.7-2-1-3.5-1c-0.3,0-0.7,0-1,0c-0.3,0-0.7,0-1,0.1c-2.3,0.3-4.6,1-6.7,2.2
					C63.9,109.7,62.1,111.3,60.7,113.2z M56.6,128.3c-1.9-4-1.5-9.8,3-15.9c1.6-2.1,3.5-3.8,5.7-5.1c2.2-1.3,4.7-2.1,7.2-2.4h0
					c0.4,0,0.7-0.1,1.1-0.1c0.3,0,0.7,0,1.1,0c1.8,0,3.3,0.4,4.4,1.3c1.1,0.9,1.9,2.1,2.4,3.7c0.1,0.3,0.2,0.7,0.3,1
					c0.1,0.4,0.2,0.7,0.2,1.1c0.5,2.5,0.5,5.1-0.1,7.6c-0.5,2.4-1.6,4.8-3.1,6.9c-4.5,6.1-9.8,8.2-14.2,7.6
					c-1.8-0.2-3.4-0.9-4.7-1.9C58.4,131.2,57.3,129.9,56.6,128.3L56.6,128.3z"/>
				<path fill="#FF0000" d="M64.1,85c-19.2-6.4-26.2,14.9-7.1,21.2c4.9,1.6,10,1,14.3-1.3c0.6-0.3,1.2-0.7,1.8-1.1
					c2.6-1.8,3.5-4.1,2.4-7.2c-0.2-0.7-0.5-1.3-0.7-2C72.8,90.2,69.1,86.6,64.1,85L64.1,85z"/>
				<path fill="#373435" d="M63.9,85.6c-6.6-2.2-11.7-1-14.7,1.7c-1.1,1-1.9,2.3-2.4,3.7c-0.5,1.4-0.6,2.9-0.3,4.4
					c0.7,3.9,4.1,8,10.7,10.2c2.3,0.8,4.7,1,7,0.8c2.4-0.2,4.7-0.9,6.7-2.1c0.3-0.2,0.6-0.3,0.9-0.5c0.3-0.2,0.5-0.4,0.8-0.6
					c1.2-0.8,1.9-1.7,2.3-2.8c0.4-1,0.3-2.3-0.2-3.7c-0.1-0.3-0.2-0.7-0.3-1c-0.1-0.3-0.2-0.6-0.4-0.9c-1-2.2-2.4-4.1-4.1-5.7
					C68.3,87.6,66.2,86.4,63.9,85.6L63.9,85.6z M48.3,86.4c3.3-3,8.9-4.4,16-2c2.5,0.8,4.7,2.2,6.6,3.8c1.9,1.7,3.4,3.8,4.5,6.2
					c0.1,0.3,0.3,0.7,0.4,1c0.1,0.4,0.3,0.7,0.4,1c0.6,1.7,0.6,3.2,0.2,4.6c-0.5,1.3-1.4,2.5-2.8,3.4c-0.3,0.2-0.6,0.4-0.9,0.6
					c-0.3,0.2-0.6,0.4-0.9,0.6c-2.2,1.2-4.7,2-7.3,2.2c-2.5,0.2-5,0-7.5-0.9c-7.2-2.4-10.8-6.8-11.6-11.2c-0.3-1.7-0.2-3.5,0.3-5.1
					C46.1,89,47,87.6,48.3,86.4L48.3,86.4z"/>
				<path fill="#373435" d="M85.9,124.8c4.1,5.7,8.9,7.7,12.9,7.2c1.5-0.2,2.9-0.7,4.1-1.6c1.2-0.8,2.1-2,2.8-3.4
					c1.7-3.6,1.3-8.8-2.7-14.5c-1.4-2-3.2-3.6-5.2-4.7c-2.1-1.2-4.3-2-6.7-2.2c-0.3,0-0.7-0.1-1-0.1c-0.4,0-0.7,0-1,0
					c-1.4,0-2.6,0.3-3.5,0.9c-0.9,0.6-1.6,1.6-2,3.1c-0.1,0.3-0.2,0.7-0.3,1c-0.1,0.3-0.2,0.6-0.2,1c-0.5,2.3-0.5,4.7,0,7.1
					C83.6,120.7,84.5,122.8,85.9,124.8L85.9,124.8z M99,133.4c-4.4,0.5-9.8-1.6-14.2-7.7c-1.5-2.1-2.6-4.5-3.1-6.9
					c-0.5-2.5-0.5-5.1,0-7.6c0.1-0.4,0.2-0.7,0.3-1.1c0.1-0.3,0.2-0.7,0.3-1c0.5-1.7,1.4-3,2.5-3.8c1.2-0.8,2.6-1.2,4.3-1.1
					c0.4,0,0.7,0,1.1,0c0.4,0,0.7,0.1,1.1,0.1c2.5,0.3,5,1.1,7.2,2.4c2.1,1.3,4.1,3,5.6,5.1c4.4,6.1,4.8,11.9,2.9,15.9
					c-0.8,1.6-1.9,2.9-3.2,3.9C102.4,132.5,100.7,133.2,99,133.4L99,133.4z"/>
			</g>
		</g>
	</g>
</g>
</svg>
