<?xml version="1.0" encoding="utf-8"?>
<!-- Generator: Adobe Illustrator 22.0.1, SVG Export Plug-In . SVG Version: 6.00 Build 0)  -->
<svg version="1.1" id="Layer_1" xmlns="http://www.w3.org/2000/svg" xmlns:xlink="http://www.w3.org/1999/xlink" x="0px" y="0px"
	 viewBox="0 0 162 288" enable-background="new 0 0 162 288" xml:space="preserve">
<g id="Layer_x0020_1">
	<g id="_171477665392">
		<polygon fill="#FFFFFF" points="0,0 162,0 162,288 0,288 		"/>
		<g>
			<path fill="#FFFF00" d="M75.5,71.6c1.1,3.1,0.1,5.4-2.4,7.2c-0.6,0.4-1.2,0.8-1.8,1.1c-0.2,0.1-0.4,0.2-0.6,0.3
				c0.1,0.2,0.2,0.5,0.4,0.7c0.5-0.1,1-0.2,1.4-0.2c0.7-0.1,1.4-0.1,2.1-0.1c3.3-0.1,5.2,1.5,6.1,4.5c0.2,0.6,0.3,1.2,0.5,1.8
				c0.3,0,0.7,0,1,0c0-0.2,0.1-0.4,0.1-0.6c0.1-0.7,0.3-1.4,0.5-2c1-3.2,3.1-4.5,6.2-4.5c0.5,0,1,0,1.6,0.1c0.1-0.3,0.3-0.7,0.4-1.1
				c-0.1-0.1-0.2-0.1-0.4-0.2c-0.6-0.3-1.2-0.7-1.8-1.1c-2.7-1.9-3.3-4.3-2.3-7.2c0.2-0.7,0.5-1.3,0.8-2c0.1-0.1,0.1-0.3,0.2-0.4
				c-0.2-0.2-0.4-0.3-0.6-0.5c-0.3,0.3-0.6,0.7-1,1c-0.5,0.5-1.1,0.9-1.6,1.3c-2.6,2-5.1,1.9-7.6,0c-0.6-0.4-1.1-0.9-1.6-1.3
				c-0.3-0.2-0.5-0.5-0.8-0.8c-0.1,0.1-0.3,0.2-0.4,0.3c0.3,0.6,0.6,1.2,0.9,1.8C75,70.2,75.2,70.9,75.5,71.6L75.5,71.6z"/>
			<path fill="#33CC33" d="M91.6,55.2c0-20.2-22.4-20.2-22.4,0c0,5.2,2.2,9.8,5.8,13.1c0.5,0.5,1.1,0.9,1.6,1.3c2.5,1.9,5,2,7.6,0
				c0.6-0.4,1.1-0.9,1.6-1.3C89.4,65,91.6,60.4,91.6,55.2L91.6,55.2z"/>
			<path fill="#373435" d="M90.9,55.2c0-7-2.7-11.4-6.3-13.4c-1.3-0.7-2.8-1.1-4.2-1.1c-1.5,0-2.9,0.4-4.2,1.1
				c-3.5,1.9-6.3,6.4-6.3,13.4c0,2.4,0.5,4.8,1.4,6.9c1,2.2,2.4,4.1,4.1,5.7c0.3,0.2,0.5,0.5,0.8,0.7c0.3,0.2,0.5,0.4,0.8,0.6l0,0
				c1.1,0.8,2.2,1.3,3.3,1.3c1.1,0,2.2-0.4,3.4-1.3c0.3-0.2,0.5-0.4,0.8-0.6c0.3-0.2,0.5-0.4,0.8-0.7c1.7-1.6,3.1-3.5,4.1-5.7
				C90.4,59.9,90.9,57.6,90.9,55.2L90.9,55.2z M85.3,40.6c3.9,2.1,7,7,7,14.6c0,2.6-0.6,5.2-1.6,7.4c-1,2.4-2.6,4.5-4.4,6.2
				c-0.3,0.2-0.5,0.5-0.8,0.7c-0.3,0.2-0.6,0.4-0.8,0.7h0c-1.4,1.1-2.9,1.6-4.3,1.6c-1.4,0-2.8-0.6-4.2-1.6v0
				c-0.3-0.2-0.6-0.4-0.9-0.7c-0.3-0.2-0.6-0.5-0.8-0.7c-1.9-1.7-3.4-3.8-4.4-6.2c-1-2.3-1.6-4.8-1.6-7.4c0-7.6,3.1-12.4,7-14.6
				c1.5-0.8,3.2-1.3,4.9-1.3C82.1,39.3,83.8,39.8,85.3,40.6z"/>
			<path fill="#FF00FF" d="M104.9,80c19.2-6.2,12.3-27.5-6.9-21.3c-4.9,1.6-8.7,5.1-10.7,9.5c-0.3,0.6-0.5,1.3-0.8,2
				c-1,2.9-0.4,5.3,2.3,7.2c0.6,0.4,1.2,0.8,1.8,1.1C94.8,80.9,99.9,81.6,104.9,80L104.9,80z"/>
			<path fill="#373435" d="M104.7,79.3c6.7-2.1,10-6.1,10.8-10.1c0.3-1.5,0.2-3-0.3-4.4c-0.4-1.4-1.2-2.7-2.4-3.7
				c-2.9-2.8-8-4-14.6-1.9c-2.3,0.8-4.4,2-6.1,3.5c-1.8,1.6-3.2,3.5-4.2,5.7c-0.1,0.3-0.3,0.6-0.4,0.9c-0.1,0.3-0.2,0.6-0.3,1
				c-0.5,1.3-0.5,2.5-0.2,3.6c0.3,1.1,1.1,2,2.3,2.9c0.3,0.2,0.6,0.4,0.9,0.6c0.3,0.2,0.6,0.4,0.9,0.5c2.1,1.2,4.3,1.9,6.7,2.1
				C100,80.3,102.3,80.1,104.7,79.3L104.7,79.3z M116.8,69.5c-0.8,4.4-4.5,8.8-11.7,11.1c-2.5,0.8-5.1,1.1-7.5,0.8
				c-2.6-0.3-5-1.1-7.3-2.3c-0.3-0.2-0.6-0.4-0.9-0.6c-0.3-0.2-0.6-0.4-0.9-0.6c-1.5-1-2.4-2.2-2.8-3.6c-0.4-1.4-0.3-2.8,0.2-4.4
				c0.1-0.3,0.2-0.7,0.4-1c0.1-0.3,0.3-0.7,0.4-1c1.1-2.3,2.6-4.4,4.5-6.1c1.9-1.6,4.1-2.9,6.6-3.8c7.2-2.3,12.8-0.9,16,2.2
				c1.3,1.2,2.2,2.7,2.7,4.3C117,66.1,117.1,67.8,116.8,69.5L116.8,69.5z"/>
			<path fill="#FFCC00" d="M85.3,100.2c11.8,16.4,30,3.3,18.2-13.1c-3-4.2-7.6-6.7-12.3-7.3c-0.7-0.1-1.4-0.1-2.1-0.1
				c-3.1-0.1-5.2,1.3-6.2,4.4c-0.2,0.7-0.4,1.3-0.5,2C81.4,90.9,82.3,96,85.3,100.2L85.3,100.2z"/>
			<path fill="#0048FF" d="M60.1,87.8c-12,16.3,6.1,29.5,18,13.3c3.1-4.2,4-9.3,3.1-14c-0.1-0.7-0.3-1.4-0.5-2
				c-0.9-3-2.8-4.6-6.1-4.5c-0.7,0-1.4,0-2.1,0.1C67.7,81.2,63.1,83.7,60.1,87.8z"/>
			<path fill="#373435" d="M60.6,88.2c-4.1,5.6-4.6,10.8-2.9,14.5c0.6,1.4,1.6,2.5,2.8,3.4c1.2,0.9,2.6,1.4,4.1,1.6
				c4,0.5,8.8-1.4,13-7.1c1.4-2,2.4-4.1,2.9-6.4c0.5-2.3,0.5-4.7,0.1-7.1c-0.1-0.3-0.1-0.7-0.2-1c-0.1-0.3-0.2-0.7-0.3-1
				c-0.4-1.3-1-2.4-1.9-3c-0.9-0.7-2-1-3.5-1c-0.3,0-0.7,0-1,0c-0.3,0-0.7,0-1,0.1c-2.3,0.3-4.6,1-6.7,2.2
				C63.9,84.7,62.1,86.3,60.6,88.2L60.6,88.2z M56.5,103.3c-1.9-4-1.5-9.8,3-15.9c1.6-2.1,3.5-3.8,5.7-5.1c2.2-1.3,4.7-2.1,7.2-2.4
				h0c0.4,0,0.7-0.1,1.1-0.1c0.3,0,0.7,0,1.1,0c1.8,0,3.3,0.4,4.4,1.3c1.1,0.9,1.9,2.1,2.4,3.7c0.1,0.3,0.2,0.7,0.3,1
				c0.1,0.4,0.2,0.7,0.2,1.1c0.5,2.5,0.5,5.1-0.1,7.6c-0.5,2.4-1.6,4.8-3.1,6.9c-4.5,6.1-9.8,8.2-14.2,7.6c-1.8-0.2-3.4-0.9-4.7-1.9
				C58.3,106.2,57.2,104.9,56.5,103.3L56.5,103.3z"/>
			<path fill="#FF0000" d="M64.1,60C44.9,53.6,37.8,74.9,57,81.2c4.9,1.6,10,1,14.3-1.3c0.6-0.3,1.2-0.7,1.8-1.1
				c2.6-1.8,3.5-4.1,2.4-7.2c-0.2-0.7-0.5-1.3-0.7-2C72.7,65.2,69,61.6,64.1,60L64.1,60z"/>
			<path fill="#373435" d="M63.9,60.6c-6.6-2.2-11.7-1-14.7,1.7c-1.1,1-1.9,2.3-2.4,3.7c-0.5,1.4-0.6,2.9-0.3,4.4
				c0.7,3.9,4.1,8,10.7,10.2c2.3,0.8,4.7,1,7,0.8c2.4-0.2,4.7-0.9,6.7-2.1c0.3-0.2,0.6-0.3,0.9-0.5c0.3-0.2,0.5-0.4,0.8-0.6
				c1.2-0.8,1.9-1.7,2.3-2.8c0.4-1,0.3-2.3-0.2-3.7c-0.1-0.3-0.2-0.7-0.3-1c-0.1-0.3-0.2-0.6-0.4-0.9c-1-2.2-2.4-4.1-4.1-5.7
				C68.2,62.6,66.2,61.4,63.9,60.6L63.9,60.6z M48.3,61.4c3.3-3,8.9-4.4,16-2c2.5,0.8,4.7,2.2,6.6,3.8c1.9,1.7,3.4,3.8,4.5,6.2
				c0.1,0.3,0.3,0.7,0.4,1c0.1,0.4,0.3,0.7,0.4,1c0.6,1.7,0.6,3.2,0.2,4.6c-0.5,1.3-1.4,2.5-2.8,3.4c-0.3,0.2-0.6,0.4-0.9,0.6
				c-0.3,0.2-0.6,0.4-0.9,0.6c-2.2,1.2-4.7,2-7.3,2.2c-2.5,0.2-5,0-7.5-0.9c-7.2-2.4-10.8-6.8-11.6-11.2c-0.3-1.7-0.2-3.5,0.3-5.1
				C46.1,64,47,62.6,48.3,61.4L48.3,61.4z"/>
			<path fill="#373435" d="M85.9,99.8c4.1,5.7,8.9,7.7,12.9,7.2c1.5-0.2,2.9-0.7,4.1-1.6c1.2-0.8,2.1-2,2.8-3.4
				c1.7-3.6,1.3-8.8-2.7-14.5c-1.4-2-3.2-3.6-5.2-4.7c-2.1-1.2-4.3-2-6.7-2.2c-0.3,0-0.7-0.1-1-0.1c-0.4,0-0.7,0-1,0
				c-1.4,0-2.6,0.3-3.5,0.9c-0.9,0.6-1.6,1.6-2,3.1c-0.1,0.3-0.2,0.7-0.3,1c-0.1,0.3-0.2,0.6-0.2,1c-0.5,2.3-0.5,4.7,0,7.1
				C83.5,95.7,84.4,97.8,85.9,99.8L85.9,99.8z M98.9,108.4c-4.4,0.5-9.8-1.6-14.2-7.7c-1.5-2.1-2.6-4.5-3.1-6.9
				c-0.5-2.5-0.5-5.1,0-7.6c0.1-0.4,0.2-0.7,0.3-1.1c0.1-0.3,0.2-0.7,0.3-1c0.5-1.7,1.4-3,2.5-3.8c1.2-0.8,2.6-1.2,4.3-1.1
				c0.4,0,0.7,0,1.1,0c0.4,0,0.7,0.1,1.1,0.1c2.5,0.3,5,1.1,7.2,2.4c2.1,1.3,4.1,3,5.6,5.1c4.4,6.1,4.8,11.9,2.9,15.9
				c-0.8,1.6-1.9,2.9-3.2,3.9C102.3,107.5,100.7,108.2,98.9,108.4L98.9,108.4z"/>
		</g>
		<path fill="#CCCCCC" d="M25.6,22.4h5.2c0.4,0,0.7,0,0.9,0.1c0.2,0.1,0.3,0.2,0.4,0.4c0.1,0.2,0.1,0.5,0.1,0.8s0,0.6-0.1,0.8
			C32,24.8,31.9,25,31.7,25c-0.2,0.1-0.6,0.2-1,0.2h-6.9c-0.9,0-1.4-0.2-1.6-0.7c-0.1-0.2-0.1-0.5-0.1-1V12.9c0-0.3,0-0.5,0-0.7
			c0-0.1,0.1-0.3,0.2-0.5c0.2-0.3,0.7-0.5,1.5-0.5c0.9,0,1.4,0.2,1.6,0.7c0.1,0.2,0.1,0.5,0.1,1L25.6,22.4L25.6,22.4z M33.1,20.2
			c0-1.5,0.5-2.8,1.6-3.8c1.1-1,2.3-1.5,3.7-1.5s2.6,0.5,3.6,1.5c1.1,1,1.6,2.2,1.6,3.8c0,1.1-0.3,2-0.8,2.8c-0.5,0.8-1.2,1.4-2,1.8
			c-0.8,0.4-1.6,0.6-2.4,0.6c-0.8,0-1.7-0.2-2.4-0.6c-0.8-0.4-1.5-1-2-1.8C33.4,22.1,33.1,21.2,33.1,20.2L33.1,20.2z M37.1,21.6
			c0.4,0.3,0.8,0.5,1.2,0.5c0.4,0,0.8-0.2,1.3-0.5c0.4-0.3,0.6-0.8,0.6-1.4c0-0.6-0.2-1.1-0.6-1.4c-0.4-0.3-0.8-0.5-1.3-0.5
			c-0.5,0-0.9,0.2-1.3,0.5c-0.4,0.3-0.6,0.8-0.6,1.4S36.7,21.3,37.1,21.6L37.1,21.6z M44.6,20.2c0-1.5,0.5-2.8,1.6-3.8
			c1.1-1,2.3-1.5,3.7-1.5c1.4,0,2.6,0.5,3.6,1.5c1.1,1,1.6,2.2,1.6,3.8c0,1.1-0.3,2-0.8,2.8c-0.5,0.8-1.2,1.4-2,1.8
			c-0.8,0.4-1.6,0.6-2.4,0.6c-0.8,0-1.7-0.2-2.4-0.6c-0.8-0.4-1.5-1-2-1.8C44.8,22.1,44.6,21.2,44.6,20.2L44.6,20.2z M48.6,21.6
			c0.4,0.3,0.8,0.5,1.2,0.5c0.4,0,0.8-0.2,1.3-0.5c0.4-0.3,0.6-0.8,0.6-1.4c0-0.6-0.2-1.1-0.6-1.4c-0.4-0.3-0.8-0.5-1.3-0.5
			c-0.5,0-0.9,0.2-1.3,0.5c-0.4,0.3-0.6,0.8-0.6,1.4S48.2,21.3,48.6,21.6L48.6,21.6z M62.2,20.2l2.5,2.1c0.3,0.3,0.5,0.5,0.6,0.6
			c0.1,0.1,0.1,0.3,0.1,0.4c0,0.3-0.2,0.7-0.6,1.2c-0.4,0.5-0.8,0.8-1.1,0.8c-0.3,0-0.7-0.2-1.2-0.6l-0.2-0.1
			c-0.3-0.2-0.7-0.7-1.4-1.3s-1.1-1-1.4-1.3v1.5c0,0.3,0,0.5,0,0.7c0,0.1-0.1,0.3-0.2,0.5c-0.2,0.3-0.7,0.5-1.5,0.5
			c-0.8,0-1.3-0.2-1.5-0.5c-0.1-0.2-0.1-0.4-0.2-0.5c0-0.1,0-0.4,0-0.7V12.1c0-0.3,0-0.5,0-0.7c0-0.1,0.1-0.3,0.2-0.5
			c0.2-0.3,0.7-0.5,1.5-0.5c0.6,0,1,0.1,1.3,0.3c0.2,0.2,0.3,0.5,0.3,0.8c0,0.1,0,0.3,0,0.5v6.1c0.2-0.2,0.6-0.5,1-1
			c0.5-0.5,0.8-0.8,1-1l0.2-0.2c0.4-0.3,0.8-0.5,1.1-0.5c0.3,0,0.7,0.3,1.1,0.8c0.4,0.5,0.6,0.9,0.6,1.2c0,0.3-0.2,0.6-0.7,1
			L62.2,20.2L62.2,20.2z M74.1,13.4c0,0.7-0.1,1.7-0.4,2.8C73.4,17.4,73,18,72.6,18c-0.5,0-0.8-0.6-1.1-1.7
			c-0.3-1.2-0.4-2.2-0.4-3.1c0-0.8,0.1-1.3,0.3-1.5c0.3-0.2,0.6-0.4,1.1-0.4c0.4,0,0.8,0,1,0.1c0.2,0.1,0.4,0.2,0.5,0.4
			C74.1,12.2,74.1,12.7,74.1,13.4L74.1,13.4z M80.9,15.2c1.3,0,2.3,0.5,3.2,1.5c0.8,1,1.3,2.2,1.3,3.6v3.4c0,0.3,0,0.5,0,0.7
			c0,0.1-0.1,0.3-0.2,0.5c-0.2,0.3-0.7,0.5-1.5,0.5c-0.9,0-1.4-0.2-1.6-0.7c-0.1-0.2-0.1-0.5-0.1-1v-3.4c0-0.5-0.1-0.9-0.4-1.2
			c-0.3-0.3-0.7-0.4-1.2-0.4c-0.5,0-0.9,0.2-1.2,0.5c-0.3,0.3-0.5,0.7-0.5,1.2v3.4c0,0.3,0,0.5,0,0.7c0,0.1-0.1,0.3-0.2,0.5
			c-0.2,0.3-0.7,0.5-1.5,0.5c-0.8,0-1.3-0.2-1.5-0.5c-0.1-0.2-0.1-0.4-0.2-0.5c0-0.1,0-0.4,0-0.7v-6.8c0-0.3,0-0.5,0-0.6
			c0-0.1,0.1-0.3,0.2-0.5c0.2-0.3,0.7-0.5,1.5-0.5c0.8,0,1.3,0.1,1.4,0.4c0.1,0.2,0.2,0.5,0.2,0.8c0.1-0.1,0.2-0.2,0.3-0.4
			c0.2-0.2,0.4-0.3,0.5-0.4C79.9,15.3,80.4,15.2,80.9,15.2L80.9,15.2z M88.7,13.4c0,0.7-0.1,1.7-0.4,2.8C88,17.4,87.6,18,87.2,18
			c-0.5,0-0.8-0.6-1.1-1.7c-0.3-1.2-0.4-2.2-0.4-3.1c0-0.8,0.1-1.3,0.3-1.5c0.3-0.2,0.6-0.4,1.1-0.4c0.4,0,0.8,0,1,0.1
			c0.2,0.1,0.4,0.2,0.5,0.4C88.6,12.2,88.7,12.7,88.7,13.4L88.7,13.4z M101.5,11c0.1-0.2,0.3-0.3,0.5-0.4c0.2-0.1,0.6-0.1,1-0.1
			c0.4,0,0.7,0,1,0.1c0.2,0.1,0.4,0.2,0.5,0.4c0.1,0.2,0.2,0.4,0.2,0.5c0,0.1,0,0.4,0,0.7v11.4c0,0.3,0,0.5,0,0.7
			c0,0.1-0.1,0.3-0.2,0.5c-0.2,0.3-0.7,0.5-1.6,0.5c-0.9,0-1.4-0.3-1.5-0.9c-0.5,0.6-1.3,0.9-2.2,0.9c-1.1,0-2.2-0.5-3.1-1.5
			c-0.9-1-1.4-2.2-1.4-3.5c0-1.3,0.5-2.5,1.4-3.5c0.9-1,2-1.5,3.1-1.5c0.9,0,1.7,0.3,2.2,1v-4c0-0.3,0-0.5,0-0.7
			C101.4,11.3,101.4,11.2,101.5,11L101.5,11z M98.4,21.4c0.3,0.3,0.7,0.5,1.2,0.5c0.5,0,0.9-0.2,1.2-0.5c0.3-0.3,0.5-0.7,0.5-1.1
			s-0.1-0.8-0.4-1.2c-0.3-0.4-0.7-0.5-1.2-0.5s-0.9,0.2-1.2,0.5c-0.3,0.3-0.5,0.7-0.5,1.2C97.9,20.6,98.1,21,98.4,21.4z M113,15.3
			c0.2,0.1,0.4,0.2,0.6,0.4c0.2,0.2,0.2,0.5,0.2,0.9s-0.1,0.9-0.4,1.3c-0.2,0.5-0.6,0.7-1,0.7c-0.2,0-0.4-0.1-0.7-0.2
			c-0.2-0.1-0.5-0.2-0.8-0.2c-0.3,0-0.7,0.1-1,0.4c-0.3,0.2-0.4,0.5-0.4,0.9v4c0,0.3,0,0.5,0,0.7c0,0.1-0.1,0.3-0.2,0.5
			c-0.2,0.3-0.7,0.5-1.5,0.5c-0.6,0-1-0.1-1.3-0.3c-0.2-0.2-0.3-0.5-0.3-0.8c0-0.1,0-0.3,0-0.6v-6.7c0-0.3,0-0.5,0-0.7
			c0-0.1,0.1-0.3,0.2-0.5c0.2-0.3,0.7-0.5,1.5-0.5c0.8,0,1.2,0.1,1.4,0.4c0.1,0.2,0.2,0.4,0.2,0.6c0.1-0.1,0.2-0.2,0.3-0.3
			c0.1-0.1,0.4-0.3,0.8-0.5c0.4-0.2,0.7-0.3,1-0.3c0.3,0,0.6,0,0.8,0C112.5,15.2,112.8,15.2,113,15.3L113,15.3z M120.9,16.2
			c0.1-0.7,0.6-1.1,1.5-1.1c0.5,0,0.9,0,1.1,0.1c0.2,0.1,0.4,0.2,0.5,0.4c0.1,0.2,0.2,0.4,0.2,0.5c0,0.1,0,0.4,0,0.7v6.7
			c0,0.3,0,0.5,0,0.7c0,0.1-0.1,0.3-0.2,0.5c-0.2,0.3-0.6,0.5-1.3,0.5c-0.7,0-1.2-0.1-1.4-0.3c-0.2-0.2-0.4-0.4-0.4-0.8
			c-0.5,0.7-1.3,1-2.4,1c-1.1,0-2.1-0.5-3.1-1.5c-0.9-1-1.4-2.2-1.4-3.5c0-1.3,0.5-2.5,1.4-3.5c0.9-1,2-1.5,3.1-1.5
			c0.4,0,0.8,0.1,1.2,0.2c0.4,0.2,0.6,0.3,0.7,0.4C120.7,16,120.8,16.1,120.9,16.2L120.9,16.2z M117.4,20.2c0,0.4,0.2,0.8,0.5,1.1
			c0.3,0.3,0.7,0.5,1.2,0.5c0.5,0,0.9-0.2,1.2-0.5c0.3-0.3,0.5-0.7,0.5-1.1s-0.1-0.8-0.4-1.2c-0.3-0.4-0.7-0.5-1.2-0.5
			c-0.5,0-0.9,0.2-1.2,0.5C117.5,19.4,117.4,19.8,117.4,20.2z M138.6,15.3c0.8,0.4,1.2,0.8,1.2,1.3c0,0.2-0.1,0.6-0.3,1
			c-0.2,0.5-0.4,0.9-0.5,1.3l-2.1,5.1c-0.2,0.6-0.5,1-1,1.2c-0.2,0.1-0.4,0.1-0.7,0.1c-0.3,0-0.6-0.1-0.8-0.3
			c-0.3-0.2-0.5-0.4-0.5-0.7l-0.2-0.3c-0.1-0.3-0.5-1.2-1.1-3c-0.1,0.3-0.3,0.8-0.6,1.5c-0.2,0.7-0.4,1.1-0.5,1.3
			c-0.1,0.2-0.1,0.3-0.1,0.3c0,0.1-0.1,0.2-0.2,0.3c-0.1,0.2-0.2,0.3-0.3,0.4c-0.3,0.3-0.7,0.5-1,0.5c-0.4,0-0.7-0.1-1-0.3
			c-0.3-0.2-0.4-0.4-0.5-0.7l-2.9-7c-0.1-0.4-0.2-0.6-0.2-0.7c0-0.5,0.4-0.9,1.1-1.2c0.4-0.2,0.7-0.2,1-0.2c0.3,0,0.5,0.1,0.6,0.2
			c0.2,0.1,0.3,0.2,0.3,0.3c0.1,0.1,0.1,0.2,0.2,0.3c0.2,0.5,0.7,1.7,1.4,3.6l1.1-3.1c0.1-0.3,0.2-0.5,0.4-0.7
			c0.4-0.4,0.7-0.6,1.1-0.6c0.4,0,0.7,0.1,1,0.3c0.3,0.2,0.5,0.4,0.6,0.6l0.2,0.3c0.6,1.8,1,2.8,1.1,3.1l1.2-3.2
			c0.3-0.8,0.8-1.2,1.4-1.2C138.1,15.1,138.3,15.1,138.6,15.3L138.6,15.3z"/>
	</g>
</g>
</svg>
