<?xml version="1.0" encoding="utf-8"?>
<!-- Generator: Adobe Illustrator 22.0.1, SVG Export Plug-In . SVG Version: 6.00 Build 0)  -->
<svg version="1.1" id="Layer_1" xmlns="http://www.w3.org/2000/svg" xmlns:xlink="http://www.w3.org/1999/xlink" x="0px" y="0px"
	 viewBox="0 0 288 122.4" enable-background="new 0 0 288 122.4" xml:space="preserve">
<g id="Layer_x0020_1">
	<g id="_206080772384">
		<polygon fill="#FFFFFF" points="0,0 288,0 288,122.4 0,122.4 		"/>
		<path fill="#CCCCCC" d="M188.7,16.4h3.8c0.3,0,0.5,0,0.7,0.1c0.1,0.1,0.2,0.2,0.3,0.3s0.1,0.3,0.1,0.6c0,0.2,0,0.4-0.1,0.6
			c0,0.1-0.1,0.3-0.2,0.3c-0.2,0.1-0.4,0.1-0.7,0.1h-5c-0.7,0-1-0.2-1.1-0.5c-0.1-0.1-0.1-0.4-0.1-0.7V9.5c0-0.2,0-0.4,0-0.5
			c0-0.1,0.1-0.2,0.1-0.4c0.1-0.3,0.5-0.4,1.1-0.4c0.7,0,1,0.2,1.2,0.5c0,0.2,0.1,0.4,0.1,0.7L188.7,16.4L188.7,16.4z M194.2,14.8
			c0-1.1,0.4-2,1.2-2.8c0.8-0.7,1.7-1.1,2.7-1.1s1.9,0.4,2.7,1.1s1.2,1.6,1.2,2.8c0,0.8-0.2,1.5-0.6,2.1s-0.9,1-1.5,1.3
			s-1.2,0.4-1.8,0.4c-0.6,0-1.2-0.2-1.8-0.5c-0.6-0.3-1.1-0.8-1.5-1.3C194.4,16.2,194.2,15.6,194.2,14.8L194.2,14.8z M197.1,15.8
			c0.3,0.2,0.6,0.3,0.9,0.3c0.3,0,0.6-0.1,0.9-0.3c0.3-0.2,0.5-0.6,0.5-1s-0.1-0.8-0.4-1s-0.6-0.3-0.9-0.3c-0.3,0-0.6,0.1-0.9,0.3
			s-0.4,0.6-0.4,1C196.7,15.2,196.8,15.6,197.1,15.8L197.1,15.8z M202.6,14.8c0-1.1,0.4-2,1.2-2.8c0.8-0.7,1.7-1.1,2.7-1.1
			s1.9,0.4,2.7,1.1s1.2,1.6,1.2,2.8c0,0.8-0.2,1.5-0.6,2.1c-0.4,0.6-0.9,1-1.5,1.3s-1.2,0.4-1.8,0.4c-0.6,0-1.2-0.2-1.8-0.5
			c-0.6-0.3-1.1-0.8-1.5-1.3C202.8,16.2,202.6,15.6,202.6,14.8L202.6,14.8z M205.5,15.8c0.3,0.2,0.6,0.3,0.9,0.3
			c0.3,0,0.6-0.1,0.9-0.3c0.3-0.2,0.5-0.6,0.5-1s-0.1-0.8-0.4-1s-0.6-0.3-0.9-0.3c-0.3,0-0.6,0.1-0.9,0.3s-0.4,0.6-0.4,1
			C205.1,15.2,205.2,15.6,205.5,15.8L205.5,15.8z M215.5,14.8l1.9,1.5c0.2,0.2,0.4,0.3,0.4,0.4c0.1,0.1,0.1,0.2,0.1,0.3
			c0,0.2-0.1,0.5-0.4,0.9c-0.3,0.4-0.6,0.6-0.8,0.6c-0.2,0-0.5-0.1-0.9-0.4l-0.1-0.1c-0.2-0.2-0.5-0.5-1-0.9c-0.4-0.4-0.8-0.8-1-0.9
			v1.1c0,0.2,0,0.4,0,0.5c0,0.1-0.1,0.2-0.1,0.4c-0.1,0.2-0.5,0.4-1.1,0.4c-0.6,0-0.9-0.1-1.1-0.4c-0.1-0.1-0.1-0.3-0.1-0.4
			c0-0.1,0-0.3,0-0.5V8.9c0-0.2,0-0.4,0-0.5c0-0.1,0.1-0.2,0.1-0.4c0.1-0.3,0.5-0.4,1.1-0.4c0.4,0,0.8,0.1,1,0.2
			c0.2,0.1,0.2,0.3,0.3,0.6c0,0.1,0,0.2,0,0.4v4.4c0.2-0.1,0.4-0.4,0.8-0.7c0.3-0.3,0.6-0.6,0.8-0.7l0.2-0.1
			c0.3-0.3,0.6-0.4,0.8-0.4s0.5,0.2,0.8,0.6c0.3,0.4,0.5,0.7,0.5,0.9c0,0.2-0.2,0.5-0.5,0.8L215.5,14.8L215.5,14.8z M224.3,9.8
			c0,0.5-0.1,1.2-0.3,2.1c-0.2,0.8-0.5,1.3-0.8,1.3c-0.3,0-0.6-0.4-0.8-1.3c-0.2-0.8-0.3-1.6-0.3-2.3c0-0.6,0.1-1,0.2-1.1
			c0.2-0.2,0.5-0.3,0.8-0.3s0.6,0,0.7,0.1c0.2,0.1,0.3,0.2,0.3,0.3C224.2,8.9,224.3,9.3,224.3,9.8L224.3,9.8z M229.3,11.1
			c0.9,0,1.7,0.4,2.3,1.1c0.6,0.7,0.9,1.6,0.9,2.6v2.5c0,0.2,0,0.4,0,0.5c0,0.1-0.1,0.2-0.1,0.4c-0.1,0.3-0.5,0.4-1.1,0.4
			c-0.7,0-1-0.2-1.1-0.5c-0.1-0.2-0.1-0.4-0.1-0.7v-2.5c0-0.4-0.1-0.7-0.3-0.9s-0.5-0.3-0.9-0.3s-0.7,0.1-0.9,0.3
			c-0.2,0.2-0.3,0.5-0.3,0.9v2.5c0,0.2,0,0.4,0,0.5c0,0.1-0.1,0.2-0.1,0.4c-0.1,0.3-0.5,0.4-1.1,0.4c-0.6,0-0.9-0.1-1.1-0.4
			c-0.1-0.1-0.1-0.3-0.1-0.4c0-0.1,0-0.3,0-0.5v-5c0-0.2,0-0.4,0-0.5c0-0.1,0.1-0.2,0.1-0.4c0.1-0.2,0.5-0.3,1.1-0.3
			c0.6,0,0.9,0.1,1,0.3c0.1,0.2,0.1,0.3,0.1,0.6c0-0.1,0.1-0.2,0.3-0.3s0.3-0.2,0.4-0.3C228.5,11.2,228.9,11.1,229.3,11.1
			L229.3,11.1z M234.9,9.8c0,0.5-0.1,1.2-0.3,2.1c-0.2,0.8-0.5,1.3-0.8,1.3c-0.3,0-0.6-0.4-0.8-1.3c-0.2-0.8-0.3-1.6-0.3-2.3
			c0-0.6,0.1-1,0.2-1.1c0.2-0.2,0.5-0.3,0.8-0.3s0.6,0,0.7,0.1c0.2,0.1,0.3,0.2,0.3,0.3C234.9,8.9,234.9,9.3,234.9,9.8L234.9,9.8z
			 M244.3,8c0.1-0.1,0.2-0.2,0.4-0.3c0.2-0.1,0.4-0.1,0.7-0.1s0.5,0,0.7,0.1c0.2,0.1,0.3,0.2,0.4,0.3s0.1,0.3,0.1,0.4s0,0.3,0,0.5
			v8.4c0,0.2,0,0.4,0,0.5c0,0.1-0.1,0.2-0.1,0.4c-0.1,0.3-0.5,0.4-1.2,0.4c-0.6,0-1-0.2-1.1-0.7c-0.4,0.4-0.9,0.7-1.6,0.7
			c-0.8,0-1.6-0.4-2.3-1.1c-0.7-0.7-1-1.6-1-2.6c0-1,0.3-1.8,1-2.6c0.7-0.7,1.5-1.1,2.3-1.1c0.7,0,1.2,0.2,1.6,0.7V8.9
			c0-0.2,0-0.4,0-0.5S244.3,8.2,244.3,8L244.3,8z M242.1,15.6c0.2,0.3,0.5,0.4,0.9,0.4c0.3,0,0.6-0.1,0.9-0.4
			c0.2-0.3,0.3-0.5,0.3-0.8s-0.1-0.6-0.3-0.8c-0.2-0.3-0.5-0.4-0.9-0.4c-0.4,0-0.7,0.1-0.9,0.4c-0.2,0.3-0.3,0.5-0.3,0.8
			S241.8,15.4,242.1,15.6L242.1,15.6z M252.8,11.2c0.2,0.1,0.3,0.2,0.4,0.3c0.1,0.1,0.2,0.4,0.2,0.7s-0.1,0.6-0.3,1
			c-0.2,0.4-0.4,0.5-0.8,0.5c-0.2,0-0.3,0-0.5-0.1s-0.4-0.1-0.6-0.1s-0.5,0.1-0.7,0.3c-0.2,0.2-0.3,0.4-0.3,0.6v2.9
			c0,0.2,0,0.4,0,0.5c0,0.1-0.1,0.2-0.1,0.4c-0.1,0.2-0.5,0.4-1.1,0.4c-0.4,0-0.8-0.1-1-0.2c-0.1-0.1-0.2-0.3-0.3-0.6
			c0-0.1,0-0.2,0-0.4v-4.9c0-0.2,0-0.4,0-0.5c0-0.1,0.1-0.2,0.1-0.4c0.1-0.3,0.5-0.4,1.1-0.4c0.6,0,0.9,0.1,1,0.3
			c0.1,0.1,0.2,0.3,0.2,0.5c0-0.1,0.1-0.1,0.2-0.2s0.3-0.2,0.6-0.4c0.3-0.2,0.5-0.2,0.8-0.2c0.2,0,0.4,0,0.6,0
			C252.4,11.1,252.6,11.1,252.8,11.2L252.8,11.2z M258.5,11.9c0.1-0.5,0.4-0.8,1.1-0.8c0.4,0,0.6,0,0.8,0.1c0.2,0.1,0.3,0.2,0.4,0.3
			c0.1,0.1,0.1,0.3,0.1,0.4c0,0.1,0,0.3,0,0.5v4.9c0,0.2,0,0.4,0,0.5c0,0.1-0.1,0.2-0.1,0.4c-0.1,0.2-0.5,0.4-1,0.4
			c-0.5,0-0.8-0.1-1-0.2c-0.2-0.1-0.3-0.3-0.3-0.6c-0.3,0.5-0.9,0.7-1.7,0.7c-0.8,0-1.6-0.4-2.2-1.1c-0.7-0.7-1-1.6-1-2.6
			s0.3-1.8,1-2.6c0.7-0.7,1.5-1.1,2.3-1.1c0.3,0,0.6,0.1,0.9,0.2c0.3,0.1,0.4,0.2,0.5,0.3C258.4,11.7,258.5,11.8,258.5,11.9
			L258.5,11.9z M256,14.8c0,0.3,0.1,0.6,0.4,0.8c0.2,0.2,0.5,0.4,0.9,0.4s0.6-0.1,0.9-0.4c0.2-0.3,0.3-0.5,0.3-0.8
			c0-0.3-0.1-0.6-0.3-0.8c-0.2-0.3-0.5-0.4-0.9-0.4s-0.7,0.1-0.9,0.4C256.1,14.2,256,14.5,256,14.8L256,14.8z M271.5,11.2
			c0.6,0.3,0.9,0.6,0.9,1c0,0.2-0.1,0.4-0.2,0.8s-0.3,0.7-0.4,0.9l-1.5,3.8c-0.1,0.4-0.4,0.7-0.7,0.9c-0.1,0.1-0.3,0.1-0.5,0.1
			c-0.2,0-0.4-0.1-0.6-0.2c-0.2-0.2-0.3-0.3-0.4-0.5l-0.1-0.2c-0.1-0.2-0.3-0.9-0.8-2.2c-0.1,0.2-0.2,0.6-0.4,1.1
			c-0.2,0.5-0.3,0.8-0.3,1s-0.1,0.2-0.1,0.3c0,0-0.1,0.1-0.1,0.2c-0.1,0.1-0.1,0.2-0.2,0.3c-0.2,0.2-0.5,0.3-0.8,0.3
			c-0.3,0-0.5-0.1-0.7-0.2c-0.2-0.2-0.3-0.3-0.4-0.5l-2.1-5.2c-0.1-0.3-0.1-0.5-0.1-0.5c0-0.4,0.3-0.7,0.8-0.9
			c0.3-0.1,0.5-0.2,0.7-0.2c0.2,0,0.3,0,0.5,0.1c0.1,0.1,0.2,0.2,0.2,0.2c0,0.1,0.1,0.2,0.1,0.2c0.2,0.4,0.5,1.3,1,2.6l0.8-2.3
			c0.1-0.2,0.2-0.3,0.3-0.5c0.3-0.3,0.5-0.4,0.8-0.4c0.3,0,0.5,0.1,0.7,0.2c0.2,0.1,0.3,0.3,0.4,0.4l0.1,0.2
			c0.5,1.3,0.7,2.1,0.8,2.2l0.9-2.3c0.2-0.6,0.6-0.9,1-0.9C271.1,11,271.3,11.1,271.5,11.2L271.5,11.2z"/>
		<g>
			<path fill="#FFFF00" d="M30.3,27.9c0.7,2,0.1,3.4-1.5,4.5c-0.4,0.3-0.7,0.5-1.1,0.7c-0.1,0.1-0.3,0.1-0.4,0.2
				c0.1,0.1,0.2,0.3,0.2,0.4c0.3-0.1,0.6-0.1,0.9-0.1c0.4,0,0.9-0.1,1.3-0.1c2.1,0,3.3,1,3.9,2.8c0.1,0.4,0.2,0.8,0.3,1.1
				c0.2,0,0.4,0,0.6,0c0-0.1,0-0.3,0.1-0.4c0.1-0.4,0.2-0.9,0.3-1.3c0.6-2,1.9-2.8,3.9-2.8c0.3,0,0.7,0,1,0c0.1-0.2,0.2-0.4,0.2-0.7
				c-0.1,0-0.2-0.1-0.2-0.1c-0.4-0.2-0.7-0.5-1.1-0.7c-1.7-1.2-2.1-2.7-1.5-4.6c0.1-0.4,0.3-0.8,0.5-1.2c0-0.1,0.1-0.2,0.1-0.2
				c-0.1-0.1-0.3-0.2-0.4-0.3c-0.2,0.2-0.4,0.4-0.6,0.6c-0.3,0.3-0.7,0.6-1,0.8c-1.7,1.3-3.2,1.2-4.8,0c-0.4-0.3-0.7-0.5-1-0.8
				c-0.2-0.2-0.3-0.3-0.5-0.5c-0.1,0.1-0.2,0.1-0.3,0.2c0.2,0.4,0.4,0.7,0.6,1.1C30,27.1,30.1,27.5,30.3,27.9L30.3,27.9z"/>
			<path fill="#33CC33" d="M40.4,17.6c0-12.7-14.1-12.7-14.1,0c0,3.3,1.4,6.2,3.6,8.2c0.3,0.3,0.7,0.6,1,0.8c1.6,1.2,3.1,1.3,4.8,0
				c0.3-0.3,0.7-0.5,1-0.8C39,23.8,40.4,20.9,40.4,17.6L40.4,17.6z"/>
			<path fill="#373435" d="M40,17.6c0-4.4-1.7-7.2-3.9-8.4c-0.8-0.5-1.8-0.7-2.7-0.7c-0.9,0-1.8,0.2-2.7,0.7c-2.2,1.2-3.9,4-3.9,8.4
				c0,1.5,0.3,3,0.9,4.3c0.6,1.4,1.5,2.6,2.6,3.6c0.2,0.1,0.3,0.3,0.5,0.4c0.2,0.1,0.3,0.3,0.5,0.4l0,0c0.7,0.5,1.4,0.8,2.1,0.8
				c0.7,0,1.4-0.3,2.2-0.8c0.2-0.1,0.3-0.3,0.5-0.4c0.2-0.1,0.3-0.3,0.5-0.4c1.1-1,2-2.2,2.6-3.6C39.7,20.6,40,19.1,40,17.6L40,17.6
				z M36.5,8.4c2.5,1.3,4.4,4.4,4.4,9.2c0,1.7-0.3,3.2-1,4.7c-0.7,1.5-1.6,2.8-2.8,3.9c-0.2,0.2-0.3,0.3-0.5,0.4
				c-0.2,0.1-0.4,0.3-0.5,0.4h0c-0.9,0.7-1.8,1-2.7,1c-0.9,0-1.8-0.4-2.6-1v0c-0.2-0.1-0.4-0.3-0.5-0.4c-0.2-0.1-0.4-0.3-0.5-0.4
				c-1.2-1.1-2.1-2.4-2.8-3.9c-0.6-1.4-1-3-1-4.7c0-4.8,1.9-7.8,4.4-9.2c1-0.5,2-0.8,3.1-0.8C34.4,7.6,35.5,7.9,36.5,8.4z"/>
			<path fill="#FF00FF" d="M48.7,33.2c12.1-3.9,7.8-17.3-4.3-13.4c-3.1,1-5.5,3.2-6.7,6c-0.2,0.4-0.3,0.8-0.5,1.2
				c-0.6,1.8-0.2,3.4,1.5,4.6c0.4,0.3,0.7,0.5,1.1,0.7C42.4,33.8,45.6,34.2,48.7,33.2L48.7,33.2z"/>
			<path fill="#373435" d="M48.6,32.8c4.2-1.3,6.3-3.9,6.8-6.3c0.2-0.9,0.1-1.9-0.2-2.8c-0.3-0.9-0.8-1.7-1.5-2.3
				c-1.8-1.7-5-2.5-9.2-1.2c-1.5,0.5-2.8,1.2-3.8,2.2c-1.1,1-2,2.2-2.6,3.6c-0.1,0.2-0.2,0.4-0.2,0.6c-0.1,0.2-0.1,0.4-0.2,0.6
				c-0.3,0.8-0.3,1.6-0.1,2.3c0.2,0.7,0.7,1.3,1.4,1.8c0.2,0.1,0.4,0.2,0.5,0.4c0.2,0.1,0.4,0.2,0.5,0.3c1.3,0.7,2.7,1.2,4.2,1.3
				C45.7,33.4,47.1,33.3,48.6,32.8L48.6,32.8z M56.2,26.6c-0.5,2.8-2.8,5.5-7.4,7c-1.6,0.5-3.2,0.7-4.7,0.5
				c-1.6-0.2-3.2-0.7-4.6-1.5c-0.2-0.1-0.4-0.2-0.6-0.4c-0.2-0.1-0.4-0.3-0.6-0.4c-0.9-0.7-1.5-1.4-1.8-2.3
				c-0.3-0.8-0.2-1.8,0.1-2.8c0.1-0.2,0.1-0.4,0.2-0.6c0.1-0.2,0.2-0.4,0.3-0.6c0.7-1.5,1.6-2.8,2.8-3.8c1.2-1,2.6-1.9,4.1-2.4
				c4.5-1.5,8-0.6,10.1,1.4c0.8,0.8,1.4,1.7,1.7,2.7C56.4,24.4,56.4,25.5,56.2,26.6L56.2,26.6z"/>
			<path fill="#FFCC00" d="M36.5,45.9c7.4,10.3,18.8,2.1,11.4-8.2c-1.9-2.6-4.8-4.2-7.8-4.6c-0.4-0.1-0.9-0.1-1.3-0.1
				c-2,0-3.3,0.8-3.9,2.8c-0.1,0.4-0.3,0.8-0.3,1.3C34,40.1,34.5,43.3,36.5,45.9L36.5,45.9z"/>
			<path fill="#0048FF" d="M20.6,38.1c-7.5,10.2,3.8,18.6,11.3,8.3c1.9-2.6,2.5-5.8,2-8.8c-0.1-0.4-0.2-0.9-0.3-1.3
				c-0.6-1.9-1.8-2.9-3.9-2.8c-0.4,0-0.9,0-1.3,0.1C25.4,34,22.5,35.5,20.6,38.1L20.6,38.1z"/>
			<path fill="#373435" d="M20.9,38.4c-2.6,3.5-2.9,6.8-1.8,9.1c0.4,0.9,1,1.6,1.7,2.1c0.7,0.5,1.6,0.9,2.6,1
				c2.5,0.3,5.5-0.9,8.1-4.4c0.9-1.2,1.5-2.6,1.8-4c0.3-1.5,0.3-3,0.1-4.4c0-0.2-0.1-0.4-0.1-0.6c-0.1-0.2-0.1-0.4-0.2-0.6
				c-0.3-0.8-0.7-1.5-1.2-1.9c-0.6-0.4-1.3-0.6-2.2-0.6c-0.2,0-0.4,0-0.6,0c-0.2,0-0.4,0-0.6,0c-1.5,0.2-2.9,0.6-4.2,1.4
				C23,36.1,21.8,37.1,20.9,38.4L20.9,38.4z M18.3,47.8c-1.2-2.5-0.9-6.1,1.9-10c1-1.3,2.2-2.4,3.6-3.2c1.4-0.8,3-1.3,4.5-1.5h0
				c0.2,0,0.5,0,0.7-0.1c0.2,0,0.4,0,0.7,0c1.1,0,2.1,0.3,2.8,0.8c0.7,0.5,1.2,1.3,1.5,2.3c0.1,0.2,0.1,0.4,0.2,0.7
				c0.1,0.2,0.1,0.5,0.2,0.7c0.3,1.6,0.3,3.2-0.1,4.8c-0.3,1.5-1,3-2,4.3c-2.8,3.8-6.2,5.2-9,4.8c-1.1-0.1-2.1-0.6-3-1.2
				C19.5,49.7,18.8,48.8,18.3,47.8L18.3,47.8z"/>
			<path fill="#FF0000" d="M23.1,20.6c-12-4-16.5,9.3-4.4,13.4c3.1,1,6.3,0.6,9-0.8c0.4-0.2,0.8-0.5,1.1-0.7
				c1.6-1.1,2.2-2.6,1.5-4.5c-0.1-0.4-0.3-0.8-0.5-1.2C28.5,23.9,26.2,21.7,23.1,20.6L23.1,20.6z"/>
			<path fill="#373435" d="M23,21c-4.2-1.4-7.4-0.6-9.2,1.1c-0.7,0.7-1.2,1.4-1.5,2.3c-0.3,0.9-0.4,1.8-0.2,2.8
				c0.5,2.5,2.6,5,6.7,6.4c1.5,0.5,2.9,0.6,4.4,0.5c1.5-0.1,2.9-0.6,4.2-1.3c0.2-0.1,0.4-0.2,0.5-0.3c0.2-0.1,0.3-0.2,0.5-0.4
				c0.7-0.5,1.2-1.1,1.5-1.7c0.2-0.7,0.2-1.4-0.1-2.3c-0.1-0.2-0.1-0.4-0.2-0.6c-0.1-0.2-0.2-0.4-0.2-0.6c-0.6-1.4-1.5-2.6-2.6-3.6
				C25.7,22.3,24.4,21.5,23,21L23,21z M13.2,21.5c2.1-1.9,5.6-2.8,10.1-1.3c1.6,0.5,3,1.4,4.1,2.4c1.2,1.1,2.2,2.4,2.8,3.9
				c0.1,0.2,0.2,0.4,0.3,0.6c0.1,0.2,0.2,0.4,0.2,0.6c0.4,1.1,0.4,2,0.1,2.9c-0.3,0.8-0.9,1.6-1.8,2.2c-0.2,0.1-0.4,0.2-0.6,0.4
				c-0.2,0.1-0.4,0.2-0.6,0.4c-1.4,0.8-3,1.3-4.6,1.4c-1.6,0.1-3.2,0-4.7-0.5c-4.5-1.5-6.8-4.3-7.3-7c-0.2-1.1-0.1-2.2,0.2-3.2
				C11.8,23.2,12.4,22.2,13.2,21.5L13.2,21.5z"/>
			<path fill="#373435" d="M36.8,45.7c2.6,3.6,5.6,4.8,8.1,4.5c1-0.1,1.8-0.5,2.6-1c0.7-0.5,1.3-1.3,1.8-2.1
				c1.1-2.3,0.8-5.6-1.7-9.1c-0.9-1.2-2-2.2-3.3-3c-1.3-0.8-2.7-1.2-4.2-1.4c-0.2,0-0.4,0-0.6-0.1c-0.2,0-0.4,0-0.6,0
				c-0.9,0-1.6,0.2-2.2,0.6c-0.6,0.4-1,1-1.3,1.9c-0.1,0.2-0.1,0.4-0.2,0.6C35.1,36.8,35,37,35,37.2c-0.3,1.5-0.3,3,0,4.4
				C35.3,43,35.9,44.4,36.8,45.7L36.8,45.7z M45,51c-2.8,0.3-6.1-1-8.9-4.9c-1-1.3-1.6-2.8-1.9-4.4c-0.3-1.6-0.3-3.2,0-4.8
				c0-0.2,0.1-0.4,0.2-0.7c0.1-0.2,0.1-0.4,0.2-0.6c0.3-1.1,0.9-1.9,1.6-2.4c0.7-0.5,1.6-0.7,2.7-0.7c0.2,0,0.5,0,0.7,0
				c0.2,0,0.5,0,0.7,0.1c1.6,0.2,3.1,0.7,4.5,1.5c1.3,0.8,2.6,1.9,3.5,3.2c2.8,3.9,3,7.5,1.8,10c-0.5,1-1.2,1.8-2,2.5
				C47.1,50.5,46.1,50.9,45,51L45,51z"/>
		</g>
	</g>
</g>
</svg>
