<?xml version="1.0" encoding="utf-8"?>
<!-- Generator: Adobe Illustrator 22.0.1, SVG Export Plug-In . SVG Version: 6.00 Build 0)  -->
<svg version="1.1" id="Layer_1" xmlns="http://www.w3.org/2000/svg" xmlns:xlink="http://www.w3.org/1999/xlink" x="0px" y="0px"
	 viewBox="0 0 288 122.4" enable-background="new 0 0 288 122.4" xml:space="preserve">
<g id="Layer_x0020_1">
	<g id="_206080760608">
		<g>
			<polygon fill="#FFFFFF" points="0,0 288,0 288,122.4 0,122.4 			"/>
			<path fill="#CCCCCC" d="M191.9,16.4h3.8c0.3,0,0.5,0,0.7,0.1c0.1,0.1,0.2,0.2,0.3,0.3c0,0.1,0.1,0.3,0.1,0.6c0,0.2,0,0.4-0.1,0.6
				c0,0.1-0.1,0.3-0.2,0.3c-0.2,0.1-0.4,0.1-0.7,0.1h-5c-0.7,0-1-0.2-1.1-0.5c-0.1-0.1-0.1-0.4-0.1-0.7V9.5c0-0.2,0-0.4,0-0.5
				c0-0.1,0.1-0.2,0.1-0.4c0.1-0.3,0.5-0.4,1.1-0.4c0.7,0,1,0.2,1.2,0.5c0,0.2,0.1,0.4,0.1,0.7L191.9,16.4L191.9,16.4z M197.4,14.8
				c0-1.1,0.4-2,1.2-2.8c0.8-0.7,1.7-1.1,2.7-1.1c1,0,1.9,0.4,2.7,1.1s1.2,1.6,1.2,2.8c0,0.8-0.2,1.5-0.6,2.1s-0.9,1-1.5,1.3
				s-1.2,0.4-1.8,0.4c-0.6,0-1.2-0.2-1.8-0.5c-0.6-0.3-1.1-0.8-1.5-1.3C197.6,16.2,197.4,15.6,197.4,14.8L197.4,14.8z M200.3,15.8
				c0.3,0.2,0.6,0.3,0.9,0.3c0.3,0,0.6-0.1,0.9-0.3c0.3-0.2,0.5-0.6,0.5-1s-0.1-0.8-0.4-1c-0.3-0.2-0.6-0.3-0.9-0.3
				c-0.3,0-0.6,0.1-0.9,0.3c-0.3,0.2-0.4,0.6-0.4,1C199.9,15.2,200,15.6,200.3,15.8L200.3,15.8z M205.8,14.8c0-1.1,0.4-2,1.2-2.8
				c0.8-0.7,1.7-1.1,2.7-1.1c1,0,1.9,0.4,2.7,1.1s1.2,1.6,1.2,2.8c0,0.8-0.2,1.5-0.6,2.1s-0.9,1-1.5,1.3s-1.2,0.4-1.8,0.4
				c-0.6,0-1.2-0.2-1.8-0.5c-0.6-0.3-1.1-0.8-1.5-1.3C206,16.2,205.8,15.6,205.8,14.8L205.8,14.8z M208.7,15.8
				c0.3,0.2,0.6,0.3,0.9,0.3s0.6-0.1,0.9-0.3c0.3-0.2,0.5-0.6,0.5-1s-0.1-0.8-0.4-1s-0.6-0.3-0.9-0.3c-0.3,0-0.6,0.1-0.9,0.3
				c-0.3,0.2-0.4,0.6-0.4,1C208.3,15.2,208.4,15.6,208.7,15.8L208.7,15.8z M218.7,14.8l1.9,1.5c0.2,0.2,0.4,0.3,0.4,0.4
				c0.1,0.1,0.1,0.2,0.1,0.3c0,0.2-0.1,0.5-0.4,0.9c-0.3,0.4-0.6,0.6-0.8,0.6c-0.2,0-0.5-0.1-0.9-0.4l-0.1-0.1
				c-0.2-0.2-0.5-0.5-1-0.9c-0.4-0.4-0.8-0.8-1-0.9v1.1c0,0.2,0,0.4,0,0.5c0,0.1-0.1,0.2-0.1,0.4c-0.1,0.2-0.5,0.4-1.1,0.4
				c-0.6,0-0.9-0.1-1.1-0.4c-0.1-0.1-0.1-0.3-0.1-0.4c0-0.1,0-0.3,0-0.5V8.9c0-0.2,0-0.4,0-0.5c0-0.1,0.1-0.2,0.1-0.4
				c0.1-0.3,0.5-0.4,1.1-0.4c0.4,0,0.8,0.1,1,0.2c0.2,0.1,0.2,0.3,0.3,0.6c0,0.1,0,0.2,0,0.4v4.4c0.2-0.1,0.4-0.4,0.8-0.7
				c0.3-0.3,0.6-0.6,0.8-0.7l0.2-0.1c0.3-0.3,0.6-0.4,0.8-0.4c0.2,0,0.5,0.2,0.8,0.6c0.3,0.4,0.5,0.7,0.5,0.9c0,0.2-0.2,0.5-0.5,0.8
				L218.7,14.8L218.7,14.8z M227.4,9.8c0,0.5-0.1,1.2-0.3,2.1c-0.2,0.8-0.5,1.3-0.8,1.3c-0.3,0-0.6-0.4-0.8-1.3
				c-0.2-0.8-0.3-1.6-0.3-2.3c0-0.6,0.1-1,0.2-1.1c0.2-0.2,0.5-0.3,0.8-0.3s0.6,0,0.7,0.1c0.2,0.1,0.3,0.2,0.3,0.3
				C227.4,8.9,227.4,9.3,227.4,9.8L227.4,9.8z M232.5,11.1c0.9,0,1.7,0.4,2.3,1.1c0.6,0.7,0.9,1.6,0.9,2.6v2.5c0,0.2,0,0.4,0,0.5
				c0,0.1-0.1,0.2-0.1,0.4c-0.1,0.3-0.5,0.4-1.1,0.4c-0.7,0-1-0.2-1.1-0.5c-0.1-0.2-0.1-0.4-0.1-0.7v-2.5c0-0.4-0.1-0.7-0.3-0.9
				s-0.5-0.3-0.9-0.3c-0.4,0-0.7,0.1-0.9,0.3c-0.2,0.2-0.3,0.5-0.3,0.9v2.5c0,0.2,0,0.4,0,0.5c0,0.1-0.1,0.2-0.1,0.4
				c-0.1,0.3-0.5,0.4-1.1,0.4c-0.6,0-0.9-0.1-1.1-0.4c-0.1-0.1-0.1-0.3-0.1-0.4c0-0.1,0-0.3,0-0.5v-5c0-0.2,0-0.4,0-0.5
				c0-0.1,0.1-0.2,0.1-0.4c0.1-0.2,0.5-0.3,1.1-0.3c0.6,0,0.9,0.1,1,0.3c0.1,0.2,0.1,0.3,0.1,0.6c0-0.1,0.1-0.2,0.3-0.3
				s0.3-0.2,0.4-0.3C231.7,11.2,232.1,11.1,232.5,11.1L232.5,11.1z M238.1,9.8c0,0.5-0.1,1.2-0.3,2.1c-0.2,0.8-0.5,1.3-0.8,1.3
				c-0.3,0-0.6-0.4-0.8-1.3c-0.2-0.8-0.3-1.6-0.3-2.3c0-0.6,0.1-1,0.2-1.1c0.2-0.2,0.5-0.3,0.8-0.3s0.6,0,0.7,0.1
				c0.2,0.1,0.3,0.2,0.3,0.3C238.1,8.9,238.1,9.3,238.1,9.8L238.1,9.8z M243.3,8.2h7.8c0.3,0,0.5,0,0.7,0.1c0.1,0.1,0.2,0.2,0.3,0.3
				s0.1,0.3,0.1,0.6s0,0.4-0.1,0.6c0,0.1-0.1,0.2-0.2,0.3c-0.2,0.1-0.4,0.1-0.7,0.1h-2.7v7c0,0.2,0,0.4,0,0.5c0,0.1-0.1,0.2-0.1,0.4
				s-0.2,0.2-0.4,0.3c-0.2,0.1-0.4,0.1-0.7,0.1s-0.5,0-0.7-0.1c-0.2-0.1-0.3-0.2-0.4-0.3c-0.1-0.1-0.1-0.3-0.1-0.4
				c0-0.1,0-0.3,0-0.5v-7h-2.7c-0.3,0-0.5,0-0.7-0.1c-0.1-0.1-0.2-0.2-0.3-0.3c0-0.1-0.1-0.3-0.1-0.6c0-0.2,0-0.4,0.1-0.6
				c0-0.1,0.1-0.2,0.2-0.3C242.7,8.3,242.9,8.2,243.3,8.2L243.3,8.2z M256.2,11.2c0.2,0.1,0.3,0.2,0.4,0.3c0.1,0.1,0.2,0.4,0.2,0.7
				s-0.1,0.6-0.3,1c-0.2,0.4-0.4,0.5-0.8,0.5c-0.2,0-0.3,0-0.5-0.1s-0.4-0.1-0.6-0.1s-0.5,0.1-0.7,0.3c-0.2,0.2-0.3,0.4-0.3,0.6v2.9
				c0,0.2,0,0.4,0,0.5s-0.1,0.2-0.1,0.4c-0.1,0.2-0.5,0.4-1.1,0.4c-0.4,0-0.8-0.1-1-0.2c-0.1-0.1-0.2-0.3-0.3-0.6c0-0.1,0-0.2,0-0.4
				v-4.9c0-0.2,0-0.4,0-0.5c0-0.1,0.1-0.2,0.1-0.4c0.1-0.3,0.5-0.4,1.1-0.4c0.6,0,0.9,0.1,1,0.3c0.1,0.1,0.2,0.3,0.2,0.5
				c0-0.1,0.1-0.1,0.2-0.2c0.1-0.1,0.3-0.2,0.6-0.4s0.5-0.2,0.8-0.2c0.2,0,0.4,0,0.6,0C255.8,11.1,256,11.1,256.2,11.2L256.2,11.2z
				 M261.9,11.9c0.1-0.5,0.4-0.8,1.1-0.8c0.4,0,0.6,0,0.8,0.1c0.2,0.1,0.3,0.2,0.4,0.3c0.1,0.1,0.1,0.3,0.1,0.4c0,0.1,0,0.3,0,0.5
				v4.9c0,0.2,0,0.4,0,0.5c0,0.1-0.1,0.2-0.1,0.4c-0.1,0.2-0.5,0.4-1,0.4c-0.5,0-0.8-0.1-1-0.2c-0.2-0.1-0.3-0.3-0.3-0.6
				c-0.3,0.5-0.9,0.7-1.7,0.7c-0.8,0-1.6-0.4-2.2-1.1c-0.7-0.7-1-1.6-1-2.6s0.3-1.8,1-2.6c0.7-0.7,1.5-1.1,2.3-1.1
				c0.3,0,0.6,0.1,0.9,0.2c0.3,0.1,0.4,0.2,0.5,0.3C261.8,11.7,261.8,11.8,261.9,11.9L261.9,11.9z M259.4,14.8
				c0,0.3,0.1,0.6,0.4,0.8c0.2,0.2,0.5,0.4,0.9,0.4c0.3,0,0.6-0.1,0.9-0.4c0.2-0.3,0.3-0.5,0.3-0.8c0-0.3-0.1-0.6-0.3-0.8
				c-0.2-0.3-0.5-0.4-0.9-0.4c-0.4,0-0.7,0.1-0.9,0.4C259.5,14.2,259.4,14.5,259.4,14.8L259.4,14.8z M267.8,14.8
				c0,0.4,0.1,0.7,0.4,0.9c0.3,0.2,0.5,0.3,0.8,0.3c0.3,0,0.6-0.1,0.8-0.3c0.3-0.2,0.5-0.3,0.6-0.3c0.3,0,0.6,0.2,1,0.7
				c0.2,0.3,0.3,0.5,0.3,0.7c0,0.4-0.3,0.7-0.8,1c-0.5,0.4-1.2,0.6-2,0.6c-0.9,0-1.7-0.3-2.5-0.9c-0.4-0.3-0.7-0.7-0.9-1.2
				c-0.2-0.5-0.4-1-0.4-1.7c0-0.6,0.1-1.1,0.4-1.6c0.2-0.5,0.6-0.9,0.9-1.2c0.8-0.6,1.6-0.9,2.5-0.9c0.4,0,0.7,0,1,0.1
				c0.3,0.1,0.6,0.2,0.7,0.3l0.2,0.1c0.2,0.1,0.3,0.2,0.4,0.3c0.2,0.2,0.4,0.4,0.4,0.6s-0.1,0.5-0.3,0.8c-0.3,0.5-0.7,0.8-1,0.8
				c-0.2,0-0.4-0.1-0.8-0.3c-0.2-0.2-0.4-0.2-0.7-0.2c-0.3,0-0.6,0.1-0.9,0.3C267.9,14.1,267.8,14.4,267.8,14.8L267.8,14.8z
				 M279.6,13.9c0,0.6-0.1,1-0.4,1.3c-0.3,0.3-0.6,0.4-0.9,0.4h-3.3c0,0.3,0.2,0.5,0.5,0.7c0.3,0.2,0.6,0.3,0.9,0.3
				c0.5,0,1-0.1,1.3-0.2l0.2-0.1c0.2-0.1,0.4-0.2,0.6-0.2c0.3,0,0.6,0.2,0.8,0.6c0.1,0.3,0.2,0.5,0.2,0.6c0,0.8-1,1.2-3,1.2
				c-0.7,0-1.3-0.1-1.8-0.4c-0.5-0.2-1-0.6-1.3-0.9c-0.6-0.8-0.9-1.6-0.9-2.5c0-1.2,0.4-2.1,1.1-2.8c0.8-0.7,1.7-1.1,2.8-1.1
				c1.3,0,2.2,0.5,2.9,1.4C279.4,12.8,279.6,13.3,279.6,13.9L279.6,13.9z M276.6,14.3c0.4,0,0.5-0.1,0.5-0.4c0-0.2-0.1-0.4-0.2-0.5
				c-0.2-0.1-0.4-0.2-0.7-0.2c-0.3,0-0.6,0.1-0.9,0.4c-0.3,0.2-0.4,0.5-0.4,0.8L276.6,14.3L276.6,14.3z"/>
			<g>
				<path fill="#FFFF00" d="M30.3,27.9c0.7,2,0.1,3.4-1.5,4.5c-0.4,0.3-0.7,0.5-1.1,0.7c-0.1,0.1-0.3,0.1-0.4,0.2
					c0.1,0.1,0.2,0.3,0.2,0.4c0.3-0.1,0.6-0.1,0.9-0.1c0.4,0,0.9-0.1,1.3-0.1c2.1,0,3.3,1,3.9,2.8c0.1,0.4,0.2,0.8,0.3,1.1
					c0.2,0,0.4,0,0.6,0c0-0.1,0-0.3,0.1-0.4c0.1-0.4,0.2-0.9,0.3-1.3c0.6-2,1.9-2.8,3.9-2.8c0.3,0,0.7,0,1,0
					c0.1-0.2,0.2-0.4,0.2-0.7c-0.1,0-0.2-0.1-0.2-0.1c-0.4-0.2-0.7-0.5-1.1-0.7c-1.7-1.2-2.1-2.7-1.5-4.6c0.1-0.4,0.3-0.8,0.5-1.2
					c0-0.1,0.1-0.2,0.1-0.2c-0.1-0.1-0.3-0.2-0.4-0.3c-0.2,0.2-0.4,0.4-0.6,0.6c-0.3,0.3-0.7,0.6-1,0.8c-1.7,1.3-3.2,1.2-4.8,0
					c-0.4-0.3-0.7-0.5-1-0.8c-0.2-0.2-0.3-0.3-0.5-0.5c-0.1,0.1-0.2,0.1-0.3,0.2c0.2,0.4,0.4,0.7,0.6,1.1
					C30,27.1,30.1,27.5,30.3,27.9L30.3,27.9z"/>
				<path fill="#33CC33" d="M40.4,17.6c0-12.7-14.1-12.7-14.1,0c0,3.3,1.4,6.2,3.6,8.2c0.3,0.3,0.7,0.6,1,0.8c1.6,1.2,3.1,1.3,4.8,0
					c0.3-0.3,0.7-0.5,1-0.8C39,23.8,40.4,20.9,40.4,17.6L40.4,17.6z"/>
				<path fill="#373435" d="M40,17.6c0-4.4-1.7-7.2-3.9-8.4c-0.8-0.5-1.8-0.7-2.7-0.7c-0.9,0-1.8,0.2-2.7,0.7
					c-2.2,1.2-3.9,4-3.9,8.4c0,1.5,0.3,3,0.9,4.3c0.6,1.4,1.5,2.6,2.6,3.6c0.2,0.1,0.3,0.3,0.5,0.4c0.2,0.1,0.3,0.3,0.5,0.4l0,0
					c0.7,0.5,1.4,0.8,2.1,0.8c0.7,0,1.4-0.3,2.2-0.8c0.2-0.1,0.3-0.3,0.5-0.4c0.2-0.1,0.3-0.3,0.5-0.4c1.1-1,2-2.2,2.6-3.6
					C39.7,20.6,40,19.1,40,17.6L40,17.6z M36.5,8.4c2.5,1.3,4.4,4.4,4.4,9.2c0,1.7-0.3,3.2-1,4.7c-0.7,1.5-1.6,2.8-2.8,3.9
					c-0.2,0.2-0.3,0.3-0.5,0.4c-0.2,0.1-0.4,0.3-0.5,0.4h0c-0.9,0.7-1.8,1-2.7,1c-0.9,0-1.8-0.4-2.6-1v0c-0.2-0.1-0.4-0.3-0.5-0.4
					c-0.2-0.1-0.4-0.3-0.5-0.4c-1.2-1.1-2.1-2.4-2.8-3.9c-0.6-1.4-1-3-1-4.7c0-4.8,1.9-7.8,4.4-9.2c1-0.5,2-0.8,3.1-0.8
					C34.4,7.6,35.5,7.9,36.5,8.4z"/>
				<path fill="#FF00FF" d="M48.7,33.2c12.1-3.9,7.8-17.3-4.3-13.4c-3.1,1-5.5,3.2-6.7,6c-0.2,0.4-0.3,0.8-0.5,1.2
					c-0.6,1.8-0.2,3.4,1.5,4.6c0.4,0.3,0.7,0.5,1.1,0.7C42.4,33.8,45.6,34.2,48.7,33.2L48.7,33.2z"/>
				<path fill="#373435" d="M48.6,32.8c4.2-1.3,6.3-3.9,6.8-6.3c0.2-0.9,0.1-1.9-0.2-2.8c-0.3-0.9-0.8-1.7-1.5-2.3
					c-1.8-1.7-5-2.5-9.2-1.2c-1.5,0.5-2.8,1.2-3.8,2.2c-1.1,1-2,2.2-2.6,3.6c-0.1,0.2-0.2,0.4-0.2,0.6c-0.1,0.2-0.1,0.4-0.2,0.6
					c-0.3,0.8-0.3,1.6-0.1,2.3c0.2,0.7,0.7,1.3,1.4,1.8c0.2,0.1,0.4,0.2,0.5,0.4c0.2,0.1,0.4,0.2,0.5,0.3c1.3,0.7,2.7,1.2,4.2,1.3
					C45.7,33.4,47.1,33.3,48.6,32.8L48.6,32.8z M56.2,26.6c-0.5,2.8-2.8,5.5-7.4,7c-1.6,0.5-3.2,0.7-4.7,0.5
					c-1.6-0.2-3.2-0.7-4.6-1.5c-0.2-0.1-0.4-0.2-0.6-0.4c-0.2-0.1-0.4-0.3-0.6-0.4c-0.9-0.7-1.5-1.4-1.8-2.3
					c-0.3-0.8-0.2-1.8,0.1-2.8c0.1-0.2,0.1-0.4,0.2-0.6c0.1-0.2,0.2-0.4,0.3-0.6c0.7-1.5,1.6-2.8,2.8-3.8c1.2-1,2.6-1.9,4.1-2.4
					c4.5-1.5,8-0.6,10.1,1.4c0.8,0.8,1.4,1.7,1.7,2.7C56.4,24.4,56.4,25.5,56.2,26.6L56.2,26.6z"/>
				<path fill="#FFCC00" d="M36.5,45.9c7.4,10.3,18.8,2.1,11.4-8.2c-1.9-2.6-4.8-4.2-7.8-4.6c-0.4-0.1-0.9-0.1-1.3-0.1
					c-2,0-3.3,0.8-3.9,2.8c-0.1,0.4-0.3,0.8-0.3,1.3C34,40.1,34.5,43.3,36.5,45.9L36.5,45.9z"/>
				<path fill="#0048FF" d="M20.6,38.1c-7.5,10.2,3.8,18.6,11.3,8.3c1.9-2.6,2.5-5.8,2-8.8c-0.1-0.4-0.2-0.9-0.3-1.3
					c-0.6-1.9-1.8-2.9-3.9-2.8c-0.4,0-0.9,0-1.3,0.1C25.4,34,22.5,35.5,20.6,38.1L20.6,38.1z"/>
				<path fill="#373435" d="M20.9,38.4c-2.6,3.5-2.9,6.8-1.8,9.1c0.4,0.9,1,1.6,1.7,2.1c0.7,0.5,1.6,0.9,2.6,1
					c2.5,0.3,5.5-0.9,8.1-4.4c0.9-1.2,1.5-2.6,1.8-4c0.3-1.5,0.3-3,0.1-4.4c0-0.2-0.1-0.4-0.1-0.6c-0.1-0.2-0.1-0.4-0.2-0.6
					c-0.3-0.8-0.7-1.5-1.2-1.9c-0.6-0.4-1.3-0.6-2.2-0.6c-0.2,0-0.4,0-0.6,0c-0.2,0-0.4,0-0.6,0c-1.5,0.2-2.9,0.6-4.2,1.4
					C23,36.1,21.8,37.1,20.9,38.4L20.9,38.4z M18.3,47.8c-1.2-2.5-0.9-6.1,1.9-10c1-1.3,2.2-2.4,3.6-3.2c1.4-0.8,3-1.3,4.5-1.5h0
					c0.2,0,0.5,0,0.7-0.1c0.2,0,0.4,0,0.7,0c1.1,0,2.1,0.3,2.8,0.8c0.7,0.5,1.2,1.3,1.5,2.3c0.1,0.2,0.1,0.4,0.2,0.7
					c0.1,0.2,0.1,0.5,0.2,0.7c0.3,1.6,0.3,3.2-0.1,4.8c-0.3,1.5-1,3-2,4.3c-2.8,3.8-6.2,5.2-9,4.8c-1.1-0.1-2.1-0.6-3-1.2
					C19.5,49.7,18.8,48.8,18.3,47.8L18.3,47.8z"/>
				<path fill="#FF0000" d="M23.1,20.6c-12-4-16.5,9.3-4.4,13.4c3.1,1,6.3,0.6,9-0.8c0.4-0.2,0.8-0.5,1.1-0.7
					c1.6-1.1,2.2-2.6,1.5-4.5c-0.1-0.4-0.3-0.8-0.5-1.2C28.5,23.9,26.2,21.7,23.1,20.6L23.1,20.6z"/>
				<path fill="#373435" d="M23,21c-4.2-1.4-7.4-0.6-9.2,1.1c-0.7,0.7-1.2,1.4-1.5,2.3c-0.3,0.9-0.4,1.8-0.2,2.8
					c0.5,2.5,2.6,5,6.7,6.4c1.5,0.5,2.9,0.6,4.4,0.5c1.5-0.1,2.9-0.6,4.2-1.3c0.2-0.1,0.4-0.2,0.5-0.3c0.2-0.1,0.3-0.2,0.5-0.4
					c0.7-0.5,1.2-1.1,1.5-1.7c0.2-0.7,0.2-1.4-0.1-2.3c-0.1-0.2-0.1-0.4-0.2-0.6c-0.1-0.2-0.2-0.4-0.2-0.6c-0.6-1.4-1.5-2.6-2.6-3.6
					C25.7,22.3,24.4,21.5,23,21L23,21z M13.2,21.5c2.1-1.9,5.6-2.8,10.1-1.3c1.6,0.5,3,1.4,4.1,2.4c1.2,1.1,2.2,2.4,2.8,3.9
					c0.1,0.2,0.2,0.4,0.3,0.6c0.1,0.2,0.2,0.4,0.2,0.6c0.4,1.1,0.4,2,0.1,2.9c-0.3,0.8-0.9,1.6-1.8,2.2c-0.2,0.1-0.4,0.2-0.6,0.4
					c-0.2,0.1-0.4,0.2-0.6,0.4c-1.4,0.8-3,1.3-4.6,1.4c-1.6,0.1-3.2,0-4.7-0.5c-4.5-1.5-6.8-4.3-7.3-7c-0.2-1.1-0.1-2.2,0.2-3.2
					C11.8,23.2,12.4,22.2,13.2,21.5L13.2,21.5z"/>
				<path fill="#373435" d="M36.8,45.7c2.6,3.6,5.6,4.8,8.1,4.5c1-0.1,1.8-0.5,2.6-1c0.7-0.5,1.3-1.3,1.8-2.1
					c1.1-2.3,0.8-5.6-1.7-9.1c-0.9-1.2-2-2.2-3.3-3c-1.3-0.8-2.7-1.2-4.2-1.4c-0.2,0-0.4,0-0.6-0.1c-0.2,0-0.4,0-0.6,0
					c-0.9,0-1.6,0.2-2.2,0.6c-0.6,0.4-1,1-1.3,1.9c-0.1,0.2-0.1,0.4-0.2,0.6C35.1,36.8,35,37,35,37.2c-0.3,1.5-0.3,3,0,4.4
					C35.3,43,35.9,44.4,36.8,45.7L36.8,45.7z M45,51c-2.8,0.3-6.1-1-8.9-4.9c-1-1.3-1.6-2.8-1.9-4.4c-0.3-1.6-0.3-3.2,0-4.8
					c0-0.2,0.1-0.4,0.2-0.7c0.1-0.2,0.1-0.4,0.2-0.6c0.3-1.1,0.9-1.9,1.6-2.4c0.7-0.5,1.6-0.7,2.7-0.7c0.2,0,0.5,0,0.7,0
					c0.2,0,0.5,0,0.7,0.1c1.6,0.2,3.1,0.7,4.5,1.5c1.3,0.8,2.6,1.9,3.5,3.2c2.8,3.9,3,7.5,1.8,10c-0.5,1-1.2,1.8-2,2.5
					C47.1,50.5,46.1,50.9,45,51L45,51z"/>
			</g>
		</g>
		<g>
			<path fill="#B3B3B3" d="M133.8,12.9c0.4,0,0.8,0.4,0.8,0.8s-0.4,0.8-0.8,0.8s-0.8-0.4-0.8-0.8S133.4,12.9,133.8,12.9z"/>
			<path fill="#B3B3B3" d="M140.7,9.9c0.4,0,0.8,0.4,0.8,0.8s-0.4,0.8-0.8,0.8c-0.4,0-0.8-0.4-0.8-0.8S140.2,9.9,140.7,9.9z"/>
			<path fill="#B3B3B3" d="M146.8,10.3c0.4,0,0.8,0.4,0.8,0.8s-0.4,0.8-0.8,0.8c-0.4,0-0.8-0.4-0.8-0.8S146.4,10.3,146.8,10.3z"/>
			<path fill="#B3B3B3" d="M151.8,12.9c0.4,0,0.8,0.4,0.8,0.8s-0.4,0.8-0.8,0.8s-0.8-0.4-0.8-0.8S151.4,12.9,151.8,12.9z"/>
			<path fill="#B3B3B3" d="M155.6,17.1c0.4,0,0.8,0.4,0.8,0.8s-0.4,0.8-0.8,0.8c-0.4,0-0.8-0.4-0.8-0.8S155.2,17.1,155.6,17.1z"/>
			<path fill="#B3B3B3" d="M158.2,22.8c0.4,0,0.8,0.4,0.8,0.8s-0.4,0.8-0.8,0.8c-0.4,0-0.8-0.4-0.8-0.8S157.7,22.8,158.2,22.8z"/>
			<path fill="#B3B3B3" d="M159.2,28.6c0.4,0,0.8,0.4,0.8,0.8c0,0.4-0.4,0.8-0.8,0.8c-0.4,0-0.8-0.4-0.8-0.8
				C158.5,28.9,158.8,28.6,159.2,28.6z"/>
			<path fill="#B3B3B3" d="M159.4,34.5c0.4,0,0.8,0.4,0.8,0.8s-0.4,0.8-0.8,0.8c-0.4,0-0.8-0.4-0.8-0.8S158.9,34.5,159.4,34.5z"/>
			<path fill="#B3B3B3" d="M158,40.8c0.4,0,0.8,0.4,0.8,0.8c0,0.4-0.4,0.8-0.8,0.8c-0.4,0-0.8-0.4-0.8-0.8
				C157.2,41.2,157.5,40.8,158,40.8z"/>
			<path fill="#B3B3B3" d="M156,45.9c0.4,0,0.8,0.4,0.8,0.8s-0.4,0.8-0.8,0.8s-0.8-0.4-0.8-0.8C155.2,46.3,155.5,45.9,156,45.9z"/>
			<path fill="#B3B3B3" d="M152.5,50.6c0.4,0,0.8,0.4,0.8,0.8c0,0.4-0.4,0.8-0.8,0.8s-0.8-0.4-0.8-0.8C151.7,51,152,50.6,152.5,50.6
				z"/>
			<path fill="#B3B3B3" d="M146.9,54.5c0.4,0,0.8,0.4,0.8,0.8c0,0.4-0.4,0.8-0.8,0.8s-0.8-0.4-0.8-0.8S146.5,54.5,146.9,54.5z"/>
			<path fill="#B3B3B3" d="M143,55.6c0.4,0,0.8,0.4,0.8,0.8c0,0.4-0.4,0.8-0.8,0.8c-0.4,0-0.8-0.4-0.8-0.8
				C142.3,56,142.6,55.6,143,55.6z"/>
			<path fill="#B3B3B3" d="M138.8,54.5c0.4,0,0.8,0.4,0.8,0.8c0,0.4-0.4,0.8-0.8,0.8s-0.8-0.4-0.8-0.8S138.4,54.5,138.8,54.5z"/>
			<path fill="#B3B3B3" d="M133.4,50.6c0.4,0,0.8,0.4,0.8,0.8c0,0.4-0.4,0.8-0.8,0.8c-0.4,0-0.8-0.4-0.8-0.8
				C132.6,51,132.9,50.6,133.4,50.6z"/>
			<path fill="#B3B3B3" d="M129.8,45.9c0.4,0,0.8,0.4,0.8,0.8s-0.4,0.8-0.8,0.8c-0.4,0-0.8-0.4-0.8-0.8
				C129,46.3,129.4,45.9,129.8,45.9z"/>
			<path fill="#B3B3B3" d="M127.8,40.8c0.4,0,0.8,0.4,0.8,0.8c0,0.4-0.4,0.8-0.8,0.8c-0.4,0-0.8-0.4-0.8-0.8
				C127,41.2,127.3,40.8,127.8,40.8z"/>
			<path fill="#B3B3B3" d="M126.4,34.5c0.4,0,0.8,0.4,0.8,0.8s-0.4,0.8-0.8,0.8s-0.8-0.4-0.8-0.8S126,34.5,126.4,34.5z"/>
			<path fill="#B3B3B3" d="M126.5,28.6c0.4,0,0.8,0.4,0.8,0.8c0,0.4-0.4,0.8-0.8,0.8c-0.4,0-0.8-0.4-0.8-0.8
				C125.7,28.9,126.1,28.6,126.5,28.6z"/>
			<path fill="#B3B3B3" d="M127.6,22.8c0.4,0,0.8,0.4,0.8,0.8s-0.4,0.8-0.8,0.8c-0.4,0-0.8-0.4-0.8-0.8S127.1,22.8,127.6,22.8z"/>
			<path fill="#B3B3B3" d="M130.1,17.1c0.4,0,0.8,0.4,0.8,0.8s-0.4,0.8-0.8,0.8c-0.4,0-0.8-0.4-0.8-0.8S129.7,17.1,130.1,17.1z"/>
			<path fill="#B3B3B3" d="M190.6,39.4c0.1,0.4-0.1,0.9-0.5,1c-0.4,0.1-0.9-0.1-1-0.5s0.1-0.9,0.5-1C190,38.8,190.5,39,190.6,39.4z"
				/>
			<path fill="#B3B3B3" d="M195.5,45.1c0.1,0.4-0.1,0.9-0.5,1c-0.4,0.1-0.9-0.1-1-0.5c-0.1-0.4,0.1-0.9,0.5-1
				C194.9,44.5,195.4,44.7,195.5,45.1z"/>
			<path fill="#B3B3B3" d="M196.8,51.1c0.1,0.4-0.1,0.9-0.5,1c-0.4,0.1-0.9-0.1-1-0.5c-0.1-0.4,0.1-0.9,0.5-1
				C196.3,50.4,196.7,50.7,196.8,51.1z"/>
			<path fill="#B3B3B3" d="M195.8,56.6c0.1,0.4-0.1,0.9-0.5,1c-0.4,0.1-0.9-0.1-1-0.5c-0.1-0.4,0.1-0.9,0.5-1
				C195.2,56,195.6,56.2,195.8,56.6z"/>
			<path fill="#B3B3B3" d="M192.9,61.5c0.1,0.4-0.1,0.9-0.5,1c-0.4,0.1-0.9-0.1-1-0.5c-0.1-0.4,0.1-0.9,0.5-1
				C192.4,60.8,192.8,61.1,192.9,61.5z"/>
			<path fill="#B3B3B3" d="M188.2,65.6c0.1,0.4-0.1,0.9-0.5,1c-0.4,0.1-0.9-0.1-1-0.5c-0.1-0.4,0.1-0.9,0.5-1
				C187.6,64.9,188,65.2,188.2,65.6z"/>
			<path fill="#B3B3B3" d="M183,68.3c0.1,0.4-0.1,0.9-0.5,1c-0.4,0.1-0.9-0.1-1-0.5c-0.1-0.4,0.1-0.9,0.5-1
				C182.4,67.6,182.8,67.9,183,68.3z"/>
			<path fill="#B3B3B3" d="M177.3,70.1c0.1,0.4-0.1,0.9-0.5,1c-0.4,0.1-0.9-0.1-1-0.5c-0.1-0.4,0.1-0.9,0.5-1
				C176.7,69.5,177.2,69.7,177.3,70.1z"/>
			<path fill="#B3B3B3" d="M170.9,70.6c0.1,0.4-0.1,0.9-0.5,1c-0.4,0.1-0.9-0.1-1-0.5c-0.1-0.4,0.1-0.9,0.5-1
				C170.3,69.9,170.8,70.2,170.9,70.6z"/>
			<path fill="#B3B3B3" d="M154.6,64c0.1,0.4-0.1,0.9-0.5,1c-0.4,0.1-0.9-0.1-1-0.5c-0.1-0.4,0.1-0.9,0.5-1
				C154,63.3,154.4,63.5,154.6,64z"/>
			<path fill="#B3B3B3" d="M152.4,60.6c0.1,0.4-0.1,0.9-0.5,1c-0.4,0.1-0.9-0.1-1-0.5c-0.1-0.4,0.1-0.9,0.5-1
				C151.8,59.9,152.2,60.2,152.4,60.6z"/>
			<path fill="#B3B3B3" d="M152.2,56.2c0.1,0.4-0.1,0.9-0.5,1c-0.4,0.1-0.9-0.1-1-0.5c-0.1-0.4,0.1-0.9,0.5-1
				C151.6,55.5,152.1,55.8,152.2,56.2z"/>
			<path fill="#B3B3B3" d="M162.2,41.7c0.1,0.4-0.1,0.9-0.5,1c-0.4,0.1-0.9-0.1-1-0.5c-0.1-0.4,0.1-0.9,0.5-1
				C161.6,41,162,41.3,162.2,41.7z"/>
			<path fill="#B3B3B3" d="M167.8,38.6c0.1,0.4-0.1,0.9-0.5,1c-0.4,0.1-0.9-0.1-1-0.5c-0.1-0.4,0.1-0.9,0.5-1
				C167.2,37.9,167.7,38.2,167.8,38.6z"/>
			<path fill="#B3B3B3" d="M173.5,36.9c0.1,0.4-0.1,0.9-0.5,1c-0.4,0.1-0.9-0.1-1-0.5c-0.1-0.4,0.1-0.9,0.5-1
				C172.9,36.3,173.4,36.5,173.5,36.9z"/>
			<path fill="#B3B3B3" d="M179.3,36.3c0.1,0.4-0.1,0.9-0.5,1c-0.4,0.1-0.9-0.1-1-0.5c-0.1-0.4,0.1-0.9,0.5-1
				C178.8,35.6,179.2,35.9,179.3,36.3z"/>
			<path fill="#B3B3B3" d="M185.6,37.1c0.1,0.4-0.1,0.9-0.5,1c-0.4,0.1-0.9-0.1-1-0.5c-0.1-0.4,0.1-0.9,0.5-1
				C185,36.4,185.4,36.7,185.6,37.1z"/>
			<path fill="#B3B3B3" d="M182.2,101.8c-0.4,0.2-0.9,0.1-1.1-0.2c-0.2-0.4-0.1-0.9,0.2-1.1c0.4-0.2,0.9-0.1,1.1,0.2
				C182.6,101.1,182.5,101.6,182.2,101.8z"/>
			<path fill="#B3B3B3" d="M178.1,108.2c-0.4,0.2-0.9,0.1-1.1-0.2c-0.2-0.4-0.1-0.9,0.2-1.1c0.4-0.2,0.9-0.1,1.1,0.2
				C178.6,107.4,178.5,107.9,178.1,108.2z"/>
			<path fill="#B3B3B3" d="M172.8,111.2c-0.4,0.2-0.9,0.1-1.1-0.2c-0.2-0.4-0.1-0.9,0.2-1.1c0.4-0.2,0.9-0.1,1.1,0.2
				C173.3,110.5,173.2,111,172.8,111.2z"/>
			<path fill="#B3B3B3" d="M167.2,111.8c-0.4,0.2-0.9,0.1-1.1-0.2c-0.2-0.4-0.1-0.9,0.2-1.1c0.4-0.2,0.9-0.1,1.1,0.2
				C167.6,111,167.5,111.5,167.2,111.8z"/>
			<path fill="#B3B3B3" d="M161.7,110.4c-0.4,0.2-0.9,0.1-1.1-0.2c-0.2-0.4-0.1-0.9,0.2-1.1c0.4-0.2,0.9-0.1,1.1,0.2
				C162.2,109.7,162.1,110.2,161.7,110.4z"/>
			<path fill="#B3B3B3" d="M156.4,107.1c-0.4,0.2-0.9,0.1-1.1-0.2c-0.2-0.4-0.1-0.9,0.2-1.1c0.4-0.2,0.9-0.1,1.1,0.2
				C156.9,106.3,156.8,106.8,156.4,107.1z"/>
			<path fill="#B3B3B3" d="M152.3,102.9c-0.4,0.2-0.9,0.1-1.1-0.2c-0.2-0.4-0.1-0.9,0.2-1.1c0.4-0.2,0.9-0.1,1.1,0.2
				C152.8,102.1,152.7,102.6,152.3,102.9z"/>
			<path fill="#B3B3B3" d="M149,98c-0.4,0.2-0.9,0.1-1.1-0.2c-0.2-0.4-0.1-0.9,0.2-1.1c0.4-0.2,0.9-0.1,1.1,0.2
				C149.4,97.2,149.3,97.7,149,98z"/>
			<path fill="#B3B3B3" d="M146.7,91.9c-0.4,0.2-0.9,0.1-1.1-0.2c-0.2-0.4-0.1-0.9,0.2-1.1c0.4-0.2,0.9-0.1,1.1,0.2
				C147.1,91.2,147,91.7,146.7,91.9z"/>
			<path fill="#B3B3B3" d="M145.5,86.6c-0.4,0.2-0.9,0.1-1.1-0.2c-0.2-0.4-0.1-0.9,0.2-1.1c0.4-0.2,0.9-0.1,1.1,0.2
				S145.9,86.3,145.5,86.6z"/>
			<path fill="#B3B3B3" d="M145.8,80.7c-0.4,0.2-0.9,0.1-1.1-0.2c-0.2-0.4-0.1-0.9,0.2-1.1c0.4-0.2,0.9-0.1,1.1,0.2
				C146.3,80,146.2,80.5,145.8,80.7z"/>
			<path fill="#B3B3B3" d="M148.3,74.4c-0.4,0.2-0.9,0.1-1.1-0.2c-0.2-0.4-0.1-0.9,0.2-1.1c0.4-0.2,0.9-0.1,1.1,0.2
				C148.8,73.7,148.7,74.2,148.3,74.4z"/>
			<path fill="#B3B3B3" d="M150.9,71.3c-0.4,0.2-0.9,0.1-1.1-0.2c-0.2-0.4-0.1-0.9,0.2-1.1s0.9-0.1,1.1,0.2
				C151.4,70.6,151.3,71.1,150.9,71.3z"/>
			<path fill="#B3B3B3" d="M155.1,69.9c-0.4,0.2-0.9,0.1-1.1-0.2c-0.2-0.4-0.1-0.9,0.2-1.1c0.4-0.2,0.9-0.1,1.1,0.2
				C155.5,69.2,155.4,69.7,155.1,69.9z"/>
			<path fill="#B3B3B3" d="M161.7,70.2c-0.4,0.2-0.9,0.1-1.1-0.2c-0.2-0.4-0.1-0.9,0.2-1.1c0.4-0.2,0.9-0.1,1.1,0.2
				C162.2,69.5,162.1,69.9,161.7,70.2z"/>
			<path fill="#B3B3B3" d="M167.3,72.1c-0.4,0.2-0.9,0.1-1.1-0.2c-0.2-0.4-0.1-0.9,0.2-1.1c0.4-0.2,0.9-0.1,1.1,0.2
				C167.7,71.4,167.6,71.9,167.3,72.1z"/>
			<path fill="#B3B3B3" d="M171.8,75.3c-0.4,0.2-0.9,0.1-1.1-0.2c-0.2-0.4-0.1-0.9,0.2-1.1c0.4-0.2,0.9-0.1,1.1,0.2
				C172.3,74.5,172.2,75,171.8,75.3z"/>
			<path fill="#B3B3B3" d="M176.4,79.8c-0.4,0.2-0.9,0.1-1.1-0.2c-0.2-0.4-0.1-0.9,0.2-1.1c0.4-0.2,0.9-0.1,1.1,0.2
				C176.9,79.1,176.8,79.5,176.4,79.8z"/>
			<path fill="#B3B3B3" d="M179.6,84.8c-0.4,0.2-0.9,0.1-1.1-0.2c-0.2-0.4-0.1-0.9,0.2-1.1c0.4-0.2,0.9-0.1,1.1,0.2
				C180.1,84,180,84.5,179.6,84.8z"/>
			<path fill="#B3B3B3" d="M181.9,90.1c-0.4,0.2-0.9,0.1-1.1-0.2c-0.2-0.4-0.1-0.9,0.2-1.1c0.4-0.2,0.9-0.1,1.1,0.2
				C182.4,89.4,182.3,89.9,181.9,90.1z"/>
			<path fill="#B3B3B3" d="M183,96.4c-0.4,0.2-0.9,0.1-1.1-0.2c-0.2-0.4-0.1-0.9,0.2-1.1c0.4-0.2,0.9-0.1,1.1,0.2
				C183.4,95.6,183.3,96.1,183,96.4z"/>
			<path fill="#B3B3B3" d="M120.1,112.3c-0.3-0.3-0.4-0.8-0.1-1.1c0.3-0.3,0.8-0.4,1.1-0.1c0.3,0.3,0.4,0.8,0.1,1.1
				S120.5,112.6,120.1,112.3z"/>
			<path fill="#B3B3B3" d="M112.9,110.3c-0.3-0.3-0.4-0.8-0.1-1.1c0.3-0.3,0.8-0.4,1.1-0.1c0.3,0.3,0.4,0.8,0.1,1.1
				C113.7,110.6,113.2,110.6,112.9,110.3z"/>
			<path fill="#B3B3B3" d="M108.5,106.1c-0.3-0.3-0.4-0.8-0.1-1.1c0.3-0.3,0.8-0.4,1.1-0.1c0.3,0.3,0.4,0.8,0.1,1.1
				S108.8,106.4,108.5,106.1z"/>
			<path fill="#B3B3B3" d="M106.3,100.9c-0.3-0.3-0.4-0.8-0.1-1.1c0.3-0.3,0.8-0.4,1.1-0.1c0.3,0.3,0.4,0.8,0.1,1.1
				C107.1,101.1,106.6,101.1,106.3,100.9z"/>
			<path fill="#B3B3B3" d="M106,95.3c-0.3-0.3-0.4-0.8-0.1-1.1c0.3-0.3,0.8-0.4,1.1-0.1c0.3,0.3,0.4,0.8,0.1,1.1
				C106.8,95.5,106.3,95.5,106,95.3z"/>
			<path fill="#B3B3B3" d="M107.7,89.2c-0.3-0.3-0.4-0.8-0.1-1.1c0.3-0.3,0.8-0.4,1.1-0.1c0.3,0.3,0.4,0.8,0.1,1.1
				C108.5,89.4,108,89.5,107.7,89.2z"/>
			<path fill="#B3B3B3" d="M110.6,84.1c-0.3-0.3-0.4-0.8-0.1-1.1c0.3-0.3,0.8-0.4,1.1-0.1c0.3,0.3,0.4,0.8,0.1,1.1
				C111.4,84.3,110.9,84.4,110.6,84.1z"/>
			<path fill="#B3B3B3" d="M114.2,79.4c-0.3-0.3-0.4-0.8-0.1-1.1c0.3-0.3,0.8-0.4,1.1-0.1s0.4,0.8,0.1,1.1
				C115.1,79.7,114.6,79.7,114.2,79.4z"/>
			<path fill="#B3B3B3" d="M119.4,75.5c-0.3-0.3-0.4-0.8-0.1-1.1c0.3-0.3,0.8-0.4,1.1-0.1c0.3,0.3,0.4,0.8,0.1,1.1
				C120.2,75.7,119.7,75.8,119.4,75.5z"/>
			<path fill="#B3B3B3" d="M124.2,72.8c-0.3-0.3-0.4-0.8-0.1-1.1c0.3-0.3,0.8-0.4,1.1-0.1c0.3,0.3,0.4,0.8,0.1,1.1
				C125,73.1,124.5,73.1,124.2,72.8z"/>
			<path fill="#B3B3B3" d="M129.9,71.5c-0.3-0.3-0.4-0.8-0.1-1.1c0.3-0.3,0.8-0.4,1.1-0.1s0.4,0.8,0.1,1.1
				C130.7,71.7,130.2,71.7,129.9,71.5z"/>
			<path fill="#B3B3B3" d="M136.6,72c-0.3-0.3-0.4-0.8-0.1-1.1c0.3-0.3,0.8-0.4,1.1-0.1s0.4,0.8,0.1,1.1S137,72.3,136.6,72z"/>
			<path fill="#B3B3B3" d="M140.3,73.6c-0.3-0.3-0.4-0.8-0.1-1.1s0.8-0.4,1.1-0.1c0.3,0.3,0.4,0.8,0.1,1.1
				C141.1,73.8,140.7,73.9,140.3,73.6z"/>
			<path fill="#B3B3B3" d="M142.9,77.2c-0.3-0.3-0.4-0.8-0.1-1.1c0.3-0.3,0.8-0.4,1.1-0.1c0.3,0.3,0.4,0.8,0.1,1.1
				C143.7,77.4,143.2,77.5,142.9,77.2z"/>
			<path fill="#B3B3B3" d="M142.6,94.8c-0.3-0.3-0.4-0.8-0.1-1.1s0.8-0.4,1.1-0.1c0.3,0.3,0.4,0.8,0.1,1.1
				C143.4,95,142.9,95.1,142.6,94.8z"/>
			<path fill="#B3B3B3" d="M139.6,100.5c-0.3-0.3-0.4-0.8-0.1-1.1c0.3-0.3,0.8-0.4,1.1-0.1c0.3,0.3,0.4,0.8,0.1,1.1
				C140.4,100.7,139.9,100.8,139.6,100.5z"/>
			<path fill="#B3B3B3" d="M135.7,105c-0.3-0.3-0.4-0.8-0.1-1.1c0.3-0.3,0.8-0.4,1.1-0.1c0.3,0.3,0.4,0.8,0.1,1.1
				C136.6,105.2,136.1,105.3,135.7,105z"/>
			<path fill="#B3B3B3" d="M131.3,108.8c-0.3-0.3-0.4-0.8-0.1-1.1c0.3-0.3,0.8-0.4,1.1-0.1c0.3,0.3,0.4,0.8,0.1,1.1
				C132.1,109,131.6,109,131.3,108.8z"/>
			<path fill="#B3B3B3" d="M125.6,111.5c-0.3-0.3-0.4-0.8-0.1-1.1c0.3-0.3,0.8-0.4,1.1-0.1c0.3,0.3,0.4,0.8,0.1,1.1
				C126.4,111.8,125.9,111.8,125.6,111.5z"/>
			<path fill="#B3B3B3" d="M91.3,56.5c0.2-0.4,0.6-0.6,1-0.4c0.4,0.2,0.6,0.6,0.4,1c-0.2,0.4-0.6,0.6-1,0.4
				C91.4,57.4,91.2,56.9,91.3,56.5z"/>
			<path fill="#B3B3B3" d="M91.2,49c0.2-0.4,0.6-0.6,1-0.4c0.4,0.2,0.6,0.6,0.4,1c-0.2,0.4-0.6,0.6-1,0.4C91.2,49.9,91,49.4,91.2,49
				z"/>
			<path fill="#B3B3B3" d="M94,43.5c0.2-0.4,0.6-0.6,1-0.4c0.4,0.2,0.6,0.6,0.4,1c-0.2,0.4-0.6,0.6-1,0.4C94,44.4,93.8,43.9,94,43.5
				z"/>
			<path fill="#B3B3B3" d="M98.3,39.9c0.2-0.4,0.6-0.6,1-0.4c0.4,0.2,0.6,0.6,0.4,1c-0.2,0.4-0.6,0.6-1,0.4
				C98.4,40.8,98.2,40.3,98.3,39.9z"/>
			<path fill="#B3B3B3" d="M103.6,38c0.2-0.4,0.6-0.6,1-0.4s0.6,0.6,0.4,1c-0.2,0.4-0.6,0.6-1,0.4C103.6,38.9,103.5,38.4,103.6,38z"
				/>
			<path fill="#B3B3B3" d="M109.9,37.9c0.2-0.4,0.6-0.6,1-0.4s0.6,0.6,0.4,1c-0.2,0.4-0.6,0.6-1,0.4
				C109.9,38.8,109.7,38.3,109.9,37.9z"/>
			<path fill="#B3B3B3" d="M115.6,39.2c0.2-0.4,0.6-0.6,1-0.4c0.4,0.2,0.6,0.6,0.4,1c-0.2,0.4-0.6,0.6-1,0.4
				C115.6,40,115.5,39.6,115.6,39.2z"/>
			<path fill="#B3B3B3" d="M121.1,41.4c0.2-0.4,0.6-0.6,1-0.4s0.6,0.6,0.4,1c-0.2,0.4-0.6,0.6-1,0.4C121.2,42.2,121,41.8,121.1,41.4
				z"/>
			<path fill="#B3B3B3" d="M133.3,54c0.2-0.4,0.6-0.6,1-0.4s0.6,0.6,0.4,1c-0.2,0.4-0.6,0.6-1,0.4C133.3,54.9,133.1,54.4,133.3,54z"
				/>
			<path fill="#B3B3B3" d="M134.7,60.6c0.2-0.4,0.6-0.6,1-0.4s0.6,0.6,0.4,1c-0.2,0.4-0.6,0.6-1,0.4
				C134.7,61.5,134.6,61.1,134.7,60.6z"/>
			<path fill="#B3B3B3" d="M134.2,64.7c0.2-0.4,0.6-0.6,1-0.4c0.4,0.2,0.6,0.6,0.4,1c-0.2,0.4-0.6,0.6-1,0.4
				C134.3,65.5,134.1,65.1,134.2,64.7z"/>
			<path fill="#B3B3B3" d="M131.6,68.1c0.2-0.4,0.6-0.6,1-0.4c0.4,0.2,0.6,0.6,0.4,1c-0.2,0.4-0.6,0.6-1,0.4
				C131.6,69,131.4,68.5,131.6,68.1z"/>
			<path fill="#B3B3B3" d="M114.6,72.9c0.2-0.4,0.6-0.6,1-0.4c0.4,0.2,0.6,0.6,0.4,1c-0.2,0.4-0.6,0.6-1,0.4
				C114.6,73.8,114.5,73.3,114.6,72.9z"/>
			<path fill="#B3B3B3" d="M108.3,71.7c0.2-0.4,0.6-0.6,1-0.4c0.4,0.2,0.6,0.6,0.4,1c-0.2,0.4-0.6,0.6-1,0.4
				C108.3,72.6,108.1,72.1,108.3,71.7z"/>
			<path fill="#B3B3B3" d="M102.9,69.3c0.2-0.4,0.6-0.6,1-0.4c0.4,0.2,0.6,0.6,0.4,1c-0.2,0.4-0.6,0.6-1,0.4
				C102.9,70.2,102.7,69.7,102.9,69.3z"/>
			<path fill="#B3B3B3" d="M98,66.1c0.2-0.4,0.6-0.6,1-0.4c0.4,0.2,0.6,0.6,0.4,1c-0.2,0.4-0.6,0.6-1,0.4C98,67,97.8,66.5,98,66.1z"
				/>
			<path fill="#B3B3B3" d="M93.7,61.5c0.2-0.4,0.6-0.6,1-0.4c0.4,0.2,0.6,0.6,0.4,1c-0.2,0.4-0.6,0.6-1,0.4S93.5,61.9,93.7,61.5z"/>
		</g>
	</g>
</g>
</svg>
