<?xml version="1.0" encoding="utf-8"?>
<!-- Generator: Adobe Illustrator 22.0.1, SVG Export Plug-In . SVG Version: 6.00 Build 0)  -->
<svg version="1.1" id="Layer_1" xmlns="http://www.w3.org/2000/svg" xmlns:xlink="http://www.w3.org/1999/xlink" x="0px" y="0px"
	 viewBox="0 0 162 288" enable-background="new 0 0 162 288" xml:space="preserve">
<g id="Layer_x0020_1">
	<g id="_206081555392">
		<polygon fill="#FFFFFF" points="0,0 162,0 162,288 0,288 		"/>
		<g>
			<path fill="#FFFF00" d="M75.5,71.6c1.1,3.1,0.1,5.4-2.4,7.2c-0.6,0.4-1.2,0.8-1.8,1.1c-0.2,0.1-0.4,0.2-0.6,0.3
				c0.1,0.2,0.2,0.5,0.4,0.7c0.5-0.1,1-0.2,1.4-0.2c0.7-0.1,1.4-0.1,2.1-0.1c3.3-0.1,5.2,1.5,6.1,4.5c0.2,0.6,0.3,1.2,0.5,1.8
				c0.3,0,0.7,0,1,0c0-0.2,0.1-0.4,0.1-0.6c0.1-0.7,0.3-1.4,0.5-2c1-3.2,3.1-4.5,6.2-4.5c0.5,0,1,0,1.6,0.1c0.1-0.3,0.3-0.7,0.4-1.1
				c-0.1-0.1-0.2-0.1-0.4-0.2c-0.6-0.3-1.2-0.7-1.8-1.1c-2.7-1.9-3.3-4.3-2.3-7.2c0.2-0.7,0.5-1.3,0.8-2c0.1-0.1,0.1-0.3,0.2-0.4
				c-0.2-0.2-0.4-0.3-0.6-0.5c-0.3,0.3-0.6,0.7-1,1c-0.5,0.5-1.1,0.9-1.6,1.3c-2.6,2-5.1,1.9-7.6,0c-0.6-0.4-1.1-0.9-1.6-1.3
				c-0.3-0.2-0.5-0.5-0.8-0.8c-0.1,0.1-0.3,0.2-0.4,0.3c0.3,0.6,0.6,1.2,0.9,1.8C75,70.2,75.2,70.9,75.5,71.6L75.5,71.6z"/>
			<path fill="#33CC33" d="M91.6,55.2c0-20.2-22.4-20.2-22.4,0c0,5.2,2.2,9.8,5.8,13.1c0.5,0.5,1.1,0.9,1.6,1.3c2.5,1.9,5,2,7.6,0
				c0.6-0.4,1.1-0.9,1.6-1.3C89.4,65,91.6,60.4,91.6,55.2z"/>
			<path fill="#373435" d="M90.9,55.2c0-7-2.7-11.4-6.3-13.4c-1.3-0.7-2.8-1.1-4.2-1.1c-1.5,0-2.9,0.4-4.2,1.1
				c-3.5,1.9-6.3,6.4-6.3,13.4c0,2.4,0.5,4.8,1.4,6.9c1,2.2,2.4,4.1,4.1,5.7c0.3,0.2,0.5,0.5,0.8,0.7c0.3,0.2,0.5,0.4,0.8,0.6l0,0
				c1.1,0.8,2.2,1.3,3.3,1.3c1.1,0,2.2-0.4,3.4-1.3c0.3-0.2,0.5-0.4,0.8-0.6c0.3-0.2,0.5-0.4,0.8-0.7c1.7-1.6,3.1-3.5,4.1-5.7
				C90.4,59.9,90.9,57.6,90.9,55.2L90.9,55.2z M85.3,40.6c3.9,2.1,7,7,7,14.6c0,2.6-0.6,5.2-1.6,7.4c-1,2.4-2.6,4.5-4.4,6.2
				c-0.3,0.2-0.5,0.5-0.8,0.7c-0.3,0.2-0.6,0.4-0.8,0.7h0c-1.4,1.1-2.9,1.6-4.3,1.6c-1.4,0-2.8-0.6-4.2-1.6v0
				c-0.3-0.2-0.6-0.4-0.9-0.7c-0.3-0.2-0.6-0.5-0.8-0.7c-1.9-1.7-3.4-3.8-4.4-6.2c-1-2.3-1.6-4.8-1.6-7.4c0-7.6,3.1-12.4,7-14.6
				c1.5-0.8,3.2-1.3,4.9-1.3C82.1,39.3,83.8,39.8,85.3,40.6L85.3,40.6z"/>
			<path fill="#FF00FF" d="M104.9,80c19.2-6.2,12.3-27.5-6.9-21.3c-4.9,1.6-8.7,5.1-10.7,9.5c-0.3,0.6-0.5,1.3-0.8,2
				c-1,2.9-0.4,5.3,2.3,7.2c0.6,0.4,1.2,0.8,1.8,1.1C94.8,80.9,99.9,81.6,104.9,80L104.9,80z"/>
			<path fill="#373435" d="M104.7,79.3c6.7-2.1,10-6.1,10.8-10.1c0.3-1.5,0.2-3-0.3-4.4c-0.4-1.4-1.2-2.7-2.4-3.7
				c-2.9-2.8-8-4-14.6-1.9c-2.3,0.8-4.4,2-6.1,3.5c-1.8,1.6-3.2,3.5-4.2,5.7c-0.1,0.3-0.3,0.6-0.4,0.9c-0.1,0.3-0.2,0.6-0.3,1
				c-0.5,1.3-0.5,2.5-0.2,3.6c0.3,1.1,1.1,2,2.3,2.9c0.3,0.2,0.6,0.4,0.9,0.6c0.3,0.2,0.6,0.4,0.9,0.5c2.1,1.2,4.3,1.9,6.7,2.1
				C100,80.3,102.3,80.1,104.7,79.3L104.7,79.3z M116.8,69.5c-0.8,4.4-4.5,8.8-11.7,11.1c-2.5,0.8-5.1,1.1-7.5,0.8
				c-2.6-0.3-5-1.1-7.3-2.3c-0.3-0.2-0.6-0.4-0.9-0.6c-0.3-0.2-0.6-0.4-0.9-0.6c-1.5-1-2.4-2.2-2.8-3.6c-0.4-1.4-0.3-2.8,0.2-4.4
				c0.1-0.3,0.2-0.7,0.4-1c0.1-0.3,0.3-0.7,0.4-1c1.1-2.3,2.6-4.4,4.5-6.1c1.9-1.6,4.1-2.9,6.6-3.8c7.2-2.3,12.8-0.9,16,2.2
				c1.3,1.2,2.2,2.7,2.7,4.3C117,66.1,117.1,67.8,116.8,69.5L116.8,69.5z"/>
			<path fill="#FFCC00" d="M85.3,100.2c11.8,16.4,30,3.3,18.2-13.1c-3-4.2-7.6-6.7-12.3-7.3c-0.7-0.1-1.4-0.1-2.1-0.1
				c-3.1-0.1-5.2,1.3-6.2,4.4c-0.2,0.7-0.4,1.3-0.5,2C81.4,90.9,82.3,96,85.3,100.2z"/>
			<path fill="#0048FF" d="M60.1,87.8c-12,16.3,6.1,29.5,18,13.3c3.1-4.2,4-9.3,3.1-14c-0.1-0.7-0.3-1.4-0.5-2
				c-0.9-3-2.8-4.6-6.1-4.5c-0.7,0-1.4,0-2.1,0.1C67.7,81.2,63.1,83.7,60.1,87.8L60.1,87.8z"/>
			<path fill="#373435" d="M60.6,88.2c-4.1,5.6-4.6,10.8-2.9,14.5c0.6,1.4,1.6,2.5,2.8,3.4c1.2,0.9,2.6,1.4,4.1,1.6
				c4,0.5,8.8-1.4,13-7.1c1.4-2,2.4-4.1,2.9-6.4c0.5-2.3,0.5-4.7,0.1-7.1c-0.1-0.3-0.1-0.7-0.2-1c-0.1-0.3-0.2-0.7-0.3-1
				c-0.4-1.3-1-2.4-1.9-3c-0.9-0.7-2-1-3.5-1c-0.3,0-0.7,0-1,0c-0.3,0-0.7,0-1,0.1c-2.3,0.3-4.6,1-6.7,2.2
				C63.9,84.7,62.1,86.3,60.6,88.2L60.6,88.2z M56.5,103.3c-1.9-4-1.5-9.8,3-15.9c1.6-2.1,3.5-3.8,5.7-5.1c2.2-1.3,4.7-2.1,7.2-2.4
				h0c0.4,0,0.7-0.1,1.1-0.1c0.3,0,0.7,0,1.1,0c1.8,0,3.3,0.4,4.4,1.3c1.1,0.9,1.9,2.1,2.4,3.7c0.1,0.3,0.2,0.7,0.3,1
				c0.1,0.4,0.2,0.7,0.2,1.1c0.5,2.5,0.5,5.1-0.1,7.6c-0.5,2.4-1.6,4.8-3.1,6.9c-4.5,6.1-9.8,8.2-14.2,7.6c-1.8-0.2-3.4-0.9-4.7-1.9
				C58.3,106.2,57.2,104.9,56.5,103.3L56.5,103.3z"/>
			<path fill="#FF0000" d="M64.1,60C44.9,53.6,37.8,74.9,57,81.2c4.9,1.6,10,1,14.3-1.3c0.6-0.3,1.2-0.7,1.8-1.1
				c2.6-1.8,3.5-4.1,2.4-7.2c-0.2-0.7-0.5-1.3-0.7-2C72.7,65.2,69,61.6,64.1,60L64.1,60z"/>
			<path fill="#373435" d="M63.9,60.6c-6.6-2.2-11.7-1-14.7,1.7c-1.1,1-1.9,2.3-2.4,3.7c-0.5,1.4-0.6,2.9-0.3,4.4
				c0.7,3.9,4.1,8,10.7,10.2c2.3,0.8,4.7,1,7,0.8c2.4-0.2,4.7-0.9,6.7-2.1c0.3-0.2,0.6-0.3,0.9-0.5c0.3-0.2,0.5-0.4,0.8-0.6
				c1.2-0.8,1.9-1.7,2.3-2.8c0.4-1,0.3-2.3-0.2-3.7c-0.1-0.3-0.2-0.7-0.3-1c-0.1-0.3-0.2-0.6-0.4-0.9c-1-2.2-2.4-4.1-4.1-5.7
				C68.2,62.6,66.2,61.4,63.9,60.6L63.9,60.6z M48.3,61.4c3.3-3,8.9-4.4,16-2c2.5,0.8,4.7,2.2,6.6,3.8c1.9,1.7,3.4,3.8,4.5,6.2
				c0.1,0.3,0.3,0.7,0.4,1c0.1,0.4,0.3,0.7,0.4,1c0.6,1.7,0.6,3.2,0.2,4.6c-0.5,1.3-1.4,2.5-2.8,3.4c-0.3,0.2-0.6,0.4-0.9,0.6
				c-0.3,0.2-0.6,0.4-0.9,0.6c-2.2,1.2-4.7,2-7.3,2.2c-2.5,0.2-5,0-7.5-0.9c-7.2-2.4-10.8-6.8-11.6-11.2c-0.3-1.7-0.2-3.5,0.3-5.1
				C46.1,64,47,62.6,48.3,61.4L48.3,61.4z"/>
			<path fill="#373435" d="M85.9,99.8c4.1,5.7,8.9,7.7,12.9,7.2c1.5-0.2,2.9-0.7,4.1-1.6c1.2-0.8,2.1-2,2.8-3.4
				c1.7-3.6,1.3-8.8-2.7-14.5c-1.4-2-3.2-3.6-5.2-4.7c-2.1-1.2-4.3-2-6.7-2.2c-0.3,0-0.7-0.1-1-0.1c-0.4,0-0.7,0-1,0
				c-1.4,0-2.6,0.3-3.5,0.9c-0.9,0.6-1.6,1.6-2,3.1c-0.1,0.3-0.2,0.7-0.3,1c-0.1,0.3-0.2,0.6-0.2,1c-0.5,2.3-0.5,4.7,0,7.1
				C83.5,95.7,84.4,97.8,85.9,99.8L85.9,99.8z M98.9,108.4c-4.4,0.5-9.8-1.6-14.2-7.7c-1.5-2.1-2.6-4.5-3.1-6.9
				c-0.5-2.5-0.5-5.1,0-7.6c0.1-0.4,0.2-0.7,0.3-1.1c0.1-0.3,0.2-0.7,0.3-1c0.5-1.7,1.4-3,2.5-3.8c1.2-0.8,2.6-1.2,4.3-1.1
				c0.4,0,0.7,0,1.1,0c0.4,0,0.7,0.1,1.1,0.1c2.5,0.3,5,1.1,7.2,2.4c2.1,1.3,4.1,3,5.6,5.1c4.4,6.1,4.8,11.9,2.9,15.9
				c-0.8,1.6-1.9,2.9-3.2,3.9C102.3,107.5,100.7,108.2,98.9,108.4L98.9,108.4z"/>
		</g>
		<path fill="#CCCCCC" d="M22.8,22.4H28c0.4,0,0.7,0,0.9,0.1c0.2,0.1,0.3,0.2,0.4,0.4c0.1,0.2,0.1,0.5,0.1,0.8c0,0.3,0,0.6-0.1,0.8
			c-0.1,0.2-0.2,0.3-0.3,0.4c-0.2,0.1-0.6,0.2-1,0.2h-6.9c-0.9,0-1.4-0.2-1.6-0.7c-0.1-0.2-0.1-0.5-0.1-1V12.9c0-0.3,0-0.5,0-0.7
			c0-0.1,0.1-0.3,0.2-0.5c0.2-0.3,0.7-0.5,1.5-0.5c0.9,0,1.4,0.2,1.6,0.7c0.1,0.2,0.1,0.5,0.1,1C22.8,12.9,22.8,22.4,22.8,22.4z
			 M30.3,20.2c0-1.5,0.5-2.8,1.6-3.8c1.1-1,2.3-1.5,3.7-1.5c1.4,0,2.6,0.5,3.6,1.5c1.1,1,1.6,2.2,1.6,3.8c0,1.1-0.3,2-0.8,2.8
			s-1.2,1.4-2,1.8c-0.8,0.4-1.6,0.6-2.4,0.6c-0.8,0-1.7-0.2-2.4-0.6c-0.8-0.4-1.5-1-2-1.8C30.6,22.1,30.3,21.2,30.3,20.2z
			 M34.3,21.6c0.4,0.3,0.8,0.5,1.2,0.5c0.4,0,0.8-0.2,1.3-0.5c0.4-0.3,0.6-0.8,0.6-1.4c0-0.6-0.2-1.1-0.6-1.4
			c-0.4-0.3-0.8-0.5-1.3-0.5c-0.5,0-0.9,0.2-1.3,0.5c-0.4,0.3-0.6,0.8-0.6,1.4C33.7,20.8,33.9,21.3,34.3,21.6L34.3,21.6z M41.8,20.2
			c0-1.5,0.5-2.8,1.6-3.8c1.1-1,2.3-1.5,3.7-1.5c1.4,0,2.6,0.5,3.6,1.5c1.1,1,1.6,2.2,1.6,3.8c0,1.1-0.3,2-0.8,2.8s-1.2,1.4-2,1.8
			c-0.8,0.4-1.6,0.6-2.4,0.6c-0.8,0-1.7-0.2-2.4-0.6c-0.8-0.4-1.5-1-2-1.8C42,22.1,41.8,21.2,41.8,20.2z M45.7,21.6
			c0.4,0.3,0.8,0.5,1.2,0.5c0.4,0,0.8-0.2,1.3-0.5c0.4-0.3,0.6-0.8,0.6-1.4c0-0.6-0.2-1.1-0.6-1.4c-0.4-0.3-0.8-0.5-1.3-0.5
			c-0.5,0-0.9,0.2-1.3,0.5c-0.4,0.3-0.6,0.8-0.6,1.4C45.1,20.8,45.3,21.3,45.7,21.6L45.7,21.6z M59.4,20.2l2.5,2.1
			c0.3,0.3,0.5,0.5,0.6,0.6c0.1,0.1,0.1,0.3,0.1,0.4c0,0.3-0.2,0.7-0.6,1.2c-0.4,0.5-0.8,0.8-1.1,0.8c-0.3,0-0.7-0.2-1.2-0.6
			l-0.2-0.1c-0.3-0.2-0.7-0.7-1.4-1.3c-0.6-0.6-1.1-1-1.4-1.3v1.5c0,0.3,0,0.5,0,0.7c0,0.1-0.1,0.3-0.2,0.5
			c-0.2,0.3-0.7,0.5-1.5,0.5c-0.8,0-1.3-0.2-1.5-0.5c-0.1-0.2-0.1-0.4-0.2-0.5c0-0.1,0-0.4,0-0.7V12.1c0-0.3,0-0.5,0-0.7
			c0-0.1,0.1-0.3,0.2-0.5c0.2-0.3,0.7-0.5,1.5-0.5c0.6,0,1,0.1,1.3,0.3c0.2,0.2,0.3,0.5,0.3,0.8c0,0.1,0,0.3,0,0.5v6.1
			c0.2-0.2,0.6-0.5,1-1c0.5-0.5,0.8-0.8,1-1l0.2-0.2c0.4-0.3,0.8-0.5,1.1-0.5c0.3,0,0.7,0.3,1.1,0.8c0.4,0.5,0.6,0.9,0.6,1.2
			c0,0.3-0.2,0.6-0.7,1L59.4,20.2L59.4,20.2z M71.3,13.4c0,0.7-0.1,1.7-0.4,2.8c-0.3,1.2-0.6,1.7-1.1,1.7c-0.5,0-0.8-0.6-1.1-1.7
			c-0.3-1.2-0.4-2.2-0.4-3.1c0-0.8,0.1-1.3,0.3-1.5c0.3-0.2,0.6-0.4,1.1-0.4c0.4,0,0.8,0,1,0.1c0.2,0.1,0.4,0.2,0.5,0.4
			C71.2,12.2,71.3,12.7,71.3,13.4z M78.1,15.2c1.3,0,2.3,0.5,3.2,1.5c0.8,1,1.3,2.2,1.3,3.6v3.4c0,0.3,0,0.5,0,0.7
			c0,0.1-0.1,0.3-0.2,0.5c-0.2,0.3-0.7,0.5-1.5,0.5c-0.9,0-1.4-0.2-1.6-0.7c-0.1-0.2-0.1-0.5-0.1-1v-3.4c0-0.5-0.1-0.9-0.4-1.2
			c-0.3-0.3-0.7-0.4-1.2-0.4c-0.5,0-0.9,0.2-1.2,0.5c-0.3,0.3-0.5,0.7-0.5,1.2v3.4c0,0.3,0,0.5,0,0.7c0,0.1-0.1,0.3-0.2,0.5
			c-0.2,0.3-0.7,0.5-1.5,0.5c-0.8,0-1.3-0.2-1.5-0.5c-0.1-0.2-0.1-0.4-0.2-0.5c0-0.1,0-0.4,0-0.7v-6.8c0-0.3,0-0.5,0-0.6
			c0-0.1,0.1-0.3,0.2-0.5c0.2-0.3,0.7-0.5,1.5-0.5c0.8,0,1.3,0.1,1.4,0.4c0.1,0.2,0.2,0.5,0.2,0.8c0.1-0.1,0.2-0.2,0.3-0.4
			c0.2-0.2,0.4-0.3,0.5-0.4C77.1,15.3,77.6,15.2,78.1,15.2L78.1,15.2z M85.9,13.4c0,0.7-0.1,1.7-0.4,2.8c-0.3,1.2-0.6,1.7-1.1,1.7
			c-0.5,0-0.8-0.6-1.1-1.7c-0.3-1.2-0.4-2.2-0.4-3.1c0-0.8,0.1-1.3,0.3-1.5c0.3-0.2,0.6-0.4,1.1-0.4c0.4,0,0.8,0,1,0.1
			c0.2,0.1,0.4,0.2,0.5,0.4C85.8,12.2,85.9,12.7,85.9,13.4z M92.9,11.2h10.6c0.4,0,0.7,0,0.9,0.1c0.2,0.1,0.3,0.2,0.4,0.4
			c0.1,0.2,0.1,0.5,0.1,0.8c0,0.3,0,0.6-0.1,0.8s-0.2,0.3-0.3,0.4c-0.2,0.1-0.6,0.2-1,0.2h-3.6v9.6c0,0.3,0,0.5,0,0.6
			c0,0.1-0.1,0.3-0.2,0.5c-0.1,0.2-0.3,0.3-0.5,0.4c-0.2,0.1-0.6,0.1-1,0.1c-0.4,0-0.7,0-0.9-0.1c-0.2-0.1-0.4-0.2-0.5-0.4
			c-0.1-0.2-0.2-0.3-0.2-0.5c0-0.1,0-0.4,0-0.7V14h-3.7c-0.4,0-0.7,0-0.9-0.1c-0.2-0.1-0.3-0.2-0.4-0.4c-0.1-0.2-0.1-0.5-0.1-0.8
			c0-0.3,0-0.6,0.1-0.8c0.1-0.2,0.2-0.3,0.3-0.4C92.1,11.3,92.4,11.2,92.9,11.2L92.9,11.2z M110.4,15.3c0.2,0.1,0.4,0.2,0.6,0.4
			c0.2,0.2,0.2,0.5,0.2,0.9c0,0.4-0.1,0.9-0.4,1.3c-0.2,0.5-0.6,0.7-1,0.7c-0.2,0-0.4-0.1-0.7-0.2c-0.2-0.1-0.5-0.2-0.8-0.2
			c-0.3,0-0.7,0.1-1,0.4c-0.3,0.2-0.4,0.5-0.4,0.9v4c0,0.3,0,0.5,0,0.7c0,0.1-0.1,0.3-0.2,0.5c-0.2,0.3-0.7,0.5-1.5,0.5
			c-0.6,0-1-0.1-1.3-0.3c-0.2-0.2-0.3-0.5-0.3-0.8c0-0.1,0-0.3,0-0.6v-6.7c0-0.3,0-0.5,0-0.7c0-0.1,0.1-0.3,0.2-0.5
			c0.2-0.3,0.7-0.5,1.5-0.5c0.8,0,1.2,0.1,1.4,0.4c0.1,0.2,0.2,0.4,0.2,0.6c0.1-0.1,0.2-0.2,0.3-0.3c0.1-0.1,0.4-0.3,0.8-0.5
			c0.4-0.2,0.7-0.3,1-0.3c0.3,0,0.6,0,0.8,0C110,15.2,110.2,15.2,110.4,15.3L110.4,15.3z M118.3,16.2c0.1-0.7,0.6-1.1,1.5-1.1
			c0.5,0,0.9,0,1.1,0.1c0.2,0.1,0.4,0.2,0.5,0.4c0.1,0.2,0.2,0.4,0.2,0.5c0,0.1,0,0.4,0,0.7v6.7c0,0.3,0,0.5,0,0.7
			c0,0.1-0.1,0.3-0.2,0.5c-0.2,0.3-0.6,0.5-1.3,0.5c-0.7,0-1.2-0.1-1.4-0.3c-0.2-0.2-0.4-0.4-0.4-0.8c-0.5,0.7-1.3,1-2.4,1
			c-1.1,0-2.1-0.5-3.1-1.5c-0.9-1-1.4-2.2-1.4-3.5c0-1.3,0.5-2.5,1.4-3.5c0.9-1,2-1.5,3.1-1.5c0.4,0,0.8,0.1,1.2,0.2
			c0.4,0.2,0.6,0.3,0.7,0.4C118.1,16,118.2,16.1,118.3,16.2L118.3,16.2z M114.8,20.2c0,0.4,0.2,0.8,0.5,1.1c0.3,0.3,0.7,0.5,1.2,0.5
			c0.5,0,0.9-0.2,1.2-0.5c0.3-0.3,0.5-0.7,0.5-1.1s-0.1-0.8-0.4-1.2c-0.3-0.4-0.7-0.5-1.2-0.5c-0.5,0-0.9,0.2-1.2,0.5
			C115,19.4,114.8,19.8,114.8,20.2L114.8,20.2z M126.3,20.2c0,0.5,0.2,1,0.5,1.3c0.4,0.3,0.7,0.4,1.1,0.4c0.4,0,0.8-0.1,1.1-0.4
			c0.4-0.2,0.6-0.4,0.8-0.4c0.4,0,0.8,0.3,1.4,1c0.3,0.4,0.4,0.7,0.4,1c0,0.5-0.3,0.9-1,1.4c-0.7,0.5-1.6,0.8-2.7,0.8
			c-1.2,0-2.3-0.4-3.4-1.3c-0.5-0.4-0.9-1-1.3-1.6c-0.3-0.7-0.5-1.4-0.5-2.3c0-0.8,0.2-1.6,0.5-2.2c0.3-0.7,0.8-1.2,1.3-1.6
			c1.1-0.8,2.2-1.3,3.4-1.3c0.5,0,1,0.1,1.4,0.2c0.5,0.1,0.8,0.3,1,0.4l0.3,0.2c0.2,0.2,0.4,0.3,0.5,0.4c0.3,0.3,0.5,0.5,0.5,0.9
			c0,0.3-0.1,0.7-0.4,1.1c-0.5,0.7-0.9,1-1.3,1c-0.2,0-0.6-0.1-1-0.4c-0.2-0.2-0.6-0.3-1-0.3s-0.8,0.2-1.2,0.5
			C126.5,19.2,126.3,19.7,126.3,20.2L126.3,20.2z M142.4,19c0,0.8-0.2,1.4-0.6,1.7c-0.4,0.4-0.8,0.6-1.3,0.6H136
			c0,0.4,0.2,0.7,0.6,0.9c0.4,0.2,0.8,0.4,1.3,0.4c0.7,0,1.3-0.1,1.7-0.2l0.2-0.1c0.3-0.1,0.6-0.2,0.8-0.2c0.4,0,0.8,0.3,1,0.9
			c0.2,0.3,0.2,0.6,0.2,0.9c0,1.1-1.4,1.7-4.1,1.7c-0.9,0-1.8-0.2-2.5-0.5c-0.7-0.3-1.3-0.8-1.7-1.3c-0.8-1-1.2-2.2-1.2-3.5
			c0-1.6,0.5-2.9,1.6-3.8c1-1,2.3-1.4,3.9-1.4c1.8,0,3.1,0.6,3.9,1.9C142.2,17.5,142.4,18.2,142.4,19L142.4,19z M138.4,19.6
			c0.5,0,0.7-0.2,0.7-0.6c0-0.3-0.1-0.5-0.3-0.7c-0.2-0.2-0.5-0.3-1-0.3c-0.4,0-0.8,0.2-1.2,0.5c-0.4,0.3-0.6,0.7-0.6,1.1
			L138.4,19.6L138.4,19.6z"/>
		<g>
			<path fill="#B3B3B3" d="M68.2,144.9c0.5,0,1,0.4,1,1c0,0.5-0.4,1-1,1c-0.5,0-1-0.4-1-1C67.3,145.4,67.7,144.9,68.2,144.9z"/>
			<path fill="#B3B3B3" d="M76.8,141.1c0.5,0,1,0.4,1,1c0,0.5-0.4,1-1,1c-0.5,0-1-0.4-1-1C75.8,141.5,76.3,141.1,76.8,141.1z"/>
			<path fill="#B3B3B3" d="M84.5,141.6c0.5,0,1,0.4,1,1c0,0.5-0.4,1-1,1c-0.5,0-1-0.4-1-1C83.5,142.1,84,141.6,84.5,141.6z"/>
			<path fill="#B3B3B3" d="M90.8,144.9c0.5,0,1,0.4,1,1c0,0.5-0.4,1-1,1c-0.5,0-1-0.4-1-1C89.8,145.4,90.2,144.9,90.8,144.9z"/>
			<path fill="#B3B3B3" d="M95.6,150.1c0.5,0,1,0.4,1,1c0,0.5-0.4,1-1,1c-0.5,0-1-0.4-1-1C94.6,150.6,95,150.1,95.6,150.1z"/>
			<path fill="#B3B3B3" d="M98.8,157.3c0.5,0,1,0.4,1,1c0,0.5-0.4,1-1,1c-0.5,0-1-0.4-1-1C97.8,157.8,98.2,157.3,98.8,157.3z"/>
			<path fill="#B3B3B3" d="M100.1,164.5c0.5,0,1,0.4,1,1c0,0.5-0.4,1-1,1c-0.5,0-1-0.4-1-1C99.1,165,99.6,164.5,100.1,164.5z"/>
			<path fill="#B3B3B3" d="M100.3,172c0.5,0,1,0.4,1,1c0,0.5-0.4,1-1,1c-0.5,0-1-0.4-1-1C99.3,172.4,99.7,172,100.3,172z"/>
			<path fill="#B3B3B3" d="M98.5,179.9c0.5,0,1,0.4,1,1c0,0.5-0.4,1-1,1c-0.5,0-1-0.4-1-1C97.5,180.3,98,179.9,98.5,179.9z"/>
			<path fill="#B3B3B3" d="M96,186.3c0.5,0,1,0.4,1,1c0,0.5-0.4,1-1,1c-0.5,0-1-0.4-1-1C95,186.8,95.5,186.3,96,186.3z"/>
			<path fill="#B3B3B3" d="M91.6,192.2c0.5,0,1,0.4,1,1c0,0.5-0.4,1-1,1c-0.5,0-1-0.4-1-1C90.6,192.7,91.1,192.2,91.6,192.2z"/>
			<path fill="#B3B3B3" d="M84.7,197.1c0.5,0,1,0.4,1,1c0,0.5-0.4,1-1,1c-0.5,0-1-0.4-1-1C83.7,197.6,84.1,197.1,84.7,197.1z"/>
			<path fill="#B3B3B3" d="M79.8,198.5c0.5,0,1,0.4,1,1c0,0.5-0.4,1-1,1c-0.5,0-1-0.4-1-1C78.8,199,79.2,198.5,79.8,198.5z"/>
			<path fill="#B3B3B3" d="M74.5,197.1c0.5,0,1,0.4,1,1c0,0.5-0.4,1-1,1c-0.5,0-1-0.4-1-1C73.5,197.6,73.9,197.1,74.5,197.1z"/>
			<path fill="#B3B3B3" d="M67.7,192.2c0.5,0,1,0.4,1,1c0,0.5-0.4,1-1,1c-0.5,0-1-0.4-1-1C66.7,192.7,67.1,192.2,67.7,192.2z"/>
			<path fill="#B3B3B3" d="M63.2,186.3c0.5,0,1,0.4,1,1c0,0.5-0.4,1-1,1c-0.5,0-1-0.4-1-1C62.2,186.8,62.7,186.3,63.2,186.3z"/>
			<path fill="#B3B3B3" d="M60.6,179.9c0.5,0,1,0.4,1,1c0,0.5-0.4,1-1,1c-0.5,0-1-0.4-1-1C59.6,180.3,60.1,179.9,60.6,179.9z"/>
			<path fill="#B3B3B3" d="M59,172c0.5,0,1,0.4,1,1c0,0.5-0.4,1-1,1c-0.5,0-1-0.4-1-1C58,172.4,58.4,172,59,172z"/>
			<path fill="#B3B3B3" d="M59,164.5c0.5,0,1,0.4,1,1c0,0.5-0.4,1-1,1c-0.5,0-1-0.4-1-1C58,165,58.5,164.5,59,164.5z"/>
			<path fill="#B3B3B3" d="M60.4,157.3c0.5,0,1,0.4,1,1c0,0.5-0.4,1-1,1c-0.5,0-1-0.4-1-1C59.4,157.8,59.8,157.3,60.4,157.3z"/>
			<path fill="#B3B3B3" d="M63.6,150.1c0.5,0,1,0.4,1,1c0,0.5-0.4,1-1,1c-0.5,0-1-0.4-1-1C62.6,150.6,63,150.1,63.6,150.1z"/>
			<path fill="#B3B3B3" d="M139.5,178.2c0.2,0.5-0.1,1.1-0.7,1.2c-0.5,0.2-1.1-0.1-1.2-0.7c-0.2-0.5,0.1-1.1,0.7-1.2
				C138.8,177.4,139.3,177.7,139.5,178.2z"/>
			<path fill="#B3B3B3" d="M145.6,185.3c0.2,0.5-0.1,1.1-0.7,1.2c-0.5,0.2-1.1-0.1-1.2-0.7c-0.2-0.5,0.1-1.1,0.7-1.2
				C144.9,184.5,145.5,184.8,145.6,185.3z"/>
			<path fill="#B3B3B3" d="M147.3,192.8c0.2,0.5-0.1,1.1-0.7,1.2c-0.5,0.2-1.1-0.1-1.2-0.7c-0.2-0.5,0.1-1.1,0.7-1.2
				C146.6,192,147.2,192.3,147.3,192.8z"/>
			<path fill="#B3B3B3" d="M146,199.8c0.2,0.5-0.1,1.1-0.7,1.2c-0.5,0.2-1.1-0.1-1.2-0.7c-0.2-0.5,0.1-1.1,0.7-1.2
				C145.3,199,145.8,199.3,146,199.8z"/>
			<path fill="#B3B3B3" d="M142.4,205.9c0.2,0.5-0.1,1.1-0.7,1.2c-0.5,0.2-1.1-0.1-1.2-0.7c-0.2-0.5,0.1-1.1,0.7-1.2
				C141.7,205,142.2,205.3,142.4,205.9z"/>
			<path fill="#B3B3B3" d="M136.4,211c0.2,0.5-0.1,1.1-0.7,1.2c-0.5,0.2-1.1-0.1-1.2-0.7c-0.2-0.5,0.1-1.1,0.7-1.2
				C135.7,210.2,136.3,210.5,136.4,211z"/>
			<path fill="#B3B3B3" d="M129.9,214.4c0.2,0.5-0.1,1.1-0.7,1.2c-0.5,0.2-1.1-0.1-1.2-0.7c-0.2-0.5,0.1-1.1,0.7-1.2
				C129.2,213.6,129.7,213.9,129.9,214.4z"/>
			<path fill="#B3B3B3" d="M122.8,216.7c0.2,0.5-0.1,1.1-0.7,1.2c-0.5,0.2-1.1-0.1-1.2-0.7c-0.2-0.5,0.1-1.1,0.7-1.2
				C122.1,215.9,122.6,216.2,122.8,216.7z"/>
			<path fill="#B3B3B3" d="M114.7,217.3c0.2,0.5-0.1,1.1-0.7,1.2c-0.5,0.2-1.1-0.1-1.2-0.7c-0.2-0.5,0.1-1.1,0.7-1.2
				C114,216.4,114.6,216.7,114.7,217.3z"/>
			<path fill="#B3B3B3" d="M94.2,209c0.2,0.5-0.1,1.1-0.7,1.2c-0.5,0.2-1.1-0.1-1.2-0.7c-0.2-0.5,0.1-1.1,0.7-1.2
				C93.5,208.1,94.1,208.4,94.2,209z"/>
			<path fill="#B3B3B3" d="M91.5,204.7c0.2,0.5-0.1,1.1-0.7,1.2c-0.5,0.2-1.1-0.1-1.2-0.7c-0.2-0.5,0.1-1.1,0.7-1.2
				C90.8,203.9,91.3,204.2,91.5,204.7z"/>
			<path fill="#B3B3B3" d="M91.3,199.2c0.2,0.5-0.1,1.1-0.7,1.2c-0.5,0.2-1.1-0.1-1.2-0.7c-0.2-0.5,0.1-1.1,0.7-1.2
				C90.6,198.4,91.1,198.7,91.3,199.2z"/>
			<path fill="#B3B3B3" d="M103.8,181c0.2,0.5-0.1,1.1-0.7,1.2c-0.5,0.2-1.1-0.1-1.2-0.7c-0.2-0.5,0.1-1.1,0.7-1.2
				C103.1,180.2,103.6,180.5,103.8,181z"/>
			<path fill="#B3B3B3" d="M110.9,177.1c0.2,0.5-0.1,1.1-0.7,1.2c-0.5,0.2-1.1-0.1-1.2-0.7c-0.2-0.5,0.1-1.1,0.7-1.2
				C110.2,176.3,110.7,176.6,110.9,177.1z"/>
			<path fill="#B3B3B3" d="M118,175c0.2,0.5-0.1,1.1-0.7,1.2c-0.5,0.2-1.1-0.1-1.2-0.7c-0.2-0.5,0.1-1.1,0.7-1.2
				C117.3,174.2,117.9,174.5,118,175z"/>
			<path fill="#B3B3B3" d="M125.3,174.2c0.2,0.5-0.1,1.1-0.7,1.2c-0.5,0.2-1.1-0.1-1.2-0.7c-0.2-0.5,0.1-1.1,0.7-1.2
				C124.6,173.4,125.2,173.7,125.3,174.2z"/>
			<path fill="#B3B3B3" d="M133.2,175.2c0.2,0.5-0.1,1.1-0.7,1.2c-0.5,0.2-1.1-0.1-1.2-0.7c-0.2-0.5,0.1-1.1,0.7-1.2
				C132.5,174.4,133,174.7,133.2,175.2z"/>
			<path fill="#B3B3B3" d="M128.9,256.5c-0.5,0.3-1.1,0.2-1.4-0.3c-0.3-0.5-0.2-1.1,0.3-1.4c0.5-0.3,1.1-0.2,1.4,0.3
				C129.5,255.6,129.3,256.2,128.9,256.5z"/>
			<path fill="#B3B3B3" d="M123.8,264.5c-0.5,0.3-1.1,0.2-1.4-0.3c-0.3-0.5-0.2-1.1,0.3-1.4c0.5-0.3,1.1-0.2,1.4,0.3
				C124.4,263.5,124.3,264.1,123.8,264.5z"/>
			<path fill="#B3B3B3" d="M117.1,268.2c-0.5,0.3-1.1,0.2-1.4-0.3c-0.3-0.5-0.2-1.1,0.3-1.4c0.5-0.3,1.1-0.2,1.4,0.3
				C117.7,267.3,117.6,267.9,117.1,268.2z"/>
			<path fill="#B3B3B3" d="M110.1,269c-0.5,0.3-1.1,0.2-1.4-0.3c-0.3-0.5-0.2-1.1,0.3-1.4c0.5-0.3,1.1-0.2,1.4,0.3
				C110.7,268,110.5,268.7,110.1,269z"/>
			<path fill="#B3B3B3" d="M103.2,267.3c-0.5,0.3-1.1,0.2-1.4-0.3c-0.3-0.5-0.2-1.1,0.3-1.4c0.5-0.3,1.1-0.2,1.4,0.3
				C103.8,266.4,103.7,267,103.2,267.3z"/>
			<path fill="#B3B3B3" d="M96.6,263c-0.5,0.3-1.1,0.2-1.4-0.3c-0.3-0.5-0.2-1.1,0.3-1.4c0.5-0.3,1.1-0.2,1.4,0.3
				C97.2,262.1,97,262.7,96.6,263z"/>
			<path fill="#B3B3B3" d="M91.5,257.8c-0.5,0.3-1.1,0.2-1.4-0.3c-0.3-0.5-0.2-1.1,0.3-1.4c0.5-0.3,1.1-0.2,1.4,0.3
				C92.1,256.9,91.9,257.5,91.5,257.8z"/>
			<path fill="#B3B3B3" d="M87.2,251.6c-0.5,0.3-1.1,0.2-1.4-0.3c-0.3-0.5-0.2-1.1,0.3-1.4c0.5-0.3,1.1-0.2,1.4,0.3
				C87.8,250.7,87.7,251.3,87.2,251.6z"/>
			<path fill="#B3B3B3" d="M84.3,244.1c-0.5,0.3-1.1,0.2-1.4-0.3c-0.3-0.5-0.2-1.1,0.3-1.4c0.5-0.3,1.1-0.2,1.4,0.3
				C84.9,243.2,84.8,243.8,84.3,244.1z"/>
			<path fill="#B3B3B3" d="M82.9,237.3c-0.5,0.3-1.1,0.2-1.4-0.3c-0.3-0.5-0.2-1.1,0.3-1.4c0.5-0.3,1.1-0.2,1.4,0.3
				C83.5,236.4,83.3,237,82.9,237.3z"/>
			<path fill="#B3B3B3" d="M83.3,230c-0.5,0.3-1.1,0.2-1.4-0.3c-0.3-0.5-0.2-1.1,0.3-1.4c0.5-0.3,1.1-0.2,1.4,0.3
				C83.9,229.1,83.7,229.7,83.3,230z"/>
			<path fill="#B3B3B3" d="M86.4,222.1c-0.5,0.3-1.1,0.2-1.4-0.3c-0.3-0.5-0.2-1.1,0.3-1.4c0.5-0.3,1.1-0.2,1.4,0.3
				C87,221.2,86.8,221.8,86.4,222.1z"/>
			<path fill="#B3B3B3" d="M89.7,218.2c-0.5,0.3-1.1,0.2-1.4-0.3c-0.3-0.5-0.2-1.1,0.3-1.4c0.5-0.3,1.1-0.2,1.4,0.3
				C90.2,217.3,90.1,217.9,89.7,218.2z"/>
			<path fill="#B3B3B3" d="M94.9,216.4c-0.5,0.3-1.1,0.2-1.4-0.3c-0.3-0.5-0.2-1.1,0.3-1.4c0.5-0.3,1.1-0.2,1.4,0.3
				C95.5,215.5,95.3,216.1,94.9,216.4L94.9,216.4z"/>
			<path fill="#B3B3B3" d="M103.3,216.8c-0.5,0.3-1.1,0.2-1.4-0.3c-0.3-0.5-0.2-1.1,0.3-1.4c0.5-0.3,1.1-0.2,1.4,0.3
				C103.8,215.9,103.7,216.5,103.3,216.8z"/>
			<path fill="#B3B3B3" d="M110.2,219.2c-0.5,0.3-1.1,0.2-1.4-0.3c-0.3-0.5-0.2-1.1,0.3-1.4c0.5-0.3,1.1-0.2,1.4,0.3
				C110.8,218.3,110.7,218.9,110.2,219.2L110.2,219.2z"/>
			<path fill="#B3B3B3" d="M115.9,223.2c-0.5,0.3-1.1,0.2-1.4-0.3c-0.3-0.5-0.2-1.1,0.3-1.4c0.5-0.3,1.1-0.2,1.4,0.3
				C116.5,222.2,116.4,222.9,115.9,223.2z"/>
			<path fill="#B3B3B3" d="M121.7,228.8c-0.5,0.3-1.1,0.2-1.4-0.3c-0.3-0.5-0.2-1.1,0.3-1.4c0.5-0.3,1.1-0.2,1.4,0.3
				C122.3,227.9,122.1,228.5,121.7,228.8z"/>
			<path fill="#B3B3B3" d="M125.7,235.1c-0.5,0.3-1.1,0.2-1.4-0.3c-0.3-0.5-0.2-1.1,0.3-1.4c0.5-0.3,1.1-0.2,1.4,0.3
				C126.3,234.2,126.2,234.8,125.7,235.1L125.7,235.1z"/>
			<path fill="#B3B3B3" d="M128.6,241.8c-0.5,0.3-1.1,0.2-1.4-0.3c-0.3-0.5-0.2-1.1,0.3-1.4c0.5-0.3,1.1-0.2,1.4,0.3
				C129.2,240.9,129.1,241.5,128.6,241.8z"/>
			<path fill="#B3B3B3" d="M129.9,249.6c-0.5,0.3-1.1,0.2-1.4-0.3c-0.3-0.5-0.2-1.1,0.3-1.4c0.5-0.3,1.1-0.2,1.4,0.3
				C130.5,248.7,130.4,249.3,129.9,249.6z"/>
			<path fill="#B3B3B3" d="M51,269.7c-0.4-0.3-0.5-1-0.1-1.4c0.3-0.4,1-0.5,1.4-0.1c0.4,0.3,0.5,1,0.1,1.4
				C52.1,270,51.5,270,51,269.7z"/>
			<path fill="#B3B3B3" d="M42,267.1c-0.4-0.3-0.5-1-0.1-1.4c0.3-0.4,1-0.5,1.4-0.1c0.4,0.3,0.5,1,0.1,1.4
				C43,267.4,42.4,267.5,42,267.1z"/>
			<path fill="#B3B3B3" d="M36.4,261.8c-0.4-0.3-0.5-1-0.1-1.4c0.3-0.4,1-0.5,1.4-0.1c0.4,0.3,0.5,1,0.1,1.4
				C37.5,262.1,36.8,262.2,36.4,261.8z"/>
			<path fill="#B3B3B3" d="M33.7,255.3c-0.4-0.3-0.5-1-0.1-1.4c0.3-0.4,1-0.5,1.4-0.1c0.4,0.3,0.5,1,0.1,1.4
				C34.7,255.6,34.1,255.6,33.7,255.3z"/>
			<path fill="#B3B3B3" d="M33.3,248.2c-0.4-0.3-0.5-1-0.1-1.4c0.3-0.4,1-0.5,1.4-0.1c0.4,0.3,0.5,1,0.1,1.4
				C34.4,248.5,33.7,248.6,33.3,248.2z"/>
			<path fill="#B3B3B3" d="M35.4,240.6c-0.4-0.3-0.5-1-0.1-1.4c0.3-0.4,1-0.5,1.4-0.1c0.4,0.3,0.5,1,0.1,1.4
				C36.5,240.9,35.9,241,35.4,240.6z"/>
			<path fill="#B3B3B3" d="M39,234.2c-0.4-0.3-0.5-1-0.1-1.4c0.3-0.4,1-0.5,1.4-0.1c0.4,0.3,0.5,1,0.1,1.4
				C40.1,234.5,39.4,234.6,39,234.2z"/>
			<path fill="#B3B3B3" d="M43.7,228.4c-0.4-0.3-0.5-1-0.1-1.4c0.3-0.4,1-0.5,1.4-0.1c0.4,0.3,0.5,1,0.1,1.4
				C44.7,228.7,44.1,228.7,43.7,228.4z"/>
			<path fill="#B3B3B3" d="M50.1,223.4c-0.4-0.3-0.5-1-0.1-1.4c0.3-0.4,1-0.5,1.4-0.1c0.4,0.3,0.5,1,0.1,1.4
				C51.1,223.7,50.5,223.8,50.1,223.4z"/>
			<path fill="#B3B3B3" d="M56.1,220.1c-0.4-0.3-0.5-1-0.1-1.4c0.3-0.4,1-0.5,1.4-0.1c0.4,0.3,0.5,1,0.1,1.4
				C57.2,220.4,56.5,220.4,56.1,220.1z"/>
			<path fill="#B3B3B3" d="M63.2,218.4c-0.4-0.3-0.5-1-0.1-1.4c0.3-0.4,1-0.5,1.4-0.1c0.4,0.3,0.5,1,0.1,1.4
				C64.3,218.7,63.7,218.7,63.2,218.4z"/>
			<path fill="#B3B3B3" d="M71.7,219c-0.4-0.3-0.5-1-0.1-1.4c0.3-0.4,1-0.5,1.4-0.1c0.4,0.3,0.5,1,0.1,1.4
				C72.8,219.3,72.2,219.4,71.7,219z"/>
			<path fill="#B3B3B3" d="M76.4,221.1c-0.4-0.3-0.5-1-0.1-1.4c0.3-0.4,1-0.5,1.4-0.1c0.4,0.3,0.5,1,0.1,1.4
				C77.4,221.4,76.8,221.4,76.4,221.1z"/>
			<path fill="#B3B3B3" d="M79.6,225.6c-0.4-0.3-0.5-1-0.1-1.4c0.3-0.4,1-0.5,1.4-0.1c0.4,0.3,0.5,1,0.1,1.4
				C80.6,225.9,80,225.9,79.6,225.6z"/>
			<path fill="#B3B3B3" d="M79.2,247.6c-0.4-0.3-0.5-1-0.1-1.4c0.3-0.4,1-0.5,1.4-0.1c0.4,0.3,0.5,1,0.1,1.4
				C80.3,247.9,79.6,248,79.2,247.6z"/>
			<path fill="#B3B3B3" d="M75.5,254.8c-0.4-0.3-0.5-1-0.1-1.4c0.3-0.4,1-0.5,1.4-0.1c0.4,0.3,0.5,1,0.1,1.4
				C76.5,255.1,75.9,255.1,75.5,254.8z"/>
			<path fill="#B3B3B3" d="M70.6,260.5c-0.4-0.3-0.5-1-0.1-1.4c0.3-0.4,1-0.5,1.4-0.1c0.4,0.3,0.5,1,0.1,1.4
				C71.7,260.8,71.1,260.8,70.6,260.5z"/>
			<path fill="#B3B3B3" d="M65,265.2c-0.4-0.3-0.5-1-0.1-1.4s1-0.5,1.4-0.1c0.4,0.3,0.5,1,0.1,1.4C66.1,265.5,65.4,265.5,65,265.2z"
				/>
			<path fill="#B3B3B3" d="M57.9,268.7c-0.4-0.3-0.5-1-0.1-1.4c0.3-0.4,1-0.5,1.4-0.1c0.4,0.3,0.5,1,0.1,1.4
				C59,269,58.3,269,57.9,268.7z"/>
			<path fill="#B3B3B3" d="M14.9,199.6c0.2-0.5,0.8-0.7,1.3-0.5c0.5,0.2,0.7,0.8,0.5,1.3c-0.2,0.5-0.8,0.7-1.3,0.5
				C14.9,200.7,14.7,200.1,14.9,199.6z"/>
			<path fill="#B3B3B3" d="M14.7,190.2c0.2-0.5,0.8-0.7,1.3-0.5c0.5,0.2,0.7,0.8,0.5,1.3c-0.2,0.5-0.8,0.7-1.3,0.5
				C14.7,191.3,14.5,190.7,14.7,190.2z"/>
			<path fill="#B3B3B3" d="M18.2,183.3c0.2-0.5,0.8-0.7,1.3-0.5c0.5,0.2,0.7,0.8,0.5,1.3c-0.2,0.5-0.8,0.7-1.3,0.5
				C18.2,184.4,18,183.8,18.2,183.3z"/>
			<path fill="#B3B3B3" d="M23.7,178.8c0.2-0.5,0.8-0.7,1.3-0.5c0.5,0.2,0.7,0.8,0.5,1.3c-0.2,0.5-0.8,0.7-1.3,0.5
				C23.7,179.9,23.5,179.3,23.7,178.8z"/>
			<path fill="#B3B3B3" d="M30.3,176.4c0.2-0.5,0.8-0.7,1.3-0.5c0.5,0.2,0.7,0.8,0.5,1.3c-0.2,0.5-0.8,0.7-1.3,0.5
				C30.4,177.5,30.1,176.9,30.3,176.4z"/>
			<path fill="#B3B3B3" d="M38.2,176.3c0.2-0.5,0.8-0.7,1.3-0.5c0.5,0.2,0.7,0.8,0.5,1.3c-0.2,0.5-0.8,0.7-1.3,0.5
				C38.3,177.4,38,176.8,38.2,176.3z"/>
			<path fill="#B3B3B3" d="M45.4,177.9c0.2-0.5,0.8-0.7,1.3-0.5c0.5,0.2,0.7,0.8,0.5,1.3c-0.2,0.5-0.8,0.7-1.3,0.5
				C45.4,179,45.2,178.4,45.4,177.9z"/>
			<path fill="#B3B3B3" d="M52.3,180.6c0.2-0.5,0.8-0.7,1.3-0.5c0.5,0.2,0.7,0.8,0.5,1.3c-0.2,0.5-0.8,0.7-1.3,0.5
				C52.3,181.7,52.1,181.1,52.3,180.6z"/>
			<path fill="#B3B3B3" d="M67.6,196.5c0.2-0.5,0.8-0.7,1.3-0.5c0.5,0.2,0.7,0.8,0.5,1.3c-0.2,0.5-0.8,0.7-1.3,0.5
				C67.6,197.6,67.3,197,67.6,196.5z"/>
			<path fill="#B3B3B3" d="M69.4,204.8c0.2-0.5,0.8-0.7,1.3-0.5c0.5,0.2,0.7,0.8,0.5,1.3c-0.2,0.5-0.8,0.7-1.3,0.5
				C69.4,205.9,69.1,205.3,69.4,204.8z"/>
			<path fill="#B3B3B3" d="M68.8,209.8c0.2-0.5,0.8-0.7,1.3-0.5c0.5,0.2,0.7,0.8,0.5,1.3c-0.2,0.5-0.8,0.7-1.3,0.5
				C68.8,210.9,68.6,210.3,68.8,209.8z"/>
			<path fill="#B3B3B3" d="M65.4,214.2c0.2-0.5,0.8-0.7,1.3-0.5c0.5,0.2,0.7,0.8,0.5,1.3c-0.2,0.5-0.8,0.7-1.3,0.5
				C65.4,215.3,65.2,214.7,65.4,214.2z"/>
			<path fill="#B3B3B3" d="M44.1,220.2c0.2-0.5,0.8-0.7,1.3-0.5c0.5,0.2,0.7,0.8,0.5,1.3c-0.2,0.5-0.8,0.7-1.3,0.5
				C44.2,221.3,43.9,220.7,44.1,220.2z"/>
			<path fill="#B3B3B3" d="M36.2,218.7c0.2-0.5,0.8-0.7,1.3-0.5c0.5,0.2,0.7,0.8,0.5,1.3c-0.2,0.5-0.8,0.7-1.3,0.5
				C36.2,219.8,36,219.2,36.2,218.7z"/>
			<path fill="#B3B3B3" d="M29.4,215.7c0.2-0.5,0.8-0.7,1.3-0.5c0.5,0.2,0.7,0.8,0.5,1.3c-0.2,0.5-0.8,0.7-1.3,0.5
				C29.4,216.8,29.2,216.2,29.4,215.7z"/>
			<path fill="#B3B3B3" d="M23.3,211.7c0.2-0.5,0.8-0.7,1.3-0.5c0.5,0.2,0.7,0.8,0.5,1.3c-0.2,0.5-0.8,0.7-1.3,0.5
				C23.3,212.8,23,212.2,23.3,211.7z"/>
			<path fill="#B3B3B3" d="M17.9,205.9c0.2-0.5,0.8-0.7,1.3-0.5c0.5,0.2,0.7,0.8,0.5,1.3c-0.2,0.5-0.8,0.7-1.3,0.5
				C17.9,207,17.6,206.4,17.9,205.9z"/>
		</g>
	</g>
</g>
</svg>
